<mxfile host="app.diagrams.net" agent="Mozilla/5.0 (Windows NT 10.0; Win64; x64) AppleWebKit/537.36 (KHTML, like Gecko) Chrome/131.0.0.0 Safari/537.36" version="26.0.8">
  <diagram id="6a731a19-8d31-9384-78a2-239565b7b9f0" name="Page-1">
    <mxGraphModel dx="1327" dy="658" grid="1" gridSize="10" guides="1" tooltips="1" connect="1" arrows="1" fold="1" page="1" pageScale="1" pageWidth="1169" pageHeight="827" background="#003469" math="0" shadow="0">
      <root>
        <mxCell id="0" />
        <mxCell id="1" parent="0" />
        <mxCell id="2019" value="" style="rounded=1;whiteSpace=wrap;html=1;dashed=1;strokeColor=none;strokeWidth=2;fillColor=#E6E6E6;fontFamily=Verdana;fontSize=12;fontColor=#00BEF2" parent="1" vertex="1">
          <mxGeometry x="40" y="120" width="165" height="670" as="geometry" />
        </mxCell>
        <mxCell id="2020" value="" style="rounded=1;whiteSpace=wrap;html=1;dashed=1;strokeColor=none;strokeWidth=2;fillColor=#E6E6E6;fontFamily=Verdana;fontSize=12;fontColor=#00BEF2" parent="1" vertex="1">
          <mxGeometry x="220" y="120" width="165" height="670" as="geometry" />
        </mxCell>
        <mxCell id="2021" value="" style="rounded=1;whiteSpace=wrap;html=1;dashed=1;strokeColor=none;strokeWidth=2;fillColor=#E6E6E6;fontFamily=Verdana;fontSize=12;fontColor=#00BEF2" parent="1" vertex="1">
          <mxGeometry x="400" y="120" width="165" height="670" as="geometry" />
        </mxCell>
        <mxCell id="2022" value="" style="rounded=1;whiteSpace=wrap;html=1;dashed=1;strokeColor=none;strokeWidth=2;fillColor=#E6E6E6;fontFamily=Verdana;fontSize=12;fontColor=#00BEF2" parent="1" vertex="1">
          <mxGeometry x="580" y="120" width="165" height="670" as="geometry" />
        </mxCell>
        <mxCell id="2023" value="" style="rounded=1;whiteSpace=wrap;html=1;dashed=1;strokeColor=none;strokeWidth=2;fillColor=#E6E6E6;fontFamily=Verdana;fontSize=12;fontColor=#00BEF2" parent="1" vertex="1">
          <mxGeometry x="760" y="120" width="165" height="670" as="geometry" />
        </mxCell>
        <mxCell id="2025" value="Landing-zone" style="whiteSpace=wrap;html=1;dashed=1;strokeColor=none;strokeWidth=2;fillColor=#3399FF;fontFamily=Helvetica;fontSize=18;fontColor=#FFFFFF;fontStyle=1" parent="1" vertex="1">
          <mxGeometry x="40" y="120" width="165" height="60" as="geometry" />
        </mxCell>
        <mxCell id="2026" value="Ingestion" style="whiteSpace=wrap;html=1;dashed=1;strokeColor=none;strokeWidth=2;fillColor=#3399FF;fontFamily=Helvetica;fontSize=18;fontColor=#FFFFFF;fontStyle=1" parent="1" vertex="1">
          <mxGeometry x="220" y="120" width="165" height="60" as="geometry" />
        </mxCell>
        <mxCell id="2027" value="Bronze" style="whiteSpace=wrap;html=1;dashed=1;strokeColor=none;strokeWidth=2;fillColor=#3399FF;fontFamily=Helvetica;fontSize=18;fontColor=#FFFFFF;fontStyle=1" parent="1" vertex="1">
          <mxGeometry x="400" y="120" width="165" height="60" as="geometry" />
        </mxCell>
        <mxCell id="2028" value="Silver" style="whiteSpace=wrap;html=1;dashed=1;strokeColor=none;strokeWidth=2;fillColor=#3399FF;fontFamily=Helvetica;fontSize=18;fontColor=#FFFFFF;fontStyle=1" parent="1" vertex="1">
          <mxGeometry x="580" y="120" width="165" height="60" as="geometry" />
        </mxCell>
        <mxCell id="2029" value="Gold" style="whiteSpace=wrap;html=1;dashed=1;strokeColor=none;strokeWidth=2;fillColor=#3399FF;fontFamily=Helvetica;fontSize=18;fontColor=#FFFFFF;fontStyle=1" parent="1" vertex="1">
          <mxGeometry x="760" y="120" width="165" height="60" as="geometry" />
        </mxCell>
        <mxCell id="2031" value="" style="shape=mxgraph.arrows.two_way_arrow_horizontal;html=1;verticalLabelPosition=bottom;verticalAlign=top;strokeWidth=2;strokeColor=none;dashed=1;fillColor=#FFFFFF;fontFamily=Verdana;fontSize=12;fontColor=#00BEF2" parent="1" vertex="1">
          <mxGeometry x="180" y="131" width="67" height="39" as="geometry" />
        </mxCell>
        <mxCell id="2032" value="" style="shape=mxgraph.arrows.two_way_arrow_horizontal;html=1;verticalLabelPosition=bottom;verticalAlign=top;strokeWidth=2;strokeColor=none;dashed=1;fillColor=#FFFFFF;fontFamily=Verdana;fontSize=12;fontColor=#00BEF2" parent="1" vertex="1">
          <mxGeometry x="360" y="131" width="67" height="39" as="geometry" />
        </mxCell>
        <mxCell id="2033" value="" style="shape=mxgraph.arrows.two_way_arrow_horizontal;html=1;verticalLabelPosition=bottom;verticalAlign=top;strokeWidth=2;strokeColor=none;dashed=1;fillColor=#FFFFFF;fontFamily=Verdana;fontSize=12;fontColor=#00BEF2" parent="1" vertex="1">
          <mxGeometry x="540" y="131" width="67" height="39" as="geometry" />
        </mxCell>
        <mxCell id="2034" value="" style="shape=mxgraph.arrows.two_way_arrow_horizontal;html=1;verticalLabelPosition=bottom;verticalAlign=top;strokeWidth=2;strokeColor=none;dashed=1;fillColor=#FFFFFF;fontFamily=Verdana;fontSize=12;fontColor=#00BEF2" parent="1" vertex="1">
          <mxGeometry x="720" y="131" width="67" height="39" as="geometry" />
        </mxCell>
        <mxCell id="2047" value="Selectiva DE Project" style="text;html=1;strokeColor=none;fillColor=none;align=center;verticalAlign=middle;whiteSpace=wrap;overflow=hidden;dashed=1;fontSize=36;fontColor=#FFFFFF;fontFamily=Helvetica;fontStyle=1" parent="1" vertex="1">
          <mxGeometry x="40" y="50" width="880" height="50" as="geometry" />
        </mxCell>
        <mxCell id="2048" value="Build Bronze&amp;nbsp;&lt;div&gt;Layer Tables&lt;/div&gt;" style="rounded=1;whiteSpace=wrap;html=1;dashed=1;strokeColor=none;strokeWidth=2;fillColor=#FFFFFF;fontFamily=Helvetica;fontSize=14;fontColor=#FFB366;opacity=75;verticalAlign=top;fontStyle=1" parent="1" vertex="1">
          <mxGeometry x="410" y="190" width="140" height="160" as="geometry" />
        </mxCell>
        <mxCell id="2049" value="Unity Catalog&amp;nbsp;&lt;div&gt;Tables&lt;/div&gt;" style="rounded=1;whiteSpace=wrap;html=1;dashed=1;strokeColor=none;strokeWidth=2;fillColor=#FFFFFF;fontFamily=Helvetica;fontSize=14;fontColor=#FFB366;opacity=75;verticalAlign=top;fontStyle=1" parent="1" vertex="1">
          <mxGeometry x="413" y="370" width="140" height="310" as="geometry" />
        </mxCell>
        <mxCell id="2053" value="Tables" style="verticalLabelPosition=bottom;html=1;verticalAlign=top;strokeColor=none;fillColor=#3399FF;shape=mxgraph.azure.storage_table;dashed=1;fontFamily=Helvetica;fontSize=14;fontColor=#004C99" parent="1" vertex="1">
          <mxGeometry x="455" y="606" width="50" height="45" as="geometry" />
        </mxCell>
        <mxCell id="2055" value="Transformations&amp;nbsp;&lt;div&gt;(Clean &amp;amp; high quality Data)&lt;/div&gt;" style="rounded=1;whiteSpace=wrap;html=1;dashed=1;strokeColor=none;strokeWidth=2;fillColor=#FFFFFF;fontFamily=Helvetica;fontSize=14;fontColor=#FFB366;opacity=75;verticalAlign=top;fontStyle=1" parent="1" vertex="1">
          <mxGeometry x="594" y="189" width="140" height="201" as="geometry" />
        </mxCell>
        <mxCell id="2059" value="Create Views" style="rounded=1;whiteSpace=wrap;html=1;dashed=1;strokeColor=none;strokeWidth=2;fillColor=#FFFFFF;fontFamily=Helvetica;fontSize=14;fontColor=#FFB366;opacity=75;verticalAlign=top;fontStyle=1" parent="1" vertex="1">
          <mxGeometry x="773" y="196" width="140" height="144" as="geometry" />
        </mxCell>
        <mxCell id="2068" value="DBx Hive Metastore" style="rounded=1;whiteSpace=wrap;html=1;dashed=1;strokeColor=none;strokeWidth=2;fillColor=#FFFFFF;fontFamily=Helvetica;fontSize=14;fontColor=#FFB366;opacity=75;verticalAlign=top;fontStyle=1" parent="1" vertex="1">
          <mxGeometry x="233" y="549" width="140" height="227" as="geometry" />
        </mxCell>
        <mxCell id="2075" value="" style="arrow;html=1;endArrow=block;endFill=1;strokeColor=none;strokeWidth=4;fontFamily=Helvetica;fontSize=36;fontColor=#FFB366;fillColor=#FFB366;" parent="1" edge="1">
          <mxGeometry width="100" height="100" relative="1" as="geometry">
            <mxPoint x="167" y="283" as="sourcePoint" />
            <mxPoint x="247" y="283" as="targetPoint" />
          </mxGeometry>
        </mxCell>
        <mxCell id="2076" value="" style="arrow;html=1;endArrow=block;endFill=1;strokeColor=none;strokeWidth=4;fontFamily=Helvetica;fontSize=36;fontColor=#FFB366;fillColor=#FFB366;opacity=100" parent="1" edge="1">
          <mxGeometry width="100" height="100" relative="1" as="geometry">
            <mxPoint x="347" y="283" as="sourcePoint" />
            <mxPoint x="427" y="283" as="targetPoint" />
          </mxGeometry>
        </mxCell>
        <mxCell id="2077" value="" style="arrow;html=1;endArrow=block;endFill=1;strokeColor=none;strokeWidth=4;fontFamily=Helvetica;fontSize=36;fontColor=#FFB366;fillColor=#FFB366;" parent="1" edge="1">
          <mxGeometry width="100" height="100" relative="1" as="geometry">
            <mxPoint x="527" y="278" as="sourcePoint" />
            <mxPoint x="607" y="278" as="targetPoint" />
          </mxGeometry>
        </mxCell>
        <mxCell id="2079" value="" style="arrow;html=1;endArrow=block;endFill=1;strokeColor=none;strokeWidth=4;fontFamily=Helvetica;fontSize=36;fontColor=#FFB366;fillColor=#FFB366;" parent="1" edge="1">
          <mxGeometry width="100" height="100" relative="1" as="geometry">
            <mxPoint x="714" y="270" as="sourcePoint" />
            <mxPoint x="794" y="270" as="targetPoint" />
          </mxGeometry>
        </mxCell>
        <mxCell id="2081" value="" style="arrow;html=1;endArrow=block;endFill=1;strokeColor=none;strokeWidth=4;fontFamily=Helvetica;fontSize=36;fontColor=#FFB366;fillColor=#FFB366;entryX=0.5;entryY=1;entryDx=0;entryDy=0;" parent="1" edge="1" target="g2Sxirzmy1T5udXpX2Zn-2093">
          <mxGeometry width="100" height="100" relative="1" as="geometry">
            <mxPoint x="734" y="707.14" as="sourcePoint" />
            <mxPoint x="814" y="707.14" as="targetPoint" />
            <Array as="points">
              <mxPoint x="850" y="707" />
            </Array>
          </mxGeometry>
        </mxCell>
        <mxCell id="bBWRpNzCG56Vrc6m6rs4-2099" value="" style="edgeStyle=orthogonalEdgeStyle;rounded=0;orthogonalLoop=1;jettySize=auto;html=1;" parent="1" source="bBWRpNzCG56Vrc6m6rs4-2085" target="bBWRpNzCG56Vrc6m6rs4-2087" edge="1">
          <mxGeometry relative="1" as="geometry">
            <mxPoint x="-21.664999999999964" y="283" as="targetPoint" />
            <Array as="points">
              <mxPoint x="50" y="283" />
              <mxPoint x="50" y="434" />
            </Array>
          </mxGeometry>
        </mxCell>
        <mxCell id="bBWRpNzCG56Vrc6m6rs4-2085" value="" style="image;sketch=0;aspect=fixed;html=1;points=[];align=center;fontSize=12;image=img/lib/mscae/BlobBlock.svg;" parent="1" vertex="1">
          <mxGeometry x="60" y="248" width="83.33" height="70" as="geometry" />
        </mxCell>
        <mxCell id="bBWRpNzCG56Vrc6m6rs4-2086" value="Landing-zone&amp;nbsp;&lt;div&gt;container&lt;/div&gt;" style="text;html=1;align=center;verticalAlign=middle;whiteSpace=wrap;rounded=0;" parent="1" vertex="1">
          <mxGeometry x="60" y="322" width="96.67" height="54" as="geometry" />
        </mxCell>
        <mxCell id="bBWRpNzCG56Vrc6m6rs4-2087" value="" style="sketch=0;pointerEvents=1;shadow=0;dashed=0;html=1;strokeColor=none;fillColor=#505050;labelPosition=center;verticalLabelPosition=bottom;verticalAlign=top;outlineConnect=0;align=center;shape=mxgraph.office.concepts.folders;" parent="1" vertex="1">
          <mxGeometry x="61.66" y="397" width="80" height="74" as="geometry" />
        </mxCell>
        <mxCell id="bBWRpNzCG56Vrc6m6rs4-2091" value="Directory Structure&amp;nbsp;" style="text;html=1;align=center;verticalAlign=middle;whiteSpace=wrap;rounded=0;" parent="1" vertex="1">
          <mxGeometry x="60" y="471" width="96.67" height="54" as="geometry" />
        </mxCell>
        <mxCell id="bBWRpNzCG56Vrc6m6rs4-2092" value="" style="shape=image;verticalLabelPosition=bottom;labelBackgroundColor=#ffffff;verticalAlign=top;aspect=fixed;imageAspect=0;image=data:image/svg+xml,PHN2ZyB4bWxuczpjYz0iaHR0cDovL2NyZWF0aXZlY29tbW9ucy5vcmcvbnMjIiB4bWxuczpkYz0iaHR0cDovL3B1cmwub3JnL2RjL2VsZW1lbnRzLzEuMS8iIHhtbG5zOmlua3NjYXBlPSJodHRwOi8vd3d3Lmlua3NjYXBlLm9yZy9uYW1lc3BhY2VzL2lua3NjYXBlIiB4bWxuczpyZGY9Imh0dHA6Ly93d3cudzMub3JnLzE5OTkvMDIvMjItcmRmLXN5bnRheC1ucyMiIHhtbG5zOnNvZGlwb2RpPSJodHRwOi8vc29kaXBvZGkuc291cmNlZm9yZ2UubmV0L0RURC9zb2RpcG9kaS0wLmR0ZCIgeG1sbnM6c3ZnPSJodHRwOi8vd3d3LnczLm9yZy8yMDAwL3N2ZyIgeG1sbnM9Imh0dHA6Ly93d3cudzMub3JnLzIwMDAvc3ZnIiB4bWxuczp4bGluaz0iaHR0cDovL3d3dy53My5vcmcvMTk5OS94bGluayIgdmVyc2lvbj0iMS4xIiBpZD0ic3ZnNDUwMTQiIGlua3NjYXBlOnZlcnNpb249IjAuOTIuMyAoMjQwNTU0NiwgMjAxOC0wMy0xMSkiIHNvZGlwb2RpOmRvY25hbWU9ImNzdl9maWxlLnN2ZyIgeD0iMHB4IiB5PSIwcHgiIHZpZXdCb3g9IjAgMCA5NS4zMyAxMjIuNTYiIHN0eWxlPSJlbmFibGUtYmFja2dyb3VuZDpuZXcgMCAwIDk1LjMzIDEyMi41NjsiIHhtbDpzcGFjZT0icHJlc2VydmUiPiYjeGE7PHNvZGlwb2RpOm5hbWVkdmlldyBib3JkZXJjb2xvcj0iIzY2NjY2NiIgYm9yZGVyb3BhY2l0eT0iMSIgZml0LW1hcmdpbi1ib3R0b209IjAiIGZpdC1tYXJnaW4tbGVmdD0iMCIgZml0LW1hcmdpbi1yaWdodD0iMCIgZml0LW1hcmdpbi10b3A9IjAiIGdyaWR0b2xlcmFuY2U9IjEwIiBndWlkZXRvbGVyYW5jZT0iMTAiIGlkPSJuYW1lZHZpZXc0NTAxNiIgaW5rc2NhcGU6Y3VycmVudC1sYXllcj0ic3ZnNDUwMTQiIGlua3NjYXBlOmN4PSI2NS40ODMzMTQiIGlua3NjYXBlOmN5PSI2MC43MTUyODkiIGlua3NjYXBlOnBhZ2VvcGFjaXR5PSIwIiBpbmtzY2FwZTpwYWdlc2hhZG93PSIyIiBpbmtzY2FwZTp3aW5kb3ctaGVpZ2h0PSIxMDE3IiBpbmtzY2FwZTp3aW5kb3ctbWF4aW1pemVkPSIxIiBpbmtzY2FwZTp3aW5kb3ctd2lkdGg9IjE5MjAiIGlua3NjYXBlOndpbmRvdy14PSItOCIgaW5rc2NhcGU6d2luZG93LXk9Ii04IiBpbmtzY2FwZTp6b29tPSIzLjAwMTk5NyIgb2JqZWN0dG9sZXJhbmNlPSIxMCIgcGFnZWNvbG9yPSIjZmZmZmZmIiBzaG93Z3JpZD0iZmFsc2UiPiYjeGE7CTwvc29kaXBvZGk6bmFtZWR2aWV3PiYjeGE7PGcgaWQ9Imc0NTAxMiIgdHJhbnNmb3JtPSJ0cmFuc2xhdGUoLTE1LjMsLTE1LjMwMDQ4OCkiPiYjeGE7CTx0aXRsZSBpZD0idGl0bGU0NDkzNiI+UGFnZS0xPC90aXRsZT4mI3hhOwk8ZyBpZD0iZ3JvdXA0MTcwLTEiIHRyYW5zZm9ybT0idHJhbnNsYXRlKDE1LjMsLTE1LjMpIj4mI3hhOwkJPHRpdGxlIGlkPSJ0aXRsZTQ0OTM4Ij5DU1YgRmlsZTwvdGl0bGU+JiN4YTsJCTxnIGlkPSJncm91cDQxNzEtMiI+JiN4YTsJCQk8dGl0bGUgaWQ9InRpdGxlNDQ5NDAiPlNoZWV0LjQxNzE8L3RpdGxlPiYjeGE7CQkJPGcgaWQ9InNoYXBlNDE3Mi0zIiB0cmFuc2Zvcm09InRyYW5zbGF0ZSgxLjcwMjI3LC0xLjcwMjI3KSI+JiN4YTsJCQkJPHRpdGxlIGlkPSJ0aXRsZTQ0OTQyIj5TaGVldC40MTcyPC90aXRsZT4mI3hhOwkJCQk8cGF0aCBpZD0icGF0aDQ0OTQ0IiBpbmtzY2FwZTpjb25uZWN0b3ItY3VydmF0dXJlPSIwIiBzdHlsZT0iZmlsbDojRkZGRkZGOyIgZD0iTTAsMTUzLjE2VjM0aDYyLjI4bDI5LjY0LDI5LjY1djg5LjUxSDB6Ii8+JiN4YTsJCQk8L2c+JiN4YTsJCQk8ZyBpZD0ic2hhcGU0MTczLTUiPiYjeGE7CQkJCTx0aXRsZSBpZD0idGl0bGU0NDk0NyI+U2hlZXQuNDE3MzwvdGl0bGU+JiN4YTsJCQkJPHBhdGggaWQ9InBhdGg0NDk0OSIgaW5rc2NhcGU6Y29ubmVjdG9yLWN1cnZhdHVyZT0iMCIgc3R5bGU9ImZpbGw6Izc4OEI5QzsiIGQ9Ik02My4yOCwzNGwyOC42NCwyOC42NXY4Ny4xMUgzLjRWMzRINjMuMjh6ICAgICAgIE02NC42OSwzMC42SDB2MTIyLjU2aDk1LjMzVjYxLjI0TDY0LjY5LDMwLjZ6Ii8+JiN4YTsJCQk8L2c+JiN4YTsJCTwvZz4mI3hhOwkJPGcgaWQ9Imdyb3VwNDE3NC03IiB0cmFuc2Zvcm09InRyYW5zbGF0ZSg2MS4yODE2LC04OC41MTc4KSI+JiN4YTsJCQk8dGl0bGUgaWQ9InRpdGxlNDQ5NTMiPlNoZWV0LjQxNzQ8L3RpdGxlPiYjeGE7CQkJPGcgaWQ9InNoYXBlNDE3NS04IiB0cmFuc2Zvcm09InRyYW5zbGF0ZSgxLjcwMjI3LC0xLjcwMjI3KSI+JiN4YTsJCQkJPHRpdGxlIGlkPSJ0aXRsZTQ0OTU1Ij5TaGVldC40MTc1PC90aXRsZT4mI3hhOwkJCQk8cGF0aCBpZD0icGF0aDQ0OTU3IiBpbmtzY2FwZTpjb25uZWN0b3ItY3VydmF0dXJlPSIwIiBzdHlsZT0iZmlsbDojRkZGRkZGOyIgZD0iTTAsMTUzLjE2di0zMC42NGgxbDI5LjY0LDI5LjY1djAuOTlIMHoiLz4mI3hhOwkJCTwvZz4mI3hhOwkJCTxnIGlkPSJzaGFwZTQxNzYtMTAiPiYjeGE7CQkJCTx0aXRsZSBpZD0idGl0bGU0NDk2MCI+U2hlZXQuNDE3NjwvdGl0bGU+JiN4YTsJCQkJPHBhdGggaWQ9InBhdGg0NDk2MiIgaW5rc2NhcGU6Y29ubmVjdG9yLWN1cnZhdHVyZT0iMCIgc3R5bGU9ImZpbGw6Izc4OEI5QzsiIGQ9Ik0zLjQsMTIzLjkzbDI1LjgzLDI1LjgzSDMuNFYxMjMuOTN6ICAgICAgIE0zLjQsMTE5LjEySDB2MzQuMDRoMzQuMDV2LTMuNEwzLjQsMTE5LjEyeiIvPiYjeGE7CQkJPC9nPiYjeGE7CQk8L2c+JiN4YTsJCTxnIGlkPSJzaGFwZTQxNzctMTIiIHRyYW5zZm9ybT0idHJhbnNsYXRlKDEzLjYxODEsLTk4LjczMTQpIj4mI3hhOwkJCTx0aXRsZSBpZD0idGl0bGU0NDk2NiI+U2hlZXQuNDE3NzwvdGl0bGU+JiN4YTsJCQk8cGF0aCBpZD0icGF0aDQ0OTY4IiBpbmtzY2FwZTpjb25uZWN0b3ItY3VydmF0dXJlPSIwIiBzdHlsZT0iZmlsbDojQkFFMEJEOyIgZD0iTTAsMTUzLjE2aDEzLjYydi0zLjRIMFYxNTMuMTZ6IE0yMy44MywxNDkuNzYgICAgIHYzLjRoMjAuNDN2LTMuNEgyMy44M3oiLz4mI3hhOwkJPC9nPiYjeGE7CQk8ZyBpZD0ic2hhcGU0MTc4LTE0IiB0cmFuc2Zvcm09InRyYW5zbGF0ZSgxMy42MTgxLC05MS45MjI0KSI+JiN4YTsJCQk8dGl0bGUgaWQ9InRpdGxlNDQ5NzEiPlNoZWV0LjQxNzg8L3RpdGxlPiYjeGE7CQkJPHBhdGggaWQ9InBhdGg0NDk3MyIgaW5rc2NhcGU6Y29ubmVjdG9yLWN1cnZhdHVyZT0iMCIgc3R5bGU9ImZpbGw6I0JBRTBCRDsiIGQ9Ik0wLDE1My4xNmgxMy42MnYtMy40SDBWMTUzLjE2eiBNMjMuODMsMTQ5Ljc2ICAgICB2My40aDIwLjQzdi0zLjRIMjMuODN6Ii8+JiN4YTsJCTwvZz4mI3hhOwkJPGcgaWQ9InNoYXBlNDE3OS0xNiIgdHJhbnNmb3JtPSJ0cmFuc2xhdGUoMTMuNjE4MSwtODUuMTEzMykiPiYjeGE7CQkJPHRpdGxlIGlkPSJ0aXRsZTQ0OTc2Ij5TaGVldC40MTc5PC90aXRsZT4mI3hhOwkJCTxwYXRoIGlkPSJwYXRoNDQ5NzgiIGlua3NjYXBlOmNvbm5lY3Rvci1jdXJ2YXR1cmU9IjAiIHN0eWxlPSJmaWxsOiNCQUUwQkQ7IiBkPSJNMCwxNTMuMTZoMTMuNjJ2LTMuNEgwVjE1My4xNnogTTU0LjQ3LDE0OS43NiAgICAgdjMuNGgxMy42MnYtMy40SDU0LjQ3eiBNMjMuODMsMTUzLjE2aDIwLjQzdi0zLjRIMjMuODNMMjMuODMsMTUzLjE2eiIvPiYjeGE7CQk8L2c+JiN4YTsJCTxnIGlkPSJzaGFwZTQxODAtMTgiIHRyYW5zZm9ybT0idHJhbnNsYXRlKDEzLjYxODEsLTI3LjIzNjMpIj4mI3hhOwkJCTx0aXRsZSBpZD0idGl0bGU0NDk4MSI+U2hlZXQuNDE4MDwvdGl0bGU+JiN4YTsJCQk8cGF0aCBpZD0icGF0aDQ0OTgzIiBpbmtzY2FwZTpjb25uZWN0b3ItY3VydmF0dXJlPSIwIiBzdHlsZT0iZmlsbDojQkFFMEJEOyIgZD0iTTAsMTUzLjE2aDEzLjYydi0zLjRIMFYxNTMuMTZ6IE01NC40NywxNDkuNzYgICAgIHYzLjRoMTMuNjJ2LTMuNEg1NC40N3ogTTIzLjgzLDE1My4xNmgyMC40M3YtMy40SDIzLjgzTDIzLjgzLDE1My4xNnoiLz4mI3hhOwkJPC9nPiYjeGE7CQk8ZyBpZD0ic2hhcGU0MTgxLTIwIiB0cmFuc2Zvcm09InRyYW5zbGF0ZSgxMy42MTgxLC0yMC40MjcyKSI+JiN4YTsJCQk8dGl0bGUgaWQ9InRpdGxlNDQ5ODYiPlNoZWV0LjQxODE8L3RpdGxlPiYjeGE7CQkJPHBhdGggaWQ9InBhdGg0NDk4OCIgaW5rc2NhcGU6Y29ubmVjdG9yLWN1cnZhdHVyZT0iMCIgc3R5bGU9ImZpbGw6I0JBRTBCRDsiIGQ9Ik0wLDE1My4xNmgxMy42MnYtMy40SDBWMTUzLjE2eiBNNTQuNDcsMTQ5Ljc2ICAgICB2My40aDEzLjYydi0zLjRINTQuNDd6IE0yMy44MywxNTMuMTZoMjAuNDN2LTMuNEgyMy44M0wyMy44MywxNTMuMTZ6Ii8+JiN4YTsJCTwvZz4mI3hhOwkJPGcgaWQ9InNoYXBlNDE4Mi0yMiIgdHJhbnNmb3JtPSJ0cmFuc2xhdGUoMTMuNjE4MSwtMTMuNjE4MSkiPiYjeGE7CQkJPHRpdGxlIGlkPSJ0aXRsZTQ0OTkxIj5TaGVldC40MTgyPC90aXRsZT4mI3hhOwkJCTxwYXRoIGlkPSJwYXRoNDQ5OTMiIGlua3NjYXBlOmNvbm5lY3Rvci1jdXJ2YXR1cmU9IjAiIHN0eWxlPSJmaWxsOiNCQUUwQkQ7IiBkPSJNMCwxNTMuMTZoMTMuNjJ2LTMuNEgwVjE1My4xNnogTTU0LjQ3LDE0OS43NiAgICAgdjMuNGgxMy42MnYtMy40SDU0LjQ3eiBNMjMuODMsMTUzLjE2aDIwLjQzdi0zLjRIMjMuODNMMjMuODMsMTUzLjE2eiIvPiYjeGE7CQk8L2c+JiN4YTsJCTxnIGlkPSJzaGFwZTQxODMtMjQiIHRyYW5zZm9ybT0idHJhbnNsYXRlKDAsLTM0LjA0NTMpIj4mI3hhOwkJCTx0aXRsZSBpZD0idGl0bGU0NDk5NiI+U2hlZXQuNDE4MzwvdGl0bGU+JiN4YTsJCQk8cmVjdCBpZD0icmVjdDQ0OTk4IiB5PSIxMDUuNSIgc3R5bGU9ImZpbGw6IzVFOUM3NjsiIHdpZHRoPSI5NS4zMyIgaGVpZ2h0PSI0Ny42NiIvPiYjeGE7CQk8L2c+JiN4YTsJCTxnIGlkPSJzaGFwZTQxODQtMjYiIHRyYW5zZm9ybT0idHJhbnNsYXRlKDEwLjAwNTksLTQxLjE5MTQpIj4mI3hhOwkJCTx0aXRsZSBpZD0idGl0bGU0NTAwMSI+U2hlZXQuNDE4NDwvdGl0bGU+JiN4YTsJCQk8cGF0aCBpZD0icGF0aDQ1MDAzIiBpbmtzY2FwZTpjb25uZWN0b3ItY3VydmF0dXJlPSIwIiBzdHlsZT0iZmlsbDojRkZGRkZGOyIgZD0iTTE5LjgyLDEyNy42M3YxLjg0SDEzLjd2LTEuNTYgICAgIGMwLTIuODMtMi42My0zLjQxLTMuNzktMy40MWMtMS41MiwwLTMuNzgsMC4zNi0zLjc4LDMuODJ2MTYuNzdjMCwwLjk2LDAuMDMsMy4zNywzLjcyLDMuMzdjMy40OCwwLDMuODUtMi42NywzLjg1LTMuMzF2LTEuNjIgICAgIGg2LjEydjIuMDNjMCwyLjctMi43MSw3LjYtOS43Myw3LjZjLTEuMTYsMC0xMC4wOS0wLjEyLTEwLjA5LTcuNzR2LTE4LjA3YzAtMy4zNSwyLjg2LTcuNTUsOS45Ny03LjU1ICAgICBDMTguNjIsMTE5LjgsMTkuODIsMTI1LjgsMTkuODIsMTI3LjYzeiBNMzkuOTYsMTE5LjhjLTEwLjIsMC0xMC41MSw3Ljc1LTEwLjUxLDguOThjMCw2LjM3LDQuMDIsNy42MSw2LjY3LDguNDRsNC4zOCwxLjM4ICAgICBjMi43MywwLjk2LDMuNTQsMS4xNCwzLjU0LDQuOTdjMCwzLjk3LTEuMTUsNC44OC00LjQ0LDQuODhjLTMuNTEsMC00LjMzLTEuOTQtNC4zMy0zLjM2di0xLjQ3aC02LjEydjEuNzUgICAgIGMwLDUuNjksNi40OCw3Ljc4LDEwLjQ1LDcuNzhjOC4yMiwwLDEwLjU3LTQuNSwxMC41Ny05LjYzYzAtNi41OS0yLjg3LTcuNzktNi40My04Ljk4bC00LjY4LTEuNDNjLTMuNTUtMS4wOC0zLjMzLTIuMy0zLjM5LTIuNzQgICAgIGMtMC4wNi0wLjQ1LTAuMDktMC45OS0wLjA5LTEuNjRjMC00LjI4LDMuMy00LjI0LDQuMTQtNC4yNGMzLjgxLDAsNC4zMiwyLjg5LDQuMzIsMy45N3YxLjA1aDYuMTN2LTIuMjkgICAgIEM1MC4xNywxMjQuNzMsNDcuNDcsMTE5LjgsMzkuOTYsMTE5LjhMMzkuOTYsMTE5Ljh6IE03MS43MiwxMjAuMDdsLTQuOTMsMjIuOTFoLTAuMTJsLTQuODYtMjIuOTFoLTYuNDlsOC43MSwzMi44MWg1LjQxICAgICBsOC43Ni0zMi44MUg3MS43MnoiLz4mI3hhOwkJPC9nPiYjeGE7CQk8ZyBpZD0ic2hhcGU0MTg1LTI4IiB0cmFuc2Zvcm09InRyYW5zbGF0ZSg4MS43MDg4KSI+JiN4YTsJCQk8dGl0bGUgaWQ9InRpdGxlNDUwMDYiPlNoZWV0LjQxODU8L3RpdGxlPiYjeGE7CQkJPHBhdGggaWQ9InBhdGg0NTAwOCIgaW5rc2NhcGU6Y29ubmVjdG9yLWN1cnZhdHVyZT0iMCIgc3R5bGU9ImZpbGw6Izc4OEI5QzsiIGQ9Ik0xMC4yMSwxMTguOTR2MzEuMTFIMHYzLjExaDEzLjYydi0zNC4yMkgxMC4yMXogICAgICIvPiYjeGE7CQk8L2c+JiN4YTsJPC9nPiYjeGE7PC9nPiYjeGE7PC9zdmc+;" parent="1" vertex="1">
          <mxGeometry x="61.660000000000004" y="557" width="64.11" height="83" as="geometry" />
        </mxCell>
        <mxCell id="bBWRpNzCG56Vrc6m6rs4-2094" value="" style="shape=image;verticalLabelPosition=bottom;labelBackgroundColor=#ffffff;verticalAlign=top;aspect=fixed;imageAspect=0;image=data:image/svg+xml,PHN2ZyB4bWxuczpjYz0iaHR0cDovL2NyZWF0aXZlY29tbW9ucy5vcmcvbnMjIiB4bWxuczpkYz0iaHR0cDovL3B1cmwub3JnL2RjL2VsZW1lbnRzLzEuMS8iIHhtbG5zOmlua3NjYXBlPSJodHRwOi8vd3d3Lmlua3NjYXBlLm9yZy9uYW1lc3BhY2VzL2lua3NjYXBlIiB4bWxuczpyZGY9Imh0dHA6Ly93d3cudzMub3JnLzE5OTkvMDIvMjItcmRmLXN5bnRheC1ucyMiIHhtbG5zOnNvZGlwb2RpPSJodHRwOi8vc29kaXBvZGkuc291cmNlZm9yZ2UubmV0L0RURC9zb2RpcG9kaS0wLmR0ZCIgeG1sbnM6c3ZnPSJodHRwOi8vd3d3LnczLm9yZy8yMDAwL3N2ZyIgeG1sbnM9Imh0dHA6Ly93d3cudzMub3JnLzIwMDAvc3ZnIiB4bWxuczp4bGluaz0iaHR0cDovL3d3dy53My5vcmcvMTk5OS94bGluayIgdmVyc2lvbj0iMS4xIiBpZD0ic3ZnNDUwMTQiIGlua3NjYXBlOnZlcnNpb249IjAuOTIuMyAoMjQwNTU0NiwgMjAxOC0wMy0xMSkiIHNvZGlwb2RpOmRvY25hbWU9ImNzdl9maWxlLnN2ZyIgeD0iMHB4IiB5PSIwcHgiIHZpZXdCb3g9IjAgMCA5NS4zMyAxMjIuNTYiIHN0eWxlPSJlbmFibGUtYmFja2dyb3VuZDpuZXcgMCAwIDk1LjMzIDEyMi41NjsiIHhtbDpzcGFjZT0icHJlc2VydmUiPiYjeGE7PHNvZGlwb2RpOm5hbWVkdmlldyBib3JkZXJjb2xvcj0iIzY2NjY2NiIgYm9yZGVyb3BhY2l0eT0iMSIgZml0LW1hcmdpbi1ib3R0b209IjAiIGZpdC1tYXJnaW4tbGVmdD0iMCIgZml0LW1hcmdpbi1yaWdodD0iMCIgZml0LW1hcmdpbi10b3A9IjAiIGdyaWR0b2xlcmFuY2U9IjEwIiBndWlkZXRvbGVyYW5jZT0iMTAiIGlkPSJuYW1lZHZpZXc0NTAxNiIgaW5rc2NhcGU6Y3VycmVudC1sYXllcj0ic3ZnNDUwMTQiIGlua3NjYXBlOmN4PSI2NS40ODMzMTQiIGlua3NjYXBlOmN5PSI2MC43MTUyODkiIGlua3NjYXBlOnBhZ2VvcGFjaXR5PSIwIiBpbmtzY2FwZTpwYWdlc2hhZG93PSIyIiBpbmtzY2FwZTp3aW5kb3ctaGVpZ2h0PSIxMDE3IiBpbmtzY2FwZTp3aW5kb3ctbWF4aW1pemVkPSIxIiBpbmtzY2FwZTp3aW5kb3ctd2lkdGg9IjE5MjAiIGlua3NjYXBlOndpbmRvdy14PSItOCIgaW5rc2NhcGU6d2luZG93LXk9Ii04IiBpbmtzY2FwZTp6b29tPSIzLjAwMTk5NyIgb2JqZWN0dG9sZXJhbmNlPSIxMCIgcGFnZWNvbG9yPSIjZmZmZmZmIiBzaG93Z3JpZD0iZmFsc2UiPiYjeGE7CTwvc29kaXBvZGk6bmFtZWR2aWV3PiYjeGE7PGcgaWQ9Imc0NTAxMiIgdHJhbnNmb3JtPSJ0cmFuc2xhdGUoLTE1LjMsLTE1LjMwMDQ4OCkiPiYjeGE7CTx0aXRsZSBpZD0idGl0bGU0NDkzNiI+UGFnZS0xPC90aXRsZT4mI3hhOwk8ZyBpZD0iZ3JvdXA0MTcwLTEiIHRyYW5zZm9ybT0idHJhbnNsYXRlKDE1LjMsLTE1LjMpIj4mI3hhOwkJPHRpdGxlIGlkPSJ0aXRsZTQ0OTM4Ij5DU1YgRmlsZTwvdGl0bGU+JiN4YTsJCTxnIGlkPSJncm91cDQxNzEtMiI+JiN4YTsJCQk8dGl0bGUgaWQ9InRpdGxlNDQ5NDAiPlNoZWV0LjQxNzE8L3RpdGxlPiYjeGE7CQkJPGcgaWQ9InNoYXBlNDE3Mi0zIiB0cmFuc2Zvcm09InRyYW5zbGF0ZSgxLjcwMjI3LC0xLjcwMjI3KSI+JiN4YTsJCQkJPHRpdGxlIGlkPSJ0aXRsZTQ0OTQyIj5TaGVldC40MTcyPC90aXRsZT4mI3hhOwkJCQk8cGF0aCBpZD0icGF0aDQ0OTQ0IiBpbmtzY2FwZTpjb25uZWN0b3ItY3VydmF0dXJlPSIwIiBzdHlsZT0iZmlsbDojRkZGRkZGOyIgZD0iTTAsMTUzLjE2VjM0aDYyLjI4bDI5LjY0LDI5LjY1djg5LjUxSDB6Ii8+JiN4YTsJCQk8L2c+JiN4YTsJCQk8ZyBpZD0ic2hhcGU0MTczLTUiPiYjeGE7CQkJCTx0aXRsZSBpZD0idGl0bGU0NDk0NyI+U2hlZXQuNDE3MzwvdGl0bGU+JiN4YTsJCQkJPHBhdGggaWQ9InBhdGg0NDk0OSIgaW5rc2NhcGU6Y29ubmVjdG9yLWN1cnZhdHVyZT0iMCIgc3R5bGU9ImZpbGw6Izc4OEI5QzsiIGQ9Ik02My4yOCwzNGwyOC42NCwyOC42NXY4Ny4xMUgzLjRWMzRINjMuMjh6ICAgICAgIE02NC42OSwzMC42SDB2MTIyLjU2aDk1LjMzVjYxLjI0TDY0LjY5LDMwLjZ6Ii8+JiN4YTsJCQk8L2c+JiN4YTsJCTwvZz4mI3hhOwkJPGcgaWQ9Imdyb3VwNDE3NC03IiB0cmFuc2Zvcm09InRyYW5zbGF0ZSg2MS4yODE2LC04OC41MTc4KSI+JiN4YTsJCQk8dGl0bGUgaWQ9InRpdGxlNDQ5NTMiPlNoZWV0LjQxNzQ8L3RpdGxlPiYjeGE7CQkJPGcgaWQ9InNoYXBlNDE3NS04IiB0cmFuc2Zvcm09InRyYW5zbGF0ZSgxLjcwMjI3LC0xLjcwMjI3KSI+JiN4YTsJCQkJPHRpdGxlIGlkPSJ0aXRsZTQ0OTU1Ij5TaGVldC40MTc1PC90aXRsZT4mI3hhOwkJCQk8cGF0aCBpZD0icGF0aDQ0OTU3IiBpbmtzY2FwZTpjb25uZWN0b3ItY3VydmF0dXJlPSIwIiBzdHlsZT0iZmlsbDojRkZGRkZGOyIgZD0iTTAsMTUzLjE2di0zMC42NGgxbDI5LjY0LDI5LjY1djAuOTlIMHoiLz4mI3hhOwkJCTwvZz4mI3hhOwkJCTxnIGlkPSJzaGFwZTQxNzYtMTAiPiYjeGE7CQkJCTx0aXRsZSBpZD0idGl0bGU0NDk2MCI+U2hlZXQuNDE3NjwvdGl0bGU+JiN4YTsJCQkJPHBhdGggaWQ9InBhdGg0NDk2MiIgaW5rc2NhcGU6Y29ubmVjdG9yLWN1cnZhdHVyZT0iMCIgc3R5bGU9ImZpbGw6Izc4OEI5QzsiIGQ9Ik0zLjQsMTIzLjkzbDI1LjgzLDI1LjgzSDMuNFYxMjMuOTN6ICAgICAgIE0zLjQsMTE5LjEySDB2MzQuMDRoMzQuMDV2LTMuNEwzLjQsMTE5LjEyeiIvPiYjeGE7CQkJPC9nPiYjeGE7CQk8L2c+JiN4YTsJCTxnIGlkPSJzaGFwZTQxNzctMTIiIHRyYW5zZm9ybT0idHJhbnNsYXRlKDEzLjYxODEsLTk4LjczMTQpIj4mI3hhOwkJCTx0aXRsZSBpZD0idGl0bGU0NDk2NiI+U2hlZXQuNDE3NzwvdGl0bGU+JiN4YTsJCQk8cGF0aCBpZD0icGF0aDQ0OTY4IiBpbmtzY2FwZTpjb25uZWN0b3ItY3VydmF0dXJlPSIwIiBzdHlsZT0iZmlsbDojQkFFMEJEOyIgZD0iTTAsMTUzLjE2aDEzLjYydi0zLjRIMFYxNTMuMTZ6IE0yMy44MywxNDkuNzYgICAgIHYzLjRoMjAuNDN2LTMuNEgyMy44M3oiLz4mI3hhOwkJPC9nPiYjeGE7CQk8ZyBpZD0ic2hhcGU0MTc4LTE0IiB0cmFuc2Zvcm09InRyYW5zbGF0ZSgxMy42MTgxLC05MS45MjI0KSI+JiN4YTsJCQk8dGl0bGUgaWQ9InRpdGxlNDQ5NzEiPlNoZWV0LjQxNzg8L3RpdGxlPiYjeGE7CQkJPHBhdGggaWQ9InBhdGg0NDk3MyIgaW5rc2NhcGU6Y29ubmVjdG9yLWN1cnZhdHVyZT0iMCIgc3R5bGU9ImZpbGw6I0JBRTBCRDsiIGQ9Ik0wLDE1My4xNmgxMy42MnYtMy40SDBWMTUzLjE2eiBNMjMuODMsMTQ5Ljc2ICAgICB2My40aDIwLjQzdi0zLjRIMjMuODN6Ii8+JiN4YTsJCTwvZz4mI3hhOwkJPGcgaWQ9InNoYXBlNDE3OS0xNiIgdHJhbnNmb3JtPSJ0cmFuc2xhdGUoMTMuNjE4MSwtODUuMTEzMykiPiYjeGE7CQkJPHRpdGxlIGlkPSJ0aXRsZTQ0OTc2Ij5TaGVldC40MTc5PC90aXRsZT4mI3hhOwkJCTxwYXRoIGlkPSJwYXRoNDQ5NzgiIGlua3NjYXBlOmNvbm5lY3Rvci1jdXJ2YXR1cmU9IjAiIHN0eWxlPSJmaWxsOiNCQUUwQkQ7IiBkPSJNMCwxNTMuMTZoMTMuNjJ2LTMuNEgwVjE1My4xNnogTTU0LjQ3LDE0OS43NiAgICAgdjMuNGgxMy42MnYtMy40SDU0LjQ3eiBNMjMuODMsMTUzLjE2aDIwLjQzdi0zLjRIMjMuODNMMjMuODMsMTUzLjE2eiIvPiYjeGE7CQk8L2c+JiN4YTsJCTxnIGlkPSJzaGFwZTQxODAtMTgiIHRyYW5zZm9ybT0idHJhbnNsYXRlKDEzLjYxODEsLTI3LjIzNjMpIj4mI3hhOwkJCTx0aXRsZSBpZD0idGl0bGU0NDk4MSI+U2hlZXQuNDE4MDwvdGl0bGU+JiN4YTsJCQk8cGF0aCBpZD0icGF0aDQ0OTgzIiBpbmtzY2FwZTpjb25uZWN0b3ItY3VydmF0dXJlPSIwIiBzdHlsZT0iZmlsbDojQkFFMEJEOyIgZD0iTTAsMTUzLjE2aDEzLjYydi0zLjRIMFYxNTMuMTZ6IE01NC40NywxNDkuNzYgICAgIHYzLjRoMTMuNjJ2LTMuNEg1NC40N3ogTTIzLjgzLDE1My4xNmgyMC40M3YtMy40SDIzLjgzTDIzLjgzLDE1My4xNnoiLz4mI3hhOwkJPC9nPiYjeGE7CQk8ZyBpZD0ic2hhcGU0MTgxLTIwIiB0cmFuc2Zvcm09InRyYW5zbGF0ZSgxMy42MTgxLC0yMC40MjcyKSI+JiN4YTsJCQk8dGl0bGUgaWQ9InRpdGxlNDQ5ODYiPlNoZWV0LjQxODE8L3RpdGxlPiYjeGE7CQkJPHBhdGggaWQ9InBhdGg0NDk4OCIgaW5rc2NhcGU6Y29ubmVjdG9yLWN1cnZhdHVyZT0iMCIgc3R5bGU9ImZpbGw6I0JBRTBCRDsiIGQ9Ik0wLDE1My4xNmgxMy42MnYtMy40SDBWMTUzLjE2eiBNNTQuNDcsMTQ5Ljc2ICAgICB2My40aDEzLjYydi0zLjRINTQuNDd6IE0yMy44MywxNTMuMTZoMjAuNDN2LTMuNEgyMy44M0wyMy44MywxNTMuMTZ6Ii8+JiN4YTsJCTwvZz4mI3hhOwkJPGcgaWQ9InNoYXBlNDE4Mi0yMiIgdHJhbnNmb3JtPSJ0cmFuc2xhdGUoMTMuNjE4MSwtMTMuNjE4MSkiPiYjeGE7CQkJPHRpdGxlIGlkPSJ0aXRsZTQ0OTkxIj5TaGVldC40MTgyPC90aXRsZT4mI3hhOwkJCTxwYXRoIGlkPSJwYXRoNDQ5OTMiIGlua3NjYXBlOmNvbm5lY3Rvci1jdXJ2YXR1cmU9IjAiIHN0eWxlPSJmaWxsOiNCQUUwQkQ7IiBkPSJNMCwxNTMuMTZoMTMuNjJ2LTMuNEgwVjE1My4xNnogTTU0LjQ3LDE0OS43NiAgICAgdjMuNGgxMy42MnYtMy40SDU0LjQ3eiBNMjMuODMsMTUzLjE2aDIwLjQzdi0zLjRIMjMuODNMMjMuODMsMTUzLjE2eiIvPiYjeGE7CQk8L2c+JiN4YTsJCTxnIGlkPSJzaGFwZTQxODMtMjQiIHRyYW5zZm9ybT0idHJhbnNsYXRlKDAsLTM0LjA0NTMpIj4mI3hhOwkJCTx0aXRsZSBpZD0idGl0bGU0NDk5NiI+U2hlZXQuNDE4MzwvdGl0bGU+JiN4YTsJCQk8cmVjdCBpZD0icmVjdDQ0OTk4IiB5PSIxMDUuNSIgc3R5bGU9ImZpbGw6IzVFOUM3NjsiIHdpZHRoPSI5NS4zMyIgaGVpZ2h0PSI0Ny42NiIvPiYjeGE7CQk8L2c+JiN4YTsJCTxnIGlkPSJzaGFwZTQxODQtMjYiIHRyYW5zZm9ybT0idHJhbnNsYXRlKDEwLjAwNTksLTQxLjE5MTQpIj4mI3hhOwkJCTx0aXRsZSBpZD0idGl0bGU0NTAwMSI+U2hlZXQuNDE4NDwvdGl0bGU+JiN4YTsJCQk8cGF0aCBpZD0icGF0aDQ1MDAzIiBpbmtzY2FwZTpjb25uZWN0b3ItY3VydmF0dXJlPSIwIiBzdHlsZT0iZmlsbDojRkZGRkZGOyIgZD0iTTE5LjgyLDEyNy42M3YxLjg0SDEzLjd2LTEuNTYgICAgIGMwLTIuODMtMi42My0zLjQxLTMuNzktMy40MWMtMS41MiwwLTMuNzgsMC4zNi0zLjc4LDMuODJ2MTYuNzdjMCwwLjk2LDAuMDMsMy4zNywzLjcyLDMuMzdjMy40OCwwLDMuODUtMi42NywzLjg1LTMuMzF2LTEuNjIgICAgIGg2LjEydjIuMDNjMCwyLjctMi43MSw3LjYtOS43Myw3LjZjLTEuMTYsMC0xMC4wOS0wLjEyLTEwLjA5LTcuNzR2LTE4LjA3YzAtMy4zNSwyLjg2LTcuNTUsOS45Ny03LjU1ICAgICBDMTguNjIsMTE5LjgsMTkuODIsMTI1LjgsMTkuODIsMTI3LjYzeiBNMzkuOTYsMTE5LjhjLTEwLjIsMC0xMC41MSw3Ljc1LTEwLjUxLDguOThjMCw2LjM3LDQuMDIsNy42MSw2LjY3LDguNDRsNC4zOCwxLjM4ICAgICBjMi43MywwLjk2LDMuNTQsMS4xNCwzLjU0LDQuOTdjMCwzLjk3LTEuMTUsNC44OC00LjQ0LDQuODhjLTMuNTEsMC00LjMzLTEuOTQtNC4zMy0zLjM2di0xLjQ3aC02LjEydjEuNzUgICAgIGMwLDUuNjksNi40OCw3Ljc4LDEwLjQ1LDcuNzhjOC4yMiwwLDEwLjU3LTQuNSwxMC41Ny05LjYzYzAtNi41OS0yLjg3LTcuNzktNi40My04Ljk4bC00LjY4LTEuNDNjLTMuNTUtMS4wOC0zLjMzLTIuMy0zLjM5LTIuNzQgICAgIGMtMC4wNi0wLjQ1LTAuMDktMC45OS0wLjA5LTEuNjRjMC00LjI4LDMuMy00LjI0LDQuMTQtNC4yNGMzLjgxLDAsNC4zMiwyLjg5LDQuMzIsMy45N3YxLjA1aDYuMTN2LTIuMjkgICAgIEM1MC4xNywxMjQuNzMsNDcuNDcsMTE5LjgsMzkuOTYsMTE5LjhMMzkuOTYsMTE5Ljh6IE03MS43MiwxMjAuMDdsLTQuOTMsMjIuOTFoLTAuMTJsLTQuODYtMjIuOTFoLTYuNDlsOC43MSwzMi44MWg1LjQxICAgICBsOC43Ni0zMi44MUg3MS43MnoiLz4mI3hhOwkJPC9nPiYjeGE7CQk8ZyBpZD0ic2hhcGU0MTg1LTI4IiB0cmFuc2Zvcm09InRyYW5zbGF0ZSg4MS43MDg4KSI+JiN4YTsJCQk8dGl0bGUgaWQ9InRpdGxlNDUwMDYiPlNoZWV0LjQxODU8L3RpdGxlPiYjeGE7CQkJPHBhdGggaWQ9InBhdGg0NTAwOCIgaW5rc2NhcGU6Y29ubmVjdG9yLWN1cnZhdHVyZT0iMCIgc3R5bGU9ImZpbGw6Izc4OEI5QzsiIGQ9Ik0xMC4yMSwxMTguOTR2MzEuMTFIMHYzLjExaDEzLjYydi0zNC4yMkgxMC4yMXogICAgICIvPiYjeGE7CQk8L2c+JiN4YTsJPC9nPiYjeGE7PC9nPiYjeGE7PC9zdmc+;" parent="1" vertex="1">
          <mxGeometry x="71.66" y="567" width="64.11" height="83" as="geometry" />
        </mxCell>
        <mxCell id="bBWRpNzCG56Vrc6m6rs4-2095" value="" style="shape=image;verticalLabelPosition=bottom;labelBackgroundColor=#ffffff;verticalAlign=top;aspect=fixed;imageAspect=0;image=data:image/svg+xml,PHN2ZyB4bWxuczpjYz0iaHR0cDovL2NyZWF0aXZlY29tbW9ucy5vcmcvbnMjIiB4bWxuczpkYz0iaHR0cDovL3B1cmwub3JnL2RjL2VsZW1lbnRzLzEuMS8iIHhtbG5zOmlua3NjYXBlPSJodHRwOi8vd3d3Lmlua3NjYXBlLm9yZy9uYW1lc3BhY2VzL2lua3NjYXBlIiB4bWxuczpyZGY9Imh0dHA6Ly93d3cudzMub3JnLzE5OTkvMDIvMjItcmRmLXN5bnRheC1ucyMiIHhtbG5zOnNvZGlwb2RpPSJodHRwOi8vc29kaXBvZGkuc291cmNlZm9yZ2UubmV0L0RURC9zb2RpcG9kaS0wLmR0ZCIgeG1sbnM6c3ZnPSJodHRwOi8vd3d3LnczLm9yZy8yMDAwL3N2ZyIgeG1sbnM9Imh0dHA6Ly93d3cudzMub3JnLzIwMDAvc3ZnIiB4bWxuczp4bGluaz0iaHR0cDovL3d3dy53My5vcmcvMTk5OS94bGluayIgdmVyc2lvbj0iMS4xIiBpZD0ic3ZnNDUwMTQiIGlua3NjYXBlOnZlcnNpb249IjAuOTIuMyAoMjQwNTU0NiwgMjAxOC0wMy0xMSkiIHNvZGlwb2RpOmRvY25hbWU9ImNzdl9maWxlLnN2ZyIgeD0iMHB4IiB5PSIwcHgiIHZpZXdCb3g9IjAgMCA5NS4zMyAxMjIuNTYiIHN0eWxlPSJlbmFibGUtYmFja2dyb3VuZDpuZXcgMCAwIDk1LjMzIDEyMi41NjsiIHhtbDpzcGFjZT0icHJlc2VydmUiPiYjeGE7PHNvZGlwb2RpOm5hbWVkdmlldyBib3JkZXJjb2xvcj0iIzY2NjY2NiIgYm9yZGVyb3BhY2l0eT0iMSIgZml0LW1hcmdpbi1ib3R0b209IjAiIGZpdC1tYXJnaW4tbGVmdD0iMCIgZml0LW1hcmdpbi1yaWdodD0iMCIgZml0LW1hcmdpbi10b3A9IjAiIGdyaWR0b2xlcmFuY2U9IjEwIiBndWlkZXRvbGVyYW5jZT0iMTAiIGlkPSJuYW1lZHZpZXc0NTAxNiIgaW5rc2NhcGU6Y3VycmVudC1sYXllcj0ic3ZnNDUwMTQiIGlua3NjYXBlOmN4PSI2NS40ODMzMTQiIGlua3NjYXBlOmN5PSI2MC43MTUyODkiIGlua3NjYXBlOnBhZ2VvcGFjaXR5PSIwIiBpbmtzY2FwZTpwYWdlc2hhZG93PSIyIiBpbmtzY2FwZTp3aW5kb3ctaGVpZ2h0PSIxMDE3IiBpbmtzY2FwZTp3aW5kb3ctbWF4aW1pemVkPSIxIiBpbmtzY2FwZTp3aW5kb3ctd2lkdGg9IjE5MjAiIGlua3NjYXBlOndpbmRvdy14PSItOCIgaW5rc2NhcGU6d2luZG93LXk9Ii04IiBpbmtzY2FwZTp6b29tPSIzLjAwMTk5NyIgb2JqZWN0dG9sZXJhbmNlPSIxMCIgcGFnZWNvbG9yPSIjZmZmZmZmIiBzaG93Z3JpZD0iZmFsc2UiPiYjeGE7CTwvc29kaXBvZGk6bmFtZWR2aWV3PiYjeGE7PGcgaWQ9Imc0NTAxMiIgdHJhbnNmb3JtPSJ0cmFuc2xhdGUoLTE1LjMsLTE1LjMwMDQ4OCkiPiYjeGE7CTx0aXRsZSBpZD0idGl0bGU0NDkzNiI+UGFnZS0xPC90aXRsZT4mI3hhOwk8ZyBpZD0iZ3JvdXA0MTcwLTEiIHRyYW5zZm9ybT0idHJhbnNsYXRlKDE1LjMsLTE1LjMpIj4mI3hhOwkJPHRpdGxlIGlkPSJ0aXRsZTQ0OTM4Ij5DU1YgRmlsZTwvdGl0bGU+JiN4YTsJCTxnIGlkPSJncm91cDQxNzEtMiI+JiN4YTsJCQk8dGl0bGUgaWQ9InRpdGxlNDQ5NDAiPlNoZWV0LjQxNzE8L3RpdGxlPiYjeGE7CQkJPGcgaWQ9InNoYXBlNDE3Mi0zIiB0cmFuc2Zvcm09InRyYW5zbGF0ZSgxLjcwMjI3LC0xLjcwMjI3KSI+JiN4YTsJCQkJPHRpdGxlIGlkPSJ0aXRsZTQ0OTQyIj5TaGVldC40MTcyPC90aXRsZT4mI3hhOwkJCQk8cGF0aCBpZD0icGF0aDQ0OTQ0IiBpbmtzY2FwZTpjb25uZWN0b3ItY3VydmF0dXJlPSIwIiBzdHlsZT0iZmlsbDojRkZGRkZGOyIgZD0iTTAsMTUzLjE2VjM0aDYyLjI4bDI5LjY0LDI5LjY1djg5LjUxSDB6Ii8+JiN4YTsJCQk8L2c+JiN4YTsJCQk8ZyBpZD0ic2hhcGU0MTczLTUiPiYjeGE7CQkJCTx0aXRsZSBpZD0idGl0bGU0NDk0NyI+U2hlZXQuNDE3MzwvdGl0bGU+JiN4YTsJCQkJPHBhdGggaWQ9InBhdGg0NDk0OSIgaW5rc2NhcGU6Y29ubmVjdG9yLWN1cnZhdHVyZT0iMCIgc3R5bGU9ImZpbGw6Izc4OEI5QzsiIGQ9Ik02My4yOCwzNGwyOC42NCwyOC42NXY4Ny4xMUgzLjRWMzRINjMuMjh6ICAgICAgIE02NC42OSwzMC42SDB2MTIyLjU2aDk1LjMzVjYxLjI0TDY0LjY5LDMwLjZ6Ii8+JiN4YTsJCQk8L2c+JiN4YTsJCTwvZz4mI3hhOwkJPGcgaWQ9Imdyb3VwNDE3NC03IiB0cmFuc2Zvcm09InRyYW5zbGF0ZSg2MS4yODE2LC04OC41MTc4KSI+JiN4YTsJCQk8dGl0bGUgaWQ9InRpdGxlNDQ5NTMiPlNoZWV0LjQxNzQ8L3RpdGxlPiYjeGE7CQkJPGcgaWQ9InNoYXBlNDE3NS04IiB0cmFuc2Zvcm09InRyYW5zbGF0ZSgxLjcwMjI3LC0xLjcwMjI3KSI+JiN4YTsJCQkJPHRpdGxlIGlkPSJ0aXRsZTQ0OTU1Ij5TaGVldC40MTc1PC90aXRsZT4mI3hhOwkJCQk8cGF0aCBpZD0icGF0aDQ0OTU3IiBpbmtzY2FwZTpjb25uZWN0b3ItY3VydmF0dXJlPSIwIiBzdHlsZT0iZmlsbDojRkZGRkZGOyIgZD0iTTAsMTUzLjE2di0zMC42NGgxbDI5LjY0LDI5LjY1djAuOTlIMHoiLz4mI3hhOwkJCTwvZz4mI3hhOwkJCTxnIGlkPSJzaGFwZTQxNzYtMTAiPiYjeGE7CQkJCTx0aXRsZSBpZD0idGl0bGU0NDk2MCI+U2hlZXQuNDE3NjwvdGl0bGU+JiN4YTsJCQkJPHBhdGggaWQ9InBhdGg0NDk2MiIgaW5rc2NhcGU6Y29ubmVjdG9yLWN1cnZhdHVyZT0iMCIgc3R5bGU9ImZpbGw6Izc4OEI5QzsiIGQ9Ik0zLjQsMTIzLjkzbDI1LjgzLDI1LjgzSDMuNFYxMjMuOTN6ICAgICAgIE0zLjQsMTE5LjEySDB2MzQuMDRoMzQuMDV2LTMuNEwzLjQsMTE5LjEyeiIvPiYjeGE7CQkJPC9nPiYjeGE7CQk8L2c+JiN4YTsJCTxnIGlkPSJzaGFwZTQxNzctMTIiIHRyYW5zZm9ybT0idHJhbnNsYXRlKDEzLjYxODEsLTk4LjczMTQpIj4mI3hhOwkJCTx0aXRsZSBpZD0idGl0bGU0NDk2NiI+U2hlZXQuNDE3NzwvdGl0bGU+JiN4YTsJCQk8cGF0aCBpZD0icGF0aDQ0OTY4IiBpbmtzY2FwZTpjb25uZWN0b3ItY3VydmF0dXJlPSIwIiBzdHlsZT0iZmlsbDojQkFFMEJEOyIgZD0iTTAsMTUzLjE2aDEzLjYydi0zLjRIMFYxNTMuMTZ6IE0yMy44MywxNDkuNzYgICAgIHYzLjRoMjAuNDN2LTMuNEgyMy44M3oiLz4mI3hhOwkJPC9nPiYjeGE7CQk8ZyBpZD0ic2hhcGU0MTc4LTE0IiB0cmFuc2Zvcm09InRyYW5zbGF0ZSgxMy42MTgxLC05MS45MjI0KSI+JiN4YTsJCQk8dGl0bGUgaWQ9InRpdGxlNDQ5NzEiPlNoZWV0LjQxNzg8L3RpdGxlPiYjeGE7CQkJPHBhdGggaWQ9InBhdGg0NDk3MyIgaW5rc2NhcGU6Y29ubmVjdG9yLWN1cnZhdHVyZT0iMCIgc3R5bGU9ImZpbGw6I0JBRTBCRDsiIGQ9Ik0wLDE1My4xNmgxMy42MnYtMy40SDBWMTUzLjE2eiBNMjMuODMsMTQ5Ljc2ICAgICB2My40aDIwLjQzdi0zLjRIMjMuODN6Ii8+JiN4YTsJCTwvZz4mI3hhOwkJPGcgaWQ9InNoYXBlNDE3OS0xNiIgdHJhbnNmb3JtPSJ0cmFuc2xhdGUoMTMuNjE4MSwtODUuMTEzMykiPiYjeGE7CQkJPHRpdGxlIGlkPSJ0aXRsZTQ0OTc2Ij5TaGVldC40MTc5PC90aXRsZT4mI3hhOwkJCTxwYXRoIGlkPSJwYXRoNDQ5NzgiIGlua3NjYXBlOmNvbm5lY3Rvci1jdXJ2YXR1cmU9IjAiIHN0eWxlPSJmaWxsOiNCQUUwQkQ7IiBkPSJNMCwxNTMuMTZoMTMuNjJ2LTMuNEgwVjE1My4xNnogTTU0LjQ3LDE0OS43NiAgICAgdjMuNGgxMy42MnYtMy40SDU0LjQ3eiBNMjMuODMsMTUzLjE2aDIwLjQzdi0zLjRIMjMuODNMMjMuODMsMTUzLjE2eiIvPiYjeGE7CQk8L2c+JiN4YTsJCTxnIGlkPSJzaGFwZTQxODAtMTgiIHRyYW5zZm9ybT0idHJhbnNsYXRlKDEzLjYxODEsLTI3LjIzNjMpIj4mI3hhOwkJCTx0aXRsZSBpZD0idGl0bGU0NDk4MSI+U2hlZXQuNDE4MDwvdGl0bGU+JiN4YTsJCQk8cGF0aCBpZD0icGF0aDQ0OTgzIiBpbmtzY2FwZTpjb25uZWN0b3ItY3VydmF0dXJlPSIwIiBzdHlsZT0iZmlsbDojQkFFMEJEOyIgZD0iTTAsMTUzLjE2aDEzLjYydi0zLjRIMFYxNTMuMTZ6IE01NC40NywxNDkuNzYgICAgIHYzLjRoMTMuNjJ2LTMuNEg1NC40N3ogTTIzLjgzLDE1My4xNmgyMC40M3YtMy40SDIzLjgzTDIzLjgzLDE1My4xNnoiLz4mI3hhOwkJPC9nPiYjeGE7CQk8ZyBpZD0ic2hhcGU0MTgxLTIwIiB0cmFuc2Zvcm09InRyYW5zbGF0ZSgxMy42MTgxLC0yMC40MjcyKSI+JiN4YTsJCQk8dGl0bGUgaWQ9InRpdGxlNDQ5ODYiPlNoZWV0LjQxODE8L3RpdGxlPiYjeGE7CQkJPHBhdGggaWQ9InBhdGg0NDk4OCIgaW5rc2NhcGU6Y29ubmVjdG9yLWN1cnZhdHVyZT0iMCIgc3R5bGU9ImZpbGw6I0JBRTBCRDsiIGQ9Ik0wLDE1My4xNmgxMy42MnYtMy40SDBWMTUzLjE2eiBNNTQuNDcsMTQ5Ljc2ICAgICB2My40aDEzLjYydi0zLjRINTQuNDd6IE0yMy44MywxNTMuMTZoMjAuNDN2LTMuNEgyMy44M0wyMy44MywxNTMuMTZ6Ii8+JiN4YTsJCTwvZz4mI3hhOwkJPGcgaWQ9InNoYXBlNDE4Mi0yMiIgdHJhbnNmb3JtPSJ0cmFuc2xhdGUoMTMuNjE4MSwtMTMuNjE4MSkiPiYjeGE7CQkJPHRpdGxlIGlkPSJ0aXRsZTQ0OTkxIj5TaGVldC40MTgyPC90aXRsZT4mI3hhOwkJCTxwYXRoIGlkPSJwYXRoNDQ5OTMiIGlua3NjYXBlOmNvbm5lY3Rvci1jdXJ2YXR1cmU9IjAiIHN0eWxlPSJmaWxsOiNCQUUwQkQ7IiBkPSJNMCwxNTMuMTZoMTMuNjJ2LTMuNEgwVjE1My4xNnogTTU0LjQ3LDE0OS43NiAgICAgdjMuNGgxMy42MnYtMy40SDU0LjQ3eiBNMjMuODMsMTUzLjE2aDIwLjQzdi0zLjRIMjMuODNMMjMuODMsMTUzLjE2eiIvPiYjeGE7CQk8L2c+JiN4YTsJCTxnIGlkPSJzaGFwZTQxODMtMjQiIHRyYW5zZm9ybT0idHJhbnNsYXRlKDAsLTM0LjA0NTMpIj4mI3hhOwkJCTx0aXRsZSBpZD0idGl0bGU0NDk5NiI+U2hlZXQuNDE4MzwvdGl0bGU+JiN4YTsJCQk8cmVjdCBpZD0icmVjdDQ0OTk4IiB5PSIxMDUuNSIgc3R5bGU9ImZpbGw6IzVFOUM3NjsiIHdpZHRoPSI5NS4zMyIgaGVpZ2h0PSI0Ny42NiIvPiYjeGE7CQk8L2c+JiN4YTsJCTxnIGlkPSJzaGFwZTQxODQtMjYiIHRyYW5zZm9ybT0idHJhbnNsYXRlKDEwLjAwNTksLTQxLjE5MTQpIj4mI3hhOwkJCTx0aXRsZSBpZD0idGl0bGU0NTAwMSI+U2hlZXQuNDE4NDwvdGl0bGU+JiN4YTsJCQk8cGF0aCBpZD0icGF0aDQ1MDAzIiBpbmtzY2FwZTpjb25uZWN0b3ItY3VydmF0dXJlPSIwIiBzdHlsZT0iZmlsbDojRkZGRkZGOyIgZD0iTTE5LjgyLDEyNy42M3YxLjg0SDEzLjd2LTEuNTYgICAgIGMwLTIuODMtMi42My0zLjQxLTMuNzktMy40MWMtMS41MiwwLTMuNzgsMC4zNi0zLjc4LDMuODJ2MTYuNzdjMCwwLjk2LDAuMDMsMy4zNywzLjcyLDMuMzdjMy40OCwwLDMuODUtMi42NywzLjg1LTMuMzF2LTEuNjIgICAgIGg2LjEydjIuMDNjMCwyLjctMi43MSw3LjYtOS43Myw3LjZjLTEuMTYsMC0xMC4wOS0wLjEyLTEwLjA5LTcuNzR2LTE4LjA3YzAtMy4zNSwyLjg2LTcuNTUsOS45Ny03LjU1ICAgICBDMTguNjIsMTE5LjgsMTkuODIsMTI1LjgsMTkuODIsMTI3LjYzeiBNMzkuOTYsMTE5LjhjLTEwLjIsMC0xMC41MSw3Ljc1LTEwLjUxLDguOThjMCw2LjM3LDQuMDIsNy42MSw2LjY3LDguNDRsNC4zOCwxLjM4ICAgICBjMi43MywwLjk2LDMuNTQsMS4xNCwzLjU0LDQuOTdjMCwzLjk3LTEuMTUsNC44OC00LjQ0LDQuODhjLTMuNTEsMC00LjMzLTEuOTQtNC4zMy0zLjM2di0xLjQ3aC02LjEydjEuNzUgICAgIGMwLDUuNjksNi40OCw3Ljc4LDEwLjQ1LDcuNzhjOC4yMiwwLDEwLjU3LTQuNSwxMC41Ny05LjYzYzAtNi41OS0yLjg3LTcuNzktNi40My04Ljk4bC00LjY4LTEuNDNjLTMuNTUtMS4wOC0zLjMzLTIuMy0zLjM5LTIuNzQgICAgIGMtMC4wNi0wLjQ1LTAuMDktMC45OS0wLjA5LTEuNjRjMC00LjI4LDMuMy00LjI0LDQuMTQtNC4yNGMzLjgxLDAsNC4zMiwyLjg5LDQuMzIsMy45N3YxLjA1aDYuMTN2LTIuMjkgICAgIEM1MC4xNywxMjQuNzMsNDcuNDcsMTE5LjgsMzkuOTYsMTE5LjhMMzkuOTYsMTE5Ljh6IE03MS43MiwxMjAuMDdsLTQuOTMsMjIuOTFoLTAuMTJsLTQuODYtMjIuOTFoLTYuNDlsOC43MSwzMi44MWg1LjQxICAgICBsOC43Ni0zMi44MUg3MS43MnoiLz4mI3hhOwkJPC9nPiYjeGE7CQk8ZyBpZD0ic2hhcGU0MTg1LTI4IiB0cmFuc2Zvcm09InRyYW5zbGF0ZSg4MS43MDg4KSI+JiN4YTsJCQk8dGl0bGUgaWQ9InRpdGxlNDUwMDYiPlNoZWV0LjQxODU8L3RpdGxlPiYjeGE7CQkJPHBhdGggaWQ9InBhdGg0NTAwOCIgaW5rc2NhcGU6Y29ubmVjdG9yLWN1cnZhdHVyZT0iMCIgc3R5bGU9ImZpbGw6Izc4OEI5QzsiIGQ9Ik0xMC4yMSwxMTguOTR2MzEuMTFIMHYzLjExaDEzLjYydi0zNC4yMkgxMC4yMXogICAgICIvPiYjeGE7CQk8L2c+JiN4YTsJPC9nPiYjeGE7PC9nPiYjeGE7PC9zdmc+;" parent="1" vertex="1">
          <mxGeometry x="81.66" y="577" width="64.11" height="83" as="geometry" />
        </mxCell>
        <mxCell id="bBWRpNzCG56Vrc6m6rs4-2096" value="" style="shape=image;verticalLabelPosition=bottom;labelBackgroundColor=#ffffff;verticalAlign=top;aspect=fixed;imageAspect=0;image=data:image/svg+xml,PHN2ZyB4bWxuczpjYz0iaHR0cDovL2NyZWF0aXZlY29tbW9ucy5vcmcvbnMjIiB4bWxuczpkYz0iaHR0cDovL3B1cmwub3JnL2RjL2VsZW1lbnRzLzEuMS8iIHhtbG5zOmlua3NjYXBlPSJodHRwOi8vd3d3Lmlua3NjYXBlLm9yZy9uYW1lc3BhY2VzL2lua3NjYXBlIiB4bWxuczpyZGY9Imh0dHA6Ly93d3cudzMub3JnLzE5OTkvMDIvMjItcmRmLXN5bnRheC1ucyMiIHhtbG5zOnNvZGlwb2RpPSJodHRwOi8vc29kaXBvZGkuc291cmNlZm9yZ2UubmV0L0RURC9zb2RpcG9kaS0wLmR0ZCIgeG1sbnM6c3ZnPSJodHRwOi8vd3d3LnczLm9yZy8yMDAwL3N2ZyIgeG1sbnM9Imh0dHA6Ly93d3cudzMub3JnLzIwMDAvc3ZnIiB4bWxuczp4bGluaz0iaHR0cDovL3d3dy53My5vcmcvMTk5OS94bGluayIgdmVyc2lvbj0iMS4xIiBpZD0ic3ZnNDUwMTQiIGlua3NjYXBlOnZlcnNpb249IjAuOTIuMyAoMjQwNTU0NiwgMjAxOC0wMy0xMSkiIHNvZGlwb2RpOmRvY25hbWU9ImNzdl9maWxlLnN2ZyIgeD0iMHB4IiB5PSIwcHgiIHZpZXdCb3g9IjAgMCA5NS4zMyAxMjIuNTYiIHN0eWxlPSJlbmFibGUtYmFja2dyb3VuZDpuZXcgMCAwIDk1LjMzIDEyMi41NjsiIHhtbDpzcGFjZT0icHJlc2VydmUiPiYjeGE7PHNvZGlwb2RpOm5hbWVkdmlldyBib3JkZXJjb2xvcj0iIzY2NjY2NiIgYm9yZGVyb3BhY2l0eT0iMSIgZml0LW1hcmdpbi1ib3R0b209IjAiIGZpdC1tYXJnaW4tbGVmdD0iMCIgZml0LW1hcmdpbi1yaWdodD0iMCIgZml0LW1hcmdpbi10b3A9IjAiIGdyaWR0b2xlcmFuY2U9IjEwIiBndWlkZXRvbGVyYW5jZT0iMTAiIGlkPSJuYW1lZHZpZXc0NTAxNiIgaW5rc2NhcGU6Y3VycmVudC1sYXllcj0ic3ZnNDUwMTQiIGlua3NjYXBlOmN4PSI2NS40ODMzMTQiIGlua3NjYXBlOmN5PSI2MC43MTUyODkiIGlua3NjYXBlOnBhZ2VvcGFjaXR5PSIwIiBpbmtzY2FwZTpwYWdlc2hhZG93PSIyIiBpbmtzY2FwZTp3aW5kb3ctaGVpZ2h0PSIxMDE3IiBpbmtzY2FwZTp3aW5kb3ctbWF4aW1pemVkPSIxIiBpbmtzY2FwZTp3aW5kb3ctd2lkdGg9IjE5MjAiIGlua3NjYXBlOndpbmRvdy14PSItOCIgaW5rc2NhcGU6d2luZG93LXk9Ii04IiBpbmtzY2FwZTp6b29tPSIzLjAwMTk5NyIgb2JqZWN0dG9sZXJhbmNlPSIxMCIgcGFnZWNvbG9yPSIjZmZmZmZmIiBzaG93Z3JpZD0iZmFsc2UiPiYjeGE7CTwvc29kaXBvZGk6bmFtZWR2aWV3PiYjeGE7PGcgaWQ9Imc0NTAxMiIgdHJhbnNmb3JtPSJ0cmFuc2xhdGUoLTE1LjMsLTE1LjMwMDQ4OCkiPiYjeGE7CTx0aXRsZSBpZD0idGl0bGU0NDkzNiI+UGFnZS0xPC90aXRsZT4mI3hhOwk8ZyBpZD0iZ3JvdXA0MTcwLTEiIHRyYW5zZm9ybT0idHJhbnNsYXRlKDE1LjMsLTE1LjMpIj4mI3hhOwkJPHRpdGxlIGlkPSJ0aXRsZTQ0OTM4Ij5DU1YgRmlsZTwvdGl0bGU+JiN4YTsJCTxnIGlkPSJncm91cDQxNzEtMiI+JiN4YTsJCQk8dGl0bGUgaWQ9InRpdGxlNDQ5NDAiPlNoZWV0LjQxNzE8L3RpdGxlPiYjeGE7CQkJPGcgaWQ9InNoYXBlNDE3Mi0zIiB0cmFuc2Zvcm09InRyYW5zbGF0ZSgxLjcwMjI3LC0xLjcwMjI3KSI+JiN4YTsJCQkJPHRpdGxlIGlkPSJ0aXRsZTQ0OTQyIj5TaGVldC40MTcyPC90aXRsZT4mI3hhOwkJCQk8cGF0aCBpZD0icGF0aDQ0OTQ0IiBpbmtzY2FwZTpjb25uZWN0b3ItY3VydmF0dXJlPSIwIiBzdHlsZT0iZmlsbDojRkZGRkZGOyIgZD0iTTAsMTUzLjE2VjM0aDYyLjI4bDI5LjY0LDI5LjY1djg5LjUxSDB6Ii8+JiN4YTsJCQk8L2c+JiN4YTsJCQk8ZyBpZD0ic2hhcGU0MTczLTUiPiYjeGE7CQkJCTx0aXRsZSBpZD0idGl0bGU0NDk0NyI+U2hlZXQuNDE3MzwvdGl0bGU+JiN4YTsJCQkJPHBhdGggaWQ9InBhdGg0NDk0OSIgaW5rc2NhcGU6Y29ubmVjdG9yLWN1cnZhdHVyZT0iMCIgc3R5bGU9ImZpbGw6Izc4OEI5QzsiIGQ9Ik02My4yOCwzNGwyOC42NCwyOC42NXY4Ny4xMUgzLjRWMzRINjMuMjh6ICAgICAgIE02NC42OSwzMC42SDB2MTIyLjU2aDk1LjMzVjYxLjI0TDY0LjY5LDMwLjZ6Ii8+JiN4YTsJCQk8L2c+JiN4YTsJCTwvZz4mI3hhOwkJPGcgaWQ9Imdyb3VwNDE3NC03IiB0cmFuc2Zvcm09InRyYW5zbGF0ZSg2MS4yODE2LC04OC41MTc4KSI+JiN4YTsJCQk8dGl0bGUgaWQ9InRpdGxlNDQ5NTMiPlNoZWV0LjQxNzQ8L3RpdGxlPiYjeGE7CQkJPGcgaWQ9InNoYXBlNDE3NS04IiB0cmFuc2Zvcm09InRyYW5zbGF0ZSgxLjcwMjI3LC0xLjcwMjI3KSI+JiN4YTsJCQkJPHRpdGxlIGlkPSJ0aXRsZTQ0OTU1Ij5TaGVldC40MTc1PC90aXRsZT4mI3hhOwkJCQk8cGF0aCBpZD0icGF0aDQ0OTU3IiBpbmtzY2FwZTpjb25uZWN0b3ItY3VydmF0dXJlPSIwIiBzdHlsZT0iZmlsbDojRkZGRkZGOyIgZD0iTTAsMTUzLjE2di0zMC42NGgxbDI5LjY0LDI5LjY1djAuOTlIMHoiLz4mI3hhOwkJCTwvZz4mI3hhOwkJCTxnIGlkPSJzaGFwZTQxNzYtMTAiPiYjeGE7CQkJCTx0aXRsZSBpZD0idGl0bGU0NDk2MCI+U2hlZXQuNDE3NjwvdGl0bGU+JiN4YTsJCQkJPHBhdGggaWQ9InBhdGg0NDk2MiIgaW5rc2NhcGU6Y29ubmVjdG9yLWN1cnZhdHVyZT0iMCIgc3R5bGU9ImZpbGw6Izc4OEI5QzsiIGQ9Ik0zLjQsMTIzLjkzbDI1LjgzLDI1LjgzSDMuNFYxMjMuOTN6ICAgICAgIE0zLjQsMTE5LjEySDB2MzQuMDRoMzQuMDV2LTMuNEwzLjQsMTE5LjEyeiIvPiYjeGE7CQkJPC9nPiYjeGE7CQk8L2c+JiN4YTsJCTxnIGlkPSJzaGFwZTQxNzctMTIiIHRyYW5zZm9ybT0idHJhbnNsYXRlKDEzLjYxODEsLTk4LjczMTQpIj4mI3hhOwkJCTx0aXRsZSBpZD0idGl0bGU0NDk2NiI+U2hlZXQuNDE3NzwvdGl0bGU+JiN4YTsJCQk8cGF0aCBpZD0icGF0aDQ0OTY4IiBpbmtzY2FwZTpjb25uZWN0b3ItY3VydmF0dXJlPSIwIiBzdHlsZT0iZmlsbDojQkFFMEJEOyIgZD0iTTAsMTUzLjE2aDEzLjYydi0zLjRIMFYxNTMuMTZ6IE0yMy44MywxNDkuNzYgICAgIHYzLjRoMjAuNDN2LTMuNEgyMy44M3oiLz4mI3hhOwkJPC9nPiYjeGE7CQk8ZyBpZD0ic2hhcGU0MTc4LTE0IiB0cmFuc2Zvcm09InRyYW5zbGF0ZSgxMy42MTgxLC05MS45MjI0KSI+JiN4YTsJCQk8dGl0bGUgaWQ9InRpdGxlNDQ5NzEiPlNoZWV0LjQxNzg8L3RpdGxlPiYjeGE7CQkJPHBhdGggaWQ9InBhdGg0NDk3MyIgaW5rc2NhcGU6Y29ubmVjdG9yLWN1cnZhdHVyZT0iMCIgc3R5bGU9ImZpbGw6I0JBRTBCRDsiIGQ9Ik0wLDE1My4xNmgxMy42MnYtMy40SDBWMTUzLjE2eiBNMjMuODMsMTQ5Ljc2ICAgICB2My40aDIwLjQzdi0zLjRIMjMuODN6Ii8+JiN4YTsJCTwvZz4mI3hhOwkJPGcgaWQ9InNoYXBlNDE3OS0xNiIgdHJhbnNmb3JtPSJ0cmFuc2xhdGUoMTMuNjE4MSwtODUuMTEzMykiPiYjeGE7CQkJPHRpdGxlIGlkPSJ0aXRsZTQ0OTc2Ij5TaGVldC40MTc5PC90aXRsZT4mI3hhOwkJCTxwYXRoIGlkPSJwYXRoNDQ5NzgiIGlua3NjYXBlOmNvbm5lY3Rvci1jdXJ2YXR1cmU9IjAiIHN0eWxlPSJmaWxsOiNCQUUwQkQ7IiBkPSJNMCwxNTMuMTZoMTMuNjJ2LTMuNEgwVjE1My4xNnogTTU0LjQ3LDE0OS43NiAgICAgdjMuNGgxMy42MnYtMy40SDU0LjQ3eiBNMjMuODMsMTUzLjE2aDIwLjQzdi0zLjRIMjMuODNMMjMuODMsMTUzLjE2eiIvPiYjeGE7CQk8L2c+JiN4YTsJCTxnIGlkPSJzaGFwZTQxODAtMTgiIHRyYW5zZm9ybT0idHJhbnNsYXRlKDEzLjYxODEsLTI3LjIzNjMpIj4mI3hhOwkJCTx0aXRsZSBpZD0idGl0bGU0NDk4MSI+U2hlZXQuNDE4MDwvdGl0bGU+JiN4YTsJCQk8cGF0aCBpZD0icGF0aDQ0OTgzIiBpbmtzY2FwZTpjb25uZWN0b3ItY3VydmF0dXJlPSIwIiBzdHlsZT0iZmlsbDojQkFFMEJEOyIgZD0iTTAsMTUzLjE2aDEzLjYydi0zLjRIMFYxNTMuMTZ6IE01NC40NywxNDkuNzYgICAgIHYzLjRoMTMuNjJ2LTMuNEg1NC40N3ogTTIzLjgzLDE1My4xNmgyMC40M3YtMy40SDIzLjgzTDIzLjgzLDE1My4xNnoiLz4mI3hhOwkJPC9nPiYjeGE7CQk8ZyBpZD0ic2hhcGU0MTgxLTIwIiB0cmFuc2Zvcm09InRyYW5zbGF0ZSgxMy42MTgxLC0yMC40MjcyKSI+JiN4YTsJCQk8dGl0bGUgaWQ9InRpdGxlNDQ5ODYiPlNoZWV0LjQxODE8L3RpdGxlPiYjeGE7CQkJPHBhdGggaWQ9InBhdGg0NDk4OCIgaW5rc2NhcGU6Y29ubmVjdG9yLWN1cnZhdHVyZT0iMCIgc3R5bGU9ImZpbGw6I0JBRTBCRDsiIGQ9Ik0wLDE1My4xNmgxMy42MnYtMy40SDBWMTUzLjE2eiBNNTQuNDcsMTQ5Ljc2ICAgICB2My40aDEzLjYydi0zLjRINTQuNDd6IE0yMy44MywxNTMuMTZoMjAuNDN2LTMuNEgyMy44M0wyMy44MywxNTMuMTZ6Ii8+JiN4YTsJCTwvZz4mI3hhOwkJPGcgaWQ9InNoYXBlNDE4Mi0yMiIgdHJhbnNmb3JtPSJ0cmFuc2xhdGUoMTMuNjE4MSwtMTMuNjE4MSkiPiYjeGE7CQkJPHRpdGxlIGlkPSJ0aXRsZTQ0OTkxIj5TaGVldC40MTgyPC90aXRsZT4mI3hhOwkJCTxwYXRoIGlkPSJwYXRoNDQ5OTMiIGlua3NjYXBlOmNvbm5lY3Rvci1jdXJ2YXR1cmU9IjAiIHN0eWxlPSJmaWxsOiNCQUUwQkQ7IiBkPSJNMCwxNTMuMTZoMTMuNjJ2LTMuNEgwVjE1My4xNnogTTU0LjQ3LDE0OS43NiAgICAgdjMuNGgxMy42MnYtMy40SDU0LjQ3eiBNMjMuODMsMTUzLjE2aDIwLjQzdi0zLjRIMjMuODNMMjMuODMsMTUzLjE2eiIvPiYjeGE7CQk8L2c+JiN4YTsJCTxnIGlkPSJzaGFwZTQxODMtMjQiIHRyYW5zZm9ybT0idHJhbnNsYXRlKDAsLTM0LjA0NTMpIj4mI3hhOwkJCTx0aXRsZSBpZD0idGl0bGU0NDk5NiI+U2hlZXQuNDE4MzwvdGl0bGU+JiN4YTsJCQk8cmVjdCBpZD0icmVjdDQ0OTk4IiB5PSIxMDUuNSIgc3R5bGU9ImZpbGw6IzVFOUM3NjsiIHdpZHRoPSI5NS4zMyIgaGVpZ2h0PSI0Ny42NiIvPiYjeGE7CQk8L2c+JiN4YTsJCTxnIGlkPSJzaGFwZTQxODQtMjYiIHRyYW5zZm9ybT0idHJhbnNsYXRlKDEwLjAwNTksLTQxLjE5MTQpIj4mI3hhOwkJCTx0aXRsZSBpZD0idGl0bGU0NTAwMSI+U2hlZXQuNDE4NDwvdGl0bGU+JiN4YTsJCQk8cGF0aCBpZD0icGF0aDQ1MDAzIiBpbmtzY2FwZTpjb25uZWN0b3ItY3VydmF0dXJlPSIwIiBzdHlsZT0iZmlsbDojRkZGRkZGOyIgZD0iTTE5LjgyLDEyNy42M3YxLjg0SDEzLjd2LTEuNTYgICAgIGMwLTIuODMtMi42My0zLjQxLTMuNzktMy40MWMtMS41MiwwLTMuNzgsMC4zNi0zLjc4LDMuODJ2MTYuNzdjMCwwLjk2LDAuMDMsMy4zNywzLjcyLDMuMzdjMy40OCwwLDMuODUtMi42NywzLjg1LTMuMzF2LTEuNjIgICAgIGg2LjEydjIuMDNjMCwyLjctMi43MSw3LjYtOS43Myw3LjZjLTEuMTYsMC0xMC4wOS0wLjEyLTEwLjA5LTcuNzR2LTE4LjA3YzAtMy4zNSwyLjg2LTcuNTUsOS45Ny03LjU1ICAgICBDMTguNjIsMTE5LjgsMTkuODIsMTI1LjgsMTkuODIsMTI3LjYzeiBNMzkuOTYsMTE5LjhjLTEwLjIsMC0xMC41MSw3Ljc1LTEwLjUxLDguOThjMCw2LjM3LDQuMDIsNy42MSw2LjY3LDguNDRsNC4zOCwxLjM4ICAgICBjMi43MywwLjk2LDMuNTQsMS4xNCwzLjU0LDQuOTdjMCwzLjk3LTEuMTUsNC44OC00LjQ0LDQuODhjLTMuNTEsMC00LjMzLTEuOTQtNC4zMy0zLjM2di0xLjQ3aC02LjEydjEuNzUgICAgIGMwLDUuNjksNi40OCw3Ljc4LDEwLjQ1LDcuNzhjOC4yMiwwLDEwLjU3LTQuNSwxMC41Ny05LjYzYzAtNi41OS0yLjg3LTcuNzktNi40My04Ljk4bC00LjY4LTEuNDNjLTMuNTUtMS4wOC0zLjMzLTIuMy0zLjM5LTIuNzQgICAgIGMtMC4wNi0wLjQ1LTAuMDktMC45OS0wLjA5LTEuNjRjMC00LjI4LDMuMy00LjI0LDQuMTQtNC4yNGMzLjgxLDAsNC4zMiwyLjg5LDQuMzIsMy45N3YxLjA1aDYuMTN2LTIuMjkgICAgIEM1MC4xNywxMjQuNzMsNDcuNDcsMTE5LjgsMzkuOTYsMTE5LjhMMzkuOTYsMTE5Ljh6IE03MS43MiwxMjAuMDdsLTQuOTMsMjIuOTFoLTAuMTJsLTQuODYtMjIuOTFoLTYuNDlsOC43MSwzMi44MWg1LjQxICAgICBsOC43Ni0zMi44MUg3MS43MnoiLz4mI3hhOwkJPC9nPiYjeGE7CQk8ZyBpZD0ic2hhcGU0MTg1LTI4IiB0cmFuc2Zvcm09InRyYW5zbGF0ZSg4MS43MDg4KSI+JiN4YTsJCQk8dGl0bGUgaWQ9InRpdGxlNDUwMDYiPlNoZWV0LjQxODU8L3RpdGxlPiYjeGE7CQkJPHBhdGggaWQ9InBhdGg0NTAwOCIgaW5rc2NhcGU6Y29ubmVjdG9yLWN1cnZhdHVyZT0iMCIgc3R5bGU9ImZpbGw6Izc4OEI5QzsiIGQ9Ik0xMC4yMSwxMTguOTR2MzEuMTFIMHYzLjExaDEzLjYydi0zNC4yMkgxMC4yMXogICAgICIvPiYjeGE7CQk8L2c+JiN4YTsJPC9nPiYjeGE7PC9nPiYjeGE7PC9zdmc+;" parent="1" vertex="1">
          <mxGeometry x="91.66" y="587" width="64.11" height="83" as="geometry" />
        </mxCell>
        <mxCell id="bBWRpNzCG56Vrc6m6rs4-2097" value="Raw CSV files" style="text;html=1;align=center;verticalAlign=middle;whiteSpace=wrap;rounded=0;" parent="1" vertex="1">
          <mxGeometry x="65.38" y="661" width="96.67" height="54" as="geometry" />
        </mxCell>
        <mxCell id="bBWRpNzCG56Vrc6m6rs4-2100" value="" style="edgeStyle=orthogonalEdgeStyle;rounded=0;orthogonalLoop=1;jettySize=auto;html=1;" parent="1" edge="1">
          <mxGeometry relative="1" as="geometry">
            <mxPoint x="59.66" y="440" as="sourcePoint" />
            <mxPoint x="61.66" y="591" as="targetPoint" />
            <Array as="points">
              <mxPoint x="49.66" y="440" />
              <mxPoint x="49.66" y="591" />
            </Array>
          </mxGeometry>
        </mxCell>
        <mxCell id="bBWRpNzCG56Vrc6m6rs4-2102" value="" style="image;aspect=fixed;html=1;points=[];align=center;fontSize=12;image=img/lib/azure2/analytics/Azure_Databricks.svg;" parent="1" vertex="1">
          <mxGeometry x="271.09999999999997" y="240" width="62.8" height="68" as="geometry" />
        </mxCell>
        <mxCell id="bBWRpNzCG56Vrc6m6rs4-2103" value="Azure&amp;nbsp;&lt;div&gt;Databricks&amp;nbsp;&lt;/div&gt;" style="text;html=1;align=center;verticalAlign=middle;whiteSpace=wrap;rounded=0;" parent="1" vertex="1">
          <mxGeometry x="254.86" y="301" width="96.67" height="54" as="geometry" />
        </mxCell>
        <mxCell id="bBWRpNzCG56Vrc6m6rs4-2104" value="" style="shape=image;verticalLabelPosition=bottom;labelBackgroundColor=#ffffff;verticalAlign=top;aspect=fixed;imageAspect=0;image=data:image/svg+xml,PHN2ZyB4bWxuczpjYz0iaHR0cDovL2NyZWF0aXZlY29tbW9ucy5vcmcvbnMjIiB4bWxuczpkYz0iaHR0cDovL3B1cmwub3JnL2RjL2VsZW1lbnRzLzEuMS8iIHhtbG5zOmlua3NjYXBlPSJodHRwOi8vd3d3Lmlua3NjYXBlLm9yZy9uYW1lc3BhY2VzL2lua3NjYXBlIiB4bWxuczpyZGY9Imh0dHA6Ly93d3cudzMub3JnLzE5OTkvMDIvMjItcmRmLXN5bnRheC1ucyMiIHhtbG5zOnNvZGlwb2RpPSJodHRwOi8vc29kaXBvZGkuc291cmNlZm9yZ2UubmV0L0RURC9zb2RpcG9kaS0wLmR0ZCIgeG1sbnM6c3ZnPSJodHRwOi8vd3d3LnczLm9yZy8yMDAwL3N2ZyIgeG1sbnM9Imh0dHA6Ly93d3cudzMub3JnLzIwMDAvc3ZnIiB4bWxuczp4bGluaz0iaHR0cDovL3d3dy53My5vcmcvMTk5OS94bGluayIgdmVyc2lvbj0iMS4xIiBpZD0ic3ZnOTk5OTAiIGlua3NjYXBlOnZlcnNpb249IjAuOTIuMyAoMjQwNTU0NiwgMjAxOC0wMy0xMSkiIHNvZGlwb2RpOmRvY25hbWU9ImdlbmVyaWNfZGF0YWJhc2Uuc3ZnIiB4PSIwcHgiIHk9IjBweCIgdmlld0JveD0iMCAwIDM5LjU0IDUwLjk5IiBzdHlsZT0iZW5hYmxlLWJhY2tncm91bmQ6bmV3IDAgMCAzOS41NCA1MC45OTsiIHhtbDpzcGFjZT0icHJlc2VydmUiPiYjeGE7PHNvZGlwb2RpOm5hbWVkdmlldyBib3JkZXJjb2xvcj0iIzY2NjY2NiIgYm9yZGVyb3BhY2l0eT0iMSIgZml0LW1hcmdpbi1ib3R0b209IjAiIGZpdC1tYXJnaW4tbGVmdD0iMCIgZml0LW1hcmdpbi1yaWdodD0iMCIgZml0LW1hcmdpbi10b3A9IjAiIGdyaWR0b2xlcmFuY2U9IjEwIiBndWlkZXRvbGVyYW5jZT0iMTAiIGlkPSJuYW1lZHZpZXc5OTk5MiIgaW5rc2NhcGU6Y3VycmVudC1sYXllcj0ic3ZnOTk5OTAiIGlua3NjYXBlOmN4PSIyNi4zNTY0NSIgaW5rc2NhcGU6Y3k9IjMzLjk5NTU3NyIgaW5rc2NhcGU6cGFnZW9wYWNpdHk9IjAiIGlua3NjYXBlOnBhZ2VzaGFkb3c9IjIiIGlua3NjYXBlOndpbmRvdy1oZWlnaHQ9IjEwMTciIGlua3NjYXBlOndpbmRvdy1tYXhpbWl6ZWQ9IjEiIGlua3NjYXBlOndpbmRvdy13aWR0aD0iMTkyMCIgaW5rc2NhcGU6d2luZG93LXg9Ii04IiBpbmtzY2FwZTp3aW5kb3cteT0iLTgiIGlua3NjYXBlOnpvb209IjEyLjM4ODg4NiIgb2JqZWN0dG9sZXJhbmNlPSIxMCIgcGFnZWNvbG9yPSIjZmZmZmZmIiBzaG93Z3JpZD0iZmFsc2UiPiYjeGE7CTwvc29kaXBvZGk6bmFtZWR2aWV3PiYjeGE7PGcgaWQ9Imc5OTk4OCIgdHJhbnNmb3JtPSJ0cmFuc2xhdGUoLTAuNzUsLTAuNzQ1NSkiPiYjeGE7CTx0aXRsZSBpZD0idGl0bGU5OTk1OCI+UGFnZS0xPC90aXRsZT4mI3hhOwk8ZyBpZD0iZ3JvdXAzNTA0LTEiIHRyYW5zZm9ybT0idHJhbnNsYXRlKDAuNzUsLTAuNzUpIj4mI3hhOwkJPHRpdGxlIGlkPSJ0aXRsZTk5OTYwIj5HZW5lcmljIERhdGFiYXNlPC90aXRsZT4mI3hhOwkJPGcgaWQ9InNoYXBlMzUwNS0yIj4mI3hhOwkJCTx0aXRsZSBpZD0idGl0bGU5OTk2MiI+cGF0aDExNjk8L3RpdGxlPiYjeGE7CQkJPHBhdGggaWQ9InBhdGg5OTk2NCIgaW5rc2NhcGU6Y29ubmVjdG9yLWN1cnZhdHVyZT0iMCIgc3R5bGU9ImZpbGw6IzMxNjM4OTsiIGQ9Ik0xOS43Nyw4Ljc1SDB2MzcuMzcgICAgIGMwLDMuODUsOS44OCw2LjM3LDE5Ljc3LDYuMzdjOS44OCwwLDE5Ljc2LTIuNzIsMTkuNzYtNi41OVY4Ljc1SDE5Ljc3eiIvPiYjeGE7CQk8L2c+JiN4YTsJCTxnIGlkPSJzaGFwZTM1MDYtNCIgdHJhbnNmb3JtPSJ0cmFuc2xhdGUoMTkuNzY3MywtMC4yNTAzODYpIj4mI3hhOwkJCTx0aXRsZSBpZD0idGl0bGU5OTk2NyI+cGF0aDExNzE8L3RpdGxlPiYjeGE7CQkJPHBhdGggaWQ9InBhdGg5OTk2OSIgaW5rc2NhcGU6Y29ubmVjdG9yLWN1cnZhdHVyZT0iMCIgc3R5bGU9ImZpbGw6I0ZGRkZGRjtmaWxsLW9wYWNpdHk6MC4wOTg7IiBkPSJNMCw1Mi40OWgwLjI3ICAgICBjMTAuNzcsMCwxOS41LTMuMTMsMTkuNS02Ljk5VjguMzRIMFY1Mi40OXoiLz4mI3hhOwkJPC9nPiYjeGE7CQk8ZyBpZD0ic2hhcGUzNTA3LTYiIHRyYW5zZm9ybT0idHJhbnNsYXRlKDAsLTM3LjAwNDUpIj4mI3hhOwkJCTx0aXRsZSBpZD0idGl0bGU5OTk3MiI+cGF0aDExNzM8L3RpdGxlPiYjeGE7CQkJPHBhdGggaWQ9InBhdGg5OTk3NCIgaW5rc2NhcGU6Y29ubmVjdG9yLWN1cnZhdHVyZT0iMCIgc3R5bGU9ImZpbGw6IzYzOEFBNTsiIGQ9Ik0zOS41Myw0NS41YzAsMy44Ni04Ljg0LDYuOTktMTkuNzYsNi45OSAgICAgQzguODUsNTIuNDksMCw0OS4zNiwwLDQ1LjVjMC0zLjg3LDguODUtNywxOS43Ny03UzM5LjUzLDQxLjYzLDM5LjUzLDQ1LjV6Ii8+JiN4YTsJCTwvZz4mI3hhOwkJPGcgaWQ9InNoYXBlMzUwOC04IiB0cmFuc2Zvcm09InRyYW5zbGF0ZSgzLjExMDA2LC0zOS4xMjYyKSI+JiN4YTsJCQk8dGl0bGUgaWQ9InRpdGxlOTk5NzciPnBhdGgxMTc1PC90aXRsZT4mI3hhOwkJCTxwYXRoIGlkPSJwYXRoOTk5NzkiIGlua3NjYXBlOmNvbm5lY3Rvci1jdXJ2YXR1cmU9IjAiIHN0eWxlPSJmaWxsOiMxNzVEODc7IiBkPSJNMzIuODUsNDcuODdjMCwyLjU1LTcuMzUsNC42Mi0xNi40Miw0LjYyICAgICBDNy4zNSw1Mi40OSwwLDUwLjQyLDAsNDcuODdjMC0yLjU0LDcuMzUtNC42MSwxNi40My00LjYxQzI1LjUsNDMuMjYsMzIuODUsNDUuMzMsMzIuODUsNDcuODd6Ii8+JiN4YTsJCTwvZz4mI3hhOwkJPGcgaWQ9InNoYXBlMzUwOS0xMCIgdHJhbnNmb3JtPSJ0cmFuc2xhdGUoMy4xMDM0NywtNDAuOTE4NCkiPiYjeGE7CQkJPHRpdGxlIGlkPSJ0aXRsZTk5OTgyIj5wYXRoMTE3NzwvdGl0bGU+JiN4YTsJCQk8cGF0aCBpZD0icGF0aDk5OTg0IiBpbmtzY2FwZTpjb25uZWN0b3ItY3VydmF0dXJlPSIwIiBzdHlsZT0iZmlsbDojMzc3MDkzOyIgZD0iTTI5LjQxLDUyLjQ5YzIuMTUtMC43OCwzLjQ0LTEuNzYsMy40NC0yLjgyICAgICBjMC0yLjU1LTcuMzUtNC42MS0xNi40Mi00LjYxQzcuMzUsNDUuMDYsMCw0Ny4xMiwwLDQ5LjY3YzAsMS4wNiwxLjMyLDIuMDQsMy40NCwyLjgyYzMtMS4wOSw3LjctMS44LDEyLjk5LTEuOCAgICAgUzI2LjQxLDUxLjQsMjkuNDEsNTIuNDl6Ii8+JiN4YTsJCTwvZz4mI3hhOwk8L2c+JiN4YTs8L2c+JiN4YTs8L3N2Zz4=;" parent="1" vertex="1">
          <mxGeometry x="278" y="581.5" width="40" height="55" as="geometry" />
        </mxCell>
        <mxCell id="bBWRpNzCG56Vrc6m6rs4-2105" value="Stg Schema" style="text;html=1;align=center;verticalAlign=middle;whiteSpace=wrap;rounded=0;" parent="1" vertex="1">
          <mxGeometry x="249.67000000000002" y="616" width="96.67" height="58" as="geometry" />
        </mxCell>
        <mxCell id="bBWRpNzCG56Vrc6m6rs4-2107" value="" style="shape=image;verticalLabelPosition=bottom;labelBackgroundColor=#ffffff;verticalAlign=top;aspect=fixed;imageAspect=0;image=data:image/svg+xml,PHN2ZyB4bWxuczpjYz0iaHR0cDovL2NyZWF0aXZlY29tbW9ucy5vcmcvbnMjIiB4bWxuczpkYz0iaHR0cDovL3B1cmwub3JnL2RjL2VsZW1lbnRzLzEuMS8iIHhtbG5zOmlua3NjYXBlPSJodHRwOi8vd3d3Lmlua3NjYXBlLm9yZy9uYW1lc3BhY2VzL2lua3NjYXBlIiB4bWxuczpyZGY9Imh0dHA6Ly93d3cudzMub3JnLzE5OTkvMDIvMjItcmRmLXN5bnRheC1ucyMiIHhtbG5zOnNvZGlwb2RpPSJodHRwOi8vc29kaXBvZGkuc291cmNlZm9yZ2UubmV0L0RURC9zb2RpcG9kaS0wLmR0ZCIgeG1sbnM6c3ZnPSJodHRwOi8vd3d3LnczLm9yZy8yMDAwL3N2ZyIgeG1sbnM9Imh0dHA6Ly93d3cudzMub3JnLzIwMDAvc3ZnIiB4bWxuczp4bGluaz0iaHR0cDovL3d3dy53My5vcmcvMTk5OS94bGluayIgdmVyc2lvbj0iMS4xIiBpZD0ic3ZnMTA4Mzc5IiBpbmtzY2FwZTp2ZXJzaW9uPSIwLjkyLjMgKDI0MDU1NDYsIDIwMTgtMDMtMTEpIiBzb2RpcG9kaTpkb2NuYW1lPSJ0YWJsZXNfMS5zdmciIHg9IjBweCIgeT0iMHB4IiB2aWV3Qm94PSIwIDAgNTMuNDggNDYuNjciIHN0eWxlPSJlbmFibGUtYmFja2dyb3VuZDpuZXcgMCAwIDUzLjQ4IDQ2LjY3OyIgeG1sOnNwYWNlPSJwcmVzZXJ2ZSI+JiN4YTs8c29kaXBvZGk6bmFtZWR2aWV3IGJvcmRlcmNvbG9yPSIjNjY2NjY2IiBib3JkZXJvcGFjaXR5PSIxIiBmaXQtbWFyZ2luLWJvdHRvbT0iMCIgZml0LW1hcmdpbi1sZWZ0PSIwIiBmaXQtbWFyZ2luLXJpZ2h0PSIwIiBmaXQtbWFyZ2luLXRvcD0iMCIgZ3JpZHRvbGVyYW5jZT0iMTAiIGd1aWRldG9sZXJhbmNlPSIxMCIgaWQ9Im5hbWVkdmlldzEwODM4MSIgaW5rc2NhcGU6Y3VycmVudC1sYXllcj0ic3ZnMTA4Mzc5IiBpbmtzY2FwZTpjeD0iMzUuNjUyNTciIGlua3NjYXBlOmN5PSIzMS4xMTE1NzIiIGlua3NjYXBlOnBhZ2VvcGFjaXR5PSIwIiBpbmtzY2FwZTpwYWdlc2hhZG93PSIyIiBpbmtzY2FwZTp3aW5kb3ctaGVpZ2h0PSIxMDE3IiBpbmtzY2FwZTp3aW5kb3ctbWF4aW1pemVkPSIxIiBpbmtzY2FwZTp3aW5kb3ctd2lkdGg9IjE5MjAiIGlua3NjYXBlOndpbmRvdy14PSItOCIgaW5rc2NhcGU6d2luZG93LXk9Ii04IiBpbmtzY2FwZTp6b29tPSIxMy45MzIxNjkiIG9iamVjdHRvbGVyYW5jZT0iMTAiIHBhZ2Vjb2xvcj0iI2ZmZmZmZiIgc2hvd2dyaWQ9ImZhbHNlIj4mI3hhOwk8L3NvZGlwb2RpOm5hbWVkdmlldz4mI3hhOzxnIGlkPSJnMTA4Mzc3IiB0cmFuc2Zvcm09InRyYW5zbGF0ZSgtMy45NzMzODM3ZS01KSI+JiN4YTsJPHRpdGxlIGlkPSJ0aXRsZTEwODM3MCI+UGFnZS0xPC90aXRsZT4mI3hhOwk8ZyBpZD0ic2hhcGUzOTI5LTEiPiYjeGE7CQk8dGl0bGUgaWQ9InRpdGxlMTA4MzcyIj5UYWJsZXMgIzE8L3RpdGxlPiYjeGE7CQk8cGF0aCBpZD0icGF0aDEwODM3NCIgaW5rc2NhcGU6Y29ubmVjdG9yLWN1cnZhdHVyZT0iMCIgc3R5bGU9ImZpbGw6IzNGNTc2NTsiIGQ9Ik01Mi4zNiwwQzEuMTMsMCwxLjEzLDAsMS4xMywwICAgIEMwLjQ3LDAsMCwwLjQ3LDAsMS4xM2MwLDQ0LjQyLDAsNDQuNDIsMCw0NC40MmMwLDAuNTYsMC40NywxLjEyLDEuMTMsMS4xMmM1MS4yMywwLDUxLjIzLDAsNTEuMjMsMGMwLjU2LDAsMS4xMi0wLjU2LDEuMTItMS4xMiAgICBjMC00NC40MiwwLTQ0LjQyLDAtNDQuNDJDNTMuNDgsMC40Nyw1Mi45MiwwLDUyLjM2LDB6IE0xMi45NSw0My40YzAtNi4zNiwwLTYuMzYsMC02LjM2YzcuOTcsMCw3Ljk3LDAsNy45NywwICAgIGMwLDYuMzYsMCw2LjM2LDAsNi4zNkgxMi45NXogTTIwLjkyLDIwLjExYzAsNi41NSwwLDYuNTUsMCw2LjU1Yy03Ljk3LDAtNy45NywwLTcuOTcsMGMwLTYuNTUsMC02LjU1LDAtNi41NUgyMC45MnogTTEyLjk1LDE4LjI0ICAgIGMwLTYuNjQsMC02LjY0LDAtNi42NGM3Ljk3LDAsNy45NywwLDcuOTcsMGMwLDYuNjQsMCw2LjY0LDAsNi42NEgxMi45NXogTTIwLjkyLDI4LjUzYzAsNi42NCwwLDYuNjQsMCw2LjY0ICAgIGMtNy45NywwLTcuOTcsMC03Ljk3LDBjMC02LjY0LDAtNi42NCwwLTYuNjRIMjAuOTJ6IE0yMi44LDQzLjRjMC02LjM2LDAtNi4zNiwwLTYuMzZjNy44OCwwLDcuODgsMCw3Ljg4LDBjMCw2LjM2LDAsNi4zNiwwLDYuMzYgICAgSDIyLjh6IE0zMC42OCwyMC4xMWMwLDYuNTUsMCw2LjU1LDAsNi41NWMtNy44OCwwLTcuODgsMC03Ljg4LDBjMC02LjU1LDAtNi41NSwwLTYuNTVIMzAuNjh6IE0yMi44LDE4LjI0YzAtNi42NCwwLTYuNjQsMC02LjY0ICAgIGM3Ljg4LDAsNy44OCwwLDcuODgsMGMwLDYuNjQsMCw2LjY0LDAsNi42NEgyMi44eiBNMzAuNjgsMjguNTNjMCw2LjY0LDAsNi42NCwwLDYuNjRjLTcuODgsMC03Ljg4LDAtNy44OCwwYzAtNi42NCwwLTYuNjQsMC02LjY0ICAgIEgzMC42OHogTTMyLjU2LDQzLjRjMC02LjM2LDAtNi4zNiwwLTYuMzZjNy45NywwLDcuOTcsMCw3Ljk3LDBjMCw2LjM2LDAsNi4zNiwwLDYuMzZIMzIuNTZ6IE00MC41MywyMC4xMWMwLDYuNTUsMCw2LjU1LDAsNi41NSAgICBjLTcuOTcsMC03Ljk3LDAtNy45NywwYzAtNi41NSwwLTYuNTUsMC02LjU1SDQwLjUzeiBNMzIuNTYsMTguMjRjMC02LjY0LDAtNi42NCwwLTYuNjRjNy45NywwLDcuOTcsMCw3Ljk3LDAgICAgYzAsNi42NCwwLDYuNjQsMCw2LjY0SDMyLjU2eiBNNDAuNTMsMjguNTNjMCw2LjY0LDAsNi42NCwwLDYuNjRjLTcuOTcsMC03Ljk3LDAtNy45NywwYzAtNi42NCwwLTYuNjQsMC02LjY0SDQwLjUzeiBNNDIuNDEsNDMuNCAgICBjMC02LjM2LDAtNi4zNiwwLTYuMzZjNy43OSwwLDcuNzksMCw3Ljc5LDBjMCw2LjM2LDAsNi4zNiwwLDYuMzZINDIuNDF6IE00Mi40MSwzNS4xN2MwLTYuNjQsMC02LjY0LDAtNi42NGM3Ljc5LDAsNy43OSwwLDcuNzksMCAgICBjMCw2LjY0LDAsNi42NCwwLDYuNjRINDIuNDF6IE00Mi40MSwyNi42NmMwLTYuNTUsMC02LjU1LDAtNi41NWM3Ljc5LDAsNy43OSwwLDcuNzksMGMwLDYuNTUsMCw2LjU1LDAsNi41NUw0Mi40MSwyNi42NnogICAgIE00Mi40MSwxOC4yNGMwLTYuNjQsMC02LjY0LDAtNi42NGM3Ljc5LDAsNy43OSwwLDcuNzksMGMwLDYuNjQsMCw2LjY0LDAsNi42NEg0Mi40MXogTTUwLjIsMy4yN2MwLDYuNDYsMCw2LjQ2LDAsNi40NiAgICBjLTcuNzksMC03Ljc5LDAtNy43OSwwYzAtNi40NiwwLTYuNDYsMC02LjQ2TDUwLjIsMy4yN3ogTTQwLjUzLDMuMjdjMCw2LjQ2LDAsNi40NiwwLDYuNDZjLTcuOTcsMC03Ljk3LDAtNy45NywwICAgIGMwLTYuNDYsMC02LjQ2LDAtNi40Nkw0MC41MywzLjI3eiBNMzAuNjgsMy4yN2MwLDYuNDYsMCw2LjQ2LDAsNi40NmMtNy44OCwwLTcuODgsMC03Ljg4LDBjMC02LjQ2LDAtNi40NiwwLTYuNDZMMzAuNjgsMy4yN3ogICAgIE0yMC45MiwzLjI3YzAsNi40NiwwLDYuNDYsMCw2LjQ2Yy03Ljk3LDAtNy45NywwLTcuOTcsMGMwLTYuNDYsMC02LjQ2LDAtNi40NkwyMC45MiwzLjI3eiBNMTEuMDcsOS43M2MtNy43OSwwLTcuNzksMC03Ljc5LDAgICAgYzAtNi40NiwwLTYuNDYsMC02LjQ2YzcuNzksMCw3Ljc5LDAsNy43OSwwVjkuNzN6IE0xMS4wNywxMS42YzAsNi42NCwwLDYuNjQsMCw2LjY0Yy03Ljc5LDAtNy43OSwwLTcuNzksMGMwLTYuNjQsMC02LjY0LDAtNi42NCAgICBMMTEuMDcsMTEuNnogTTExLjA3LDIwLjExYzAsNi41NSwwLDYuNTUsMCw2LjU1Yy03Ljc5LDAtNy43OSwwLTcuNzksMGMwLTYuNTUsMC02LjU1LDAtNi41NUgxMS4wN3ogTTExLjA3LDI4LjUzICAgIGMwLDYuNjQsMCw2LjY0LDAsNi42NGMtNy43OSwwLTcuNzksMC03Ljc5LDBjMC02LjY0LDAtNi42NCwwLTYuNjRMMTEuMDcsMjguNTN6IE0xMS4wNywzNy4wNGMwLDYuMzYsMCw2LjM2LDAsNi4zNiAgICBjLTcuNzksMC03Ljc5LDAtNy43OSwwYzAtNi4zNiwwLTYuMzYsMC02LjM2SDExLjA3eiIvPiYjeGE7CTwvZz4mI3hhOzwvZz4mI3hhOzwvc3ZnPg==;" parent="1" vertex="1">
          <mxGeometry x="256.7" y="662" width="53" height="51" as="geometry" />
        </mxCell>
        <mxCell id="bBWRpNzCG56Vrc6m6rs4-2108" value="" style="shape=image;verticalLabelPosition=bottom;labelBackgroundColor=#ffffff;verticalAlign=top;aspect=fixed;imageAspect=0;image=data:image/svg+xml,PHN2ZyB4bWxuczpjYz0iaHR0cDovL2NyZWF0aXZlY29tbW9ucy5vcmcvbnMjIiB4bWxuczpkYz0iaHR0cDovL3B1cmwub3JnL2RjL2VsZW1lbnRzLzEuMS8iIHhtbG5zOmlua3NjYXBlPSJodHRwOi8vd3d3Lmlua3NjYXBlLm9yZy9uYW1lc3BhY2VzL2lua3NjYXBlIiB4bWxuczpyZGY9Imh0dHA6Ly93d3cudzMub3JnLzE5OTkvMDIvMjItcmRmLXN5bnRheC1ucyMiIHhtbG5zOnNvZGlwb2RpPSJodHRwOi8vc29kaXBvZGkuc291cmNlZm9yZ2UubmV0L0RURC9zb2RpcG9kaS0wLmR0ZCIgeG1sbnM6c3ZnPSJodHRwOi8vd3d3LnczLm9yZy8yMDAwL3N2ZyIgeG1sbnM9Imh0dHA6Ly93d3cudzMub3JnLzIwMDAvc3ZnIiB4bWxuczp4bGluaz0iaHR0cDovL3d3dy53My5vcmcvMTk5OS94bGluayIgdmVyc2lvbj0iMS4xIiBpZD0ic3ZnMTA4Mzc5IiBpbmtzY2FwZTp2ZXJzaW9uPSIwLjkyLjMgKDI0MDU1NDYsIDIwMTgtMDMtMTEpIiBzb2RpcG9kaTpkb2NuYW1lPSJ0YWJsZXNfMS5zdmciIHg9IjBweCIgeT0iMHB4IiB2aWV3Qm94PSIwIDAgNTMuNDggNDYuNjciIHN0eWxlPSJlbmFibGUtYmFja2dyb3VuZDpuZXcgMCAwIDUzLjQ4IDQ2LjY3OyIgeG1sOnNwYWNlPSJwcmVzZXJ2ZSI+JiN4YTs8c29kaXBvZGk6bmFtZWR2aWV3IGJvcmRlcmNvbG9yPSIjNjY2NjY2IiBib3JkZXJvcGFjaXR5PSIxIiBmaXQtbWFyZ2luLWJvdHRvbT0iMCIgZml0LW1hcmdpbi1sZWZ0PSIwIiBmaXQtbWFyZ2luLXJpZ2h0PSIwIiBmaXQtbWFyZ2luLXRvcD0iMCIgZ3JpZHRvbGVyYW5jZT0iMTAiIGd1aWRldG9sZXJhbmNlPSIxMCIgaWQ9Im5hbWVkdmlldzEwODM4MSIgaW5rc2NhcGU6Y3VycmVudC1sYXllcj0ic3ZnMTA4Mzc5IiBpbmtzY2FwZTpjeD0iMzUuNjUyNTciIGlua3NjYXBlOmN5PSIzMS4xMTE1NzIiIGlua3NjYXBlOnBhZ2VvcGFjaXR5PSIwIiBpbmtzY2FwZTpwYWdlc2hhZG93PSIyIiBpbmtzY2FwZTp3aW5kb3ctaGVpZ2h0PSIxMDE3IiBpbmtzY2FwZTp3aW5kb3ctbWF4aW1pemVkPSIxIiBpbmtzY2FwZTp3aW5kb3ctd2lkdGg9IjE5MjAiIGlua3NjYXBlOndpbmRvdy14PSItOCIgaW5rc2NhcGU6d2luZG93LXk9Ii04IiBpbmtzY2FwZTp6b29tPSIxMy45MzIxNjkiIG9iamVjdHRvbGVyYW5jZT0iMTAiIHBhZ2Vjb2xvcj0iI2ZmZmZmZiIgc2hvd2dyaWQ9ImZhbHNlIj4mI3hhOwk8L3NvZGlwb2RpOm5hbWVkdmlldz4mI3hhOzxnIGlkPSJnMTA4Mzc3IiB0cmFuc2Zvcm09InRyYW5zbGF0ZSgtMy45NzMzODM3ZS01KSI+JiN4YTsJPHRpdGxlIGlkPSJ0aXRsZTEwODM3MCI+UGFnZS0xPC90aXRsZT4mI3hhOwk8ZyBpZD0ic2hhcGUzOTI5LTEiPiYjeGE7CQk8dGl0bGUgaWQ9InRpdGxlMTA4MzcyIj5UYWJsZXMgIzE8L3RpdGxlPiYjeGE7CQk8cGF0aCBpZD0icGF0aDEwODM3NCIgaW5rc2NhcGU6Y29ubmVjdG9yLWN1cnZhdHVyZT0iMCIgc3R5bGU9ImZpbGw6IzNGNTc2NTsiIGQ9Ik01Mi4zNiwwQzEuMTMsMCwxLjEzLDAsMS4xMywwICAgIEMwLjQ3LDAsMCwwLjQ3LDAsMS4xM2MwLDQ0LjQyLDAsNDQuNDIsMCw0NC40MmMwLDAuNTYsMC40NywxLjEyLDEuMTMsMS4xMmM1MS4yMywwLDUxLjIzLDAsNTEuMjMsMGMwLjU2LDAsMS4xMi0wLjU2LDEuMTItMS4xMiAgICBjMC00NC40MiwwLTQ0LjQyLDAtNDQuNDJDNTMuNDgsMC40Nyw1Mi45MiwwLDUyLjM2LDB6IE0xMi45NSw0My40YzAtNi4zNiwwLTYuMzYsMC02LjM2YzcuOTcsMCw3Ljk3LDAsNy45NywwICAgIGMwLDYuMzYsMCw2LjM2LDAsNi4zNkgxMi45NXogTTIwLjkyLDIwLjExYzAsNi41NSwwLDYuNTUsMCw2LjU1Yy03Ljk3LDAtNy45NywwLTcuOTcsMGMwLTYuNTUsMC02LjU1LDAtNi41NUgyMC45MnogTTEyLjk1LDE4LjI0ICAgIGMwLTYuNjQsMC02LjY0LDAtNi42NGM3Ljk3LDAsNy45NywwLDcuOTcsMGMwLDYuNjQsMCw2LjY0LDAsNi42NEgxMi45NXogTTIwLjkyLDI4LjUzYzAsNi42NCwwLDYuNjQsMCw2LjY0ICAgIGMtNy45NywwLTcuOTcsMC03Ljk3LDBjMC02LjY0LDAtNi42NCwwLTYuNjRIMjAuOTJ6IE0yMi44LDQzLjRjMC02LjM2LDAtNi4zNiwwLTYuMzZjNy44OCwwLDcuODgsMCw3Ljg4LDBjMCw2LjM2LDAsNi4zNiwwLDYuMzYgICAgSDIyLjh6IE0zMC42OCwyMC4xMWMwLDYuNTUsMCw2LjU1LDAsNi41NWMtNy44OCwwLTcuODgsMC03Ljg4LDBjMC02LjU1LDAtNi41NSwwLTYuNTVIMzAuNjh6IE0yMi44LDE4LjI0YzAtNi42NCwwLTYuNjQsMC02LjY0ICAgIGM3Ljg4LDAsNy44OCwwLDcuODgsMGMwLDYuNjQsMCw2LjY0LDAsNi42NEgyMi44eiBNMzAuNjgsMjguNTNjMCw2LjY0LDAsNi42NCwwLDYuNjRjLTcuODgsMC03Ljg4LDAtNy44OCwwYzAtNi42NCwwLTYuNjQsMC02LjY0ICAgIEgzMC42OHogTTMyLjU2LDQzLjRjMC02LjM2LDAtNi4zNiwwLTYuMzZjNy45NywwLDcuOTcsMCw3Ljk3LDBjMCw2LjM2LDAsNi4zNiwwLDYuMzZIMzIuNTZ6IE00MC41MywyMC4xMWMwLDYuNTUsMCw2LjU1LDAsNi41NSAgICBjLTcuOTcsMC03Ljk3LDAtNy45NywwYzAtNi41NSwwLTYuNTUsMC02LjU1SDQwLjUzeiBNMzIuNTYsMTguMjRjMC02LjY0LDAtNi42NCwwLTYuNjRjNy45NywwLDcuOTcsMCw3Ljk3LDAgICAgYzAsNi42NCwwLDYuNjQsMCw2LjY0SDMyLjU2eiBNNDAuNTMsMjguNTNjMCw2LjY0LDAsNi42NCwwLDYuNjRjLTcuOTcsMC03Ljk3LDAtNy45NywwYzAtNi42NCwwLTYuNjQsMC02LjY0SDQwLjUzeiBNNDIuNDEsNDMuNCAgICBjMC02LjM2LDAtNi4zNiwwLTYuMzZjNy43OSwwLDcuNzksMCw3Ljc5LDBjMCw2LjM2LDAsNi4zNiwwLDYuMzZINDIuNDF6IE00Mi40MSwzNS4xN2MwLTYuNjQsMC02LjY0LDAtNi42NGM3Ljc5LDAsNy43OSwwLDcuNzksMCAgICBjMCw2LjY0LDAsNi42NCwwLDYuNjRINDIuNDF6IE00Mi40MSwyNi42NmMwLTYuNTUsMC02LjU1LDAtNi41NWM3Ljc5LDAsNy43OSwwLDcuNzksMGMwLDYuNTUsMCw2LjU1LDAsNi41NUw0Mi40MSwyNi42NnogICAgIE00Mi40MSwxOC4yNGMwLTYuNjQsMC02LjY0LDAtNi42NGM3Ljc5LDAsNy43OSwwLDcuNzksMGMwLDYuNjQsMCw2LjY0LDAsNi42NEg0Mi40MXogTTUwLjIsMy4yN2MwLDYuNDYsMCw2LjQ2LDAsNi40NiAgICBjLTcuNzksMC03Ljc5LDAtNy43OSwwYzAtNi40NiwwLTYuNDYsMC02LjQ2TDUwLjIsMy4yN3ogTTQwLjUzLDMuMjdjMCw2LjQ2LDAsNi40NiwwLDYuNDZjLTcuOTcsMC03Ljk3LDAtNy45NywwICAgIGMwLTYuNDYsMC02LjQ2LDAtNi40Nkw0MC41MywzLjI3eiBNMzAuNjgsMy4yN2MwLDYuNDYsMCw2LjQ2LDAsNi40NmMtNy44OCwwLTcuODgsMC03Ljg4LDBjMC02LjQ2LDAtNi40NiwwLTYuNDZMMzAuNjgsMy4yN3ogICAgIE0yMC45MiwzLjI3YzAsNi40NiwwLDYuNDYsMCw2LjQ2Yy03Ljk3LDAtNy45NywwLTcuOTcsMGMwLTYuNDYsMC02LjQ2LDAtNi40NkwyMC45MiwzLjI3eiBNMTEuMDcsOS43M2MtNy43OSwwLTcuNzksMC03Ljc5LDAgICAgYzAtNi40NiwwLTYuNDYsMC02LjQ2YzcuNzksMCw3Ljc5LDAsNy43OSwwVjkuNzN6IE0xMS4wNywxMS42YzAsNi42NCwwLDYuNjQsMCw2LjY0Yy03Ljc5LDAtNy43OSwwLTcuNzksMGMwLTYuNjQsMC02LjY0LDAtNi42NCAgICBMMTEuMDcsMTEuNnogTTExLjA3LDIwLjExYzAsNi41NSwwLDYuNTUsMCw2LjU1Yy03Ljc5LDAtNy43OSwwLTcuNzksMGMwLTYuNTUsMC02LjU1LDAtNi41NUgxMS4wN3ogTTExLjA3LDI4LjUzICAgIGMwLDYuNjQsMCw2LjY0LDAsNi42NGMtNy43OSwwLTcuNzksMC03Ljc5LDBjMC02LjY0LDAtNi42NCwwLTYuNjRMMTEuMDcsMjguNTN6IE0xMS4wNywzNy4wNGMwLDYuMzYsMCw2LjM2LDAsNi4zNiAgICBjLTcuNzksMC03Ljc5LDAtNy43OSwwYzAtNi4zNiwwLTYuMzYsMC02LjM2SDExLjA3eiIvPiYjeGE7CTwvZz4mI3hhOzwvZz4mI3hhOzwvc3ZnPg==;" parent="1" vertex="1">
          <mxGeometry x="266.7" y="672" width="53" height="51" as="geometry" />
        </mxCell>
        <mxCell id="bBWRpNzCG56Vrc6m6rs4-2109" value="" style="shape=image;verticalLabelPosition=bottom;labelBackgroundColor=#ffffff;verticalAlign=top;aspect=fixed;imageAspect=0;image=data:image/svg+xml,PHN2ZyB4bWxuczpjYz0iaHR0cDovL2NyZWF0aXZlY29tbW9ucy5vcmcvbnMjIiB4bWxuczpkYz0iaHR0cDovL3B1cmwub3JnL2RjL2VsZW1lbnRzLzEuMS8iIHhtbG5zOmlua3NjYXBlPSJodHRwOi8vd3d3Lmlua3NjYXBlLm9yZy9uYW1lc3BhY2VzL2lua3NjYXBlIiB4bWxuczpyZGY9Imh0dHA6Ly93d3cudzMub3JnLzE5OTkvMDIvMjItcmRmLXN5bnRheC1ucyMiIHhtbG5zOnNvZGlwb2RpPSJodHRwOi8vc29kaXBvZGkuc291cmNlZm9yZ2UubmV0L0RURC9zb2RpcG9kaS0wLmR0ZCIgeG1sbnM6c3ZnPSJodHRwOi8vd3d3LnczLm9yZy8yMDAwL3N2ZyIgeG1sbnM9Imh0dHA6Ly93d3cudzMub3JnLzIwMDAvc3ZnIiB4bWxuczp4bGluaz0iaHR0cDovL3d3dy53My5vcmcvMTk5OS94bGluayIgdmVyc2lvbj0iMS4xIiBpZD0ic3ZnMTA4Mzc5IiBpbmtzY2FwZTp2ZXJzaW9uPSIwLjkyLjMgKDI0MDU1NDYsIDIwMTgtMDMtMTEpIiBzb2RpcG9kaTpkb2NuYW1lPSJ0YWJsZXNfMS5zdmciIHg9IjBweCIgeT0iMHB4IiB2aWV3Qm94PSIwIDAgNTMuNDggNDYuNjciIHN0eWxlPSJlbmFibGUtYmFja2dyb3VuZDpuZXcgMCAwIDUzLjQ4IDQ2LjY3OyIgeG1sOnNwYWNlPSJwcmVzZXJ2ZSI+JiN4YTs8c29kaXBvZGk6bmFtZWR2aWV3IGJvcmRlcmNvbG9yPSIjNjY2NjY2IiBib3JkZXJvcGFjaXR5PSIxIiBmaXQtbWFyZ2luLWJvdHRvbT0iMCIgZml0LW1hcmdpbi1sZWZ0PSIwIiBmaXQtbWFyZ2luLXJpZ2h0PSIwIiBmaXQtbWFyZ2luLXRvcD0iMCIgZ3JpZHRvbGVyYW5jZT0iMTAiIGd1aWRldG9sZXJhbmNlPSIxMCIgaWQ9Im5hbWVkdmlldzEwODM4MSIgaW5rc2NhcGU6Y3VycmVudC1sYXllcj0ic3ZnMTA4Mzc5IiBpbmtzY2FwZTpjeD0iMzUuNjUyNTciIGlua3NjYXBlOmN5PSIzMS4xMTE1NzIiIGlua3NjYXBlOnBhZ2VvcGFjaXR5PSIwIiBpbmtzY2FwZTpwYWdlc2hhZG93PSIyIiBpbmtzY2FwZTp3aW5kb3ctaGVpZ2h0PSIxMDE3IiBpbmtzY2FwZTp3aW5kb3ctbWF4aW1pemVkPSIxIiBpbmtzY2FwZTp3aW5kb3ctd2lkdGg9IjE5MjAiIGlua3NjYXBlOndpbmRvdy14PSItOCIgaW5rc2NhcGU6d2luZG93LXk9Ii04IiBpbmtzY2FwZTp6b29tPSIxMy45MzIxNjkiIG9iamVjdHRvbGVyYW5jZT0iMTAiIHBhZ2Vjb2xvcj0iI2ZmZmZmZiIgc2hvd2dyaWQ9ImZhbHNlIj4mI3hhOwk8L3NvZGlwb2RpOm5hbWVkdmlldz4mI3hhOzxnIGlkPSJnMTA4Mzc3IiB0cmFuc2Zvcm09InRyYW5zbGF0ZSgtMy45NzMzODM3ZS01KSI+JiN4YTsJPHRpdGxlIGlkPSJ0aXRsZTEwODM3MCI+UGFnZS0xPC90aXRsZT4mI3hhOwk8ZyBpZD0ic2hhcGUzOTI5LTEiPiYjeGE7CQk8dGl0bGUgaWQ9InRpdGxlMTA4MzcyIj5UYWJsZXMgIzE8L3RpdGxlPiYjeGE7CQk8cGF0aCBpZD0icGF0aDEwODM3NCIgaW5rc2NhcGU6Y29ubmVjdG9yLWN1cnZhdHVyZT0iMCIgc3R5bGU9ImZpbGw6IzNGNTc2NTsiIGQ9Ik01Mi4zNiwwQzEuMTMsMCwxLjEzLDAsMS4xMywwICAgIEMwLjQ3LDAsMCwwLjQ3LDAsMS4xM2MwLDQ0LjQyLDAsNDQuNDIsMCw0NC40MmMwLDAuNTYsMC40NywxLjEyLDEuMTMsMS4xMmM1MS4yMywwLDUxLjIzLDAsNTEuMjMsMGMwLjU2LDAsMS4xMi0wLjU2LDEuMTItMS4xMiAgICBjMC00NC40MiwwLTQ0LjQyLDAtNDQuNDJDNTMuNDgsMC40Nyw1Mi45MiwwLDUyLjM2LDB6IE0xMi45NSw0My40YzAtNi4zNiwwLTYuMzYsMC02LjM2YzcuOTcsMCw3Ljk3LDAsNy45NywwICAgIGMwLDYuMzYsMCw2LjM2LDAsNi4zNkgxMi45NXogTTIwLjkyLDIwLjExYzAsNi41NSwwLDYuNTUsMCw2LjU1Yy03Ljk3LDAtNy45NywwLTcuOTcsMGMwLTYuNTUsMC02LjU1LDAtNi41NUgyMC45MnogTTEyLjk1LDE4LjI0ICAgIGMwLTYuNjQsMC02LjY0LDAtNi42NGM3Ljk3LDAsNy45NywwLDcuOTcsMGMwLDYuNjQsMCw2LjY0LDAsNi42NEgxMi45NXogTTIwLjkyLDI4LjUzYzAsNi42NCwwLDYuNjQsMCw2LjY0ICAgIGMtNy45NywwLTcuOTcsMC03Ljk3LDBjMC02LjY0LDAtNi42NCwwLTYuNjRIMjAuOTJ6IE0yMi44LDQzLjRjMC02LjM2LDAtNi4zNiwwLTYuMzZjNy44OCwwLDcuODgsMCw3Ljg4LDBjMCw2LjM2LDAsNi4zNiwwLDYuMzYgICAgSDIyLjh6IE0zMC42OCwyMC4xMWMwLDYuNTUsMCw2LjU1LDAsNi41NWMtNy44OCwwLTcuODgsMC03Ljg4LDBjMC02LjU1LDAtNi41NSwwLTYuNTVIMzAuNjh6IE0yMi44LDE4LjI0YzAtNi42NCwwLTYuNjQsMC02LjY0ICAgIGM3Ljg4LDAsNy44OCwwLDcuODgsMGMwLDYuNjQsMCw2LjY0LDAsNi42NEgyMi44eiBNMzAuNjgsMjguNTNjMCw2LjY0LDAsNi42NCwwLDYuNjRjLTcuODgsMC03Ljg4LDAtNy44OCwwYzAtNi42NCwwLTYuNjQsMC02LjY0ICAgIEgzMC42OHogTTMyLjU2LDQzLjRjMC02LjM2LDAtNi4zNiwwLTYuMzZjNy45NywwLDcuOTcsMCw3Ljk3LDBjMCw2LjM2LDAsNi4zNiwwLDYuMzZIMzIuNTZ6IE00MC41MywyMC4xMWMwLDYuNTUsMCw2LjU1LDAsNi41NSAgICBjLTcuOTcsMC03Ljk3LDAtNy45NywwYzAtNi41NSwwLTYuNTUsMC02LjU1SDQwLjUzeiBNMzIuNTYsMTguMjRjMC02LjY0LDAtNi42NCwwLTYuNjRjNy45NywwLDcuOTcsMCw3Ljk3LDAgICAgYzAsNi42NCwwLDYuNjQsMCw2LjY0SDMyLjU2eiBNNDAuNTMsMjguNTNjMCw2LjY0LDAsNi42NCwwLDYuNjRjLTcuOTcsMC03Ljk3LDAtNy45NywwYzAtNi42NCwwLTYuNjQsMC02LjY0SDQwLjUzeiBNNDIuNDEsNDMuNCAgICBjMC02LjM2LDAtNi4zNiwwLTYuMzZjNy43OSwwLDcuNzksMCw3Ljc5LDBjMCw2LjM2LDAsNi4zNiwwLDYuMzZINDIuNDF6IE00Mi40MSwzNS4xN2MwLTYuNjQsMC02LjY0LDAtNi42NGM3Ljc5LDAsNy43OSwwLDcuNzksMCAgICBjMCw2LjY0LDAsNi42NCwwLDYuNjRINDIuNDF6IE00Mi40MSwyNi42NmMwLTYuNTUsMC02LjU1LDAtNi41NWM3Ljc5LDAsNy43OSwwLDcuNzksMGMwLDYuNTUsMCw2LjU1LDAsNi41NUw0Mi40MSwyNi42NnogICAgIE00Mi40MSwxOC4yNGMwLTYuNjQsMC02LjY0LDAtNi42NGM3Ljc5LDAsNy43OSwwLDcuNzksMGMwLDYuNjQsMCw2LjY0LDAsNi42NEg0Mi40MXogTTUwLjIsMy4yN2MwLDYuNDYsMCw2LjQ2LDAsNi40NiAgICBjLTcuNzksMC03Ljc5LDAtNy43OSwwYzAtNi40NiwwLTYuNDYsMC02LjQ2TDUwLjIsMy4yN3ogTTQwLjUzLDMuMjdjMCw2LjQ2LDAsNi40NiwwLDYuNDZjLTcuOTcsMC03Ljk3LDAtNy45NywwICAgIGMwLTYuNDYsMC02LjQ2LDAtNi40Nkw0MC41MywzLjI3eiBNMzAuNjgsMy4yN2MwLDYuNDYsMCw2LjQ2LDAsNi40NmMtNy44OCwwLTcuODgsMC03Ljg4LDBjMC02LjQ2LDAtNi40NiwwLTYuNDZMMzAuNjgsMy4yN3ogICAgIE0yMC45MiwzLjI3YzAsNi40NiwwLDYuNDYsMCw2LjQ2Yy03Ljk3LDAtNy45NywwLTcuOTcsMGMwLTYuNDYsMC02LjQ2LDAtNi40NkwyMC45MiwzLjI3eiBNMTEuMDcsOS43M2MtNy43OSwwLTcuNzksMC03Ljc5LDAgICAgYzAtNi40NiwwLTYuNDYsMC02LjQ2YzcuNzksMCw3Ljc5LDAsNy43OSwwVjkuNzN6IE0xMS4wNywxMS42YzAsNi42NCwwLDYuNjQsMCw2LjY0Yy03Ljc5LDAtNy43OSwwLTcuNzksMGMwLTYuNjQsMC02LjY0LDAtNi42NCAgICBMMTEuMDcsMTEuNnogTTExLjA3LDIwLjExYzAsNi41NSwwLDYuNTUsMCw2LjU1Yy03Ljc5LDAtNy43OSwwLTcuNzksMGMwLTYuNTUsMC02LjU1LDAtNi41NUgxMS4wN3ogTTExLjA3LDI4LjUzICAgIGMwLDYuNjQsMCw2LjY0LDAsNi42NGMtNy43OSwwLTcuNzksMC03Ljc5LDBjMC02LjY0LDAtNi42NCwwLTYuNjRMMTEuMDcsMjguNTN6IE0xMS4wNywzNy4wNGMwLDYuMzYsMCw2LjM2LDAsNi4zNiAgICBjLTcuNzksMC03Ljc5LDAtNy43OSwwYzAtNi4zNiwwLTYuMzYsMC02LjM2SDExLjA3eiIvPiYjeGE7CTwvZz4mI3hhOzwvZz4mI3hhOzwvc3ZnPg==;" parent="1" vertex="1">
          <mxGeometry x="276.7" y="682" width="53" height="51" as="geometry" />
        </mxCell>
        <mxCell id="bBWRpNzCG56Vrc6m6rs4-2110" value="" style="shape=image;verticalLabelPosition=bottom;labelBackgroundColor=#ffffff;verticalAlign=top;aspect=fixed;imageAspect=0;image=data:image/svg+xml,PHN2ZyB4bWxuczpjYz0iaHR0cDovL2NyZWF0aXZlY29tbW9ucy5vcmcvbnMjIiB4bWxuczpkYz0iaHR0cDovL3B1cmwub3JnL2RjL2VsZW1lbnRzLzEuMS8iIHhtbG5zOmlua3NjYXBlPSJodHRwOi8vd3d3Lmlua3NjYXBlLm9yZy9uYW1lc3BhY2VzL2lua3NjYXBlIiB4bWxuczpyZGY9Imh0dHA6Ly93d3cudzMub3JnLzE5OTkvMDIvMjItcmRmLXN5bnRheC1ucyMiIHhtbG5zOnNvZGlwb2RpPSJodHRwOi8vc29kaXBvZGkuc291cmNlZm9yZ2UubmV0L0RURC9zb2RpcG9kaS0wLmR0ZCIgeG1sbnM6c3ZnPSJodHRwOi8vd3d3LnczLm9yZy8yMDAwL3N2ZyIgeG1sbnM9Imh0dHA6Ly93d3cudzMub3JnLzIwMDAvc3ZnIiB4bWxuczp4bGluaz0iaHR0cDovL3d3dy53My5vcmcvMTk5OS94bGluayIgdmVyc2lvbj0iMS4xIiBpZD0ic3ZnMTA4Mzc5IiBpbmtzY2FwZTp2ZXJzaW9uPSIwLjkyLjMgKDI0MDU1NDYsIDIwMTgtMDMtMTEpIiBzb2RpcG9kaTpkb2NuYW1lPSJ0YWJsZXNfMS5zdmciIHg9IjBweCIgeT0iMHB4IiB2aWV3Qm94PSIwIDAgNTMuNDggNDYuNjciIHN0eWxlPSJlbmFibGUtYmFja2dyb3VuZDpuZXcgMCAwIDUzLjQ4IDQ2LjY3OyIgeG1sOnNwYWNlPSJwcmVzZXJ2ZSI+JiN4YTs8c29kaXBvZGk6bmFtZWR2aWV3IGJvcmRlcmNvbG9yPSIjNjY2NjY2IiBib3JkZXJvcGFjaXR5PSIxIiBmaXQtbWFyZ2luLWJvdHRvbT0iMCIgZml0LW1hcmdpbi1sZWZ0PSIwIiBmaXQtbWFyZ2luLXJpZ2h0PSIwIiBmaXQtbWFyZ2luLXRvcD0iMCIgZ3JpZHRvbGVyYW5jZT0iMTAiIGd1aWRldG9sZXJhbmNlPSIxMCIgaWQ9Im5hbWVkdmlldzEwODM4MSIgaW5rc2NhcGU6Y3VycmVudC1sYXllcj0ic3ZnMTA4Mzc5IiBpbmtzY2FwZTpjeD0iMzUuNjUyNTciIGlua3NjYXBlOmN5PSIzMS4xMTE1NzIiIGlua3NjYXBlOnBhZ2VvcGFjaXR5PSIwIiBpbmtzY2FwZTpwYWdlc2hhZG93PSIyIiBpbmtzY2FwZTp3aW5kb3ctaGVpZ2h0PSIxMDE3IiBpbmtzY2FwZTp3aW5kb3ctbWF4aW1pemVkPSIxIiBpbmtzY2FwZTp3aW5kb3ctd2lkdGg9IjE5MjAiIGlua3NjYXBlOndpbmRvdy14PSItOCIgaW5rc2NhcGU6d2luZG93LXk9Ii04IiBpbmtzY2FwZTp6b29tPSIxMy45MzIxNjkiIG9iamVjdHRvbGVyYW5jZT0iMTAiIHBhZ2Vjb2xvcj0iI2ZmZmZmZiIgc2hvd2dyaWQ9ImZhbHNlIj4mI3hhOwk8L3NvZGlwb2RpOm5hbWVkdmlldz4mI3hhOzxnIGlkPSJnMTA4Mzc3IiB0cmFuc2Zvcm09InRyYW5zbGF0ZSgtMy45NzMzODM3ZS01KSI+JiN4YTsJPHRpdGxlIGlkPSJ0aXRsZTEwODM3MCI+UGFnZS0xPC90aXRsZT4mI3hhOwk8ZyBpZD0ic2hhcGUzOTI5LTEiPiYjeGE7CQk8dGl0bGUgaWQ9InRpdGxlMTA4MzcyIj5UYWJsZXMgIzE8L3RpdGxlPiYjeGE7CQk8cGF0aCBpZD0icGF0aDEwODM3NCIgaW5rc2NhcGU6Y29ubmVjdG9yLWN1cnZhdHVyZT0iMCIgc3R5bGU9ImZpbGw6IzNGNTc2NTsiIGQ9Ik01Mi4zNiwwQzEuMTMsMCwxLjEzLDAsMS4xMywwICAgIEMwLjQ3LDAsMCwwLjQ3LDAsMS4xM2MwLDQ0LjQyLDAsNDQuNDIsMCw0NC40MmMwLDAuNTYsMC40NywxLjEyLDEuMTMsMS4xMmM1MS4yMywwLDUxLjIzLDAsNTEuMjMsMGMwLjU2LDAsMS4xMi0wLjU2LDEuMTItMS4xMiAgICBjMC00NC40MiwwLTQ0LjQyLDAtNDQuNDJDNTMuNDgsMC40Nyw1Mi45MiwwLDUyLjM2LDB6IE0xMi45NSw0My40YzAtNi4zNiwwLTYuMzYsMC02LjM2YzcuOTcsMCw3Ljk3LDAsNy45NywwICAgIGMwLDYuMzYsMCw2LjM2LDAsNi4zNkgxMi45NXogTTIwLjkyLDIwLjExYzAsNi41NSwwLDYuNTUsMCw2LjU1Yy03Ljk3LDAtNy45NywwLTcuOTcsMGMwLTYuNTUsMC02LjU1LDAtNi41NUgyMC45MnogTTEyLjk1LDE4LjI0ICAgIGMwLTYuNjQsMC02LjY0LDAtNi42NGM3Ljk3LDAsNy45NywwLDcuOTcsMGMwLDYuNjQsMCw2LjY0LDAsNi42NEgxMi45NXogTTIwLjkyLDI4LjUzYzAsNi42NCwwLDYuNjQsMCw2LjY0ICAgIGMtNy45NywwLTcuOTcsMC03Ljk3LDBjMC02LjY0LDAtNi42NCwwLTYuNjRIMjAuOTJ6IE0yMi44LDQzLjRjMC02LjM2LDAtNi4zNiwwLTYuMzZjNy44OCwwLDcuODgsMCw3Ljg4LDBjMCw2LjM2LDAsNi4zNiwwLDYuMzYgICAgSDIyLjh6IE0zMC42OCwyMC4xMWMwLDYuNTUsMCw2LjU1LDAsNi41NWMtNy44OCwwLTcuODgsMC03Ljg4LDBjMC02LjU1LDAtNi41NSwwLTYuNTVIMzAuNjh6IE0yMi44LDE4LjI0YzAtNi42NCwwLTYuNjQsMC02LjY0ICAgIGM3Ljg4LDAsNy44OCwwLDcuODgsMGMwLDYuNjQsMCw2LjY0LDAsNi42NEgyMi44eiBNMzAuNjgsMjguNTNjMCw2LjY0LDAsNi42NCwwLDYuNjRjLTcuODgsMC03Ljg4LDAtNy44OCwwYzAtNi42NCwwLTYuNjQsMC02LjY0ICAgIEgzMC42OHogTTMyLjU2LDQzLjRjMC02LjM2LDAtNi4zNiwwLTYuMzZjNy45NywwLDcuOTcsMCw3Ljk3LDBjMCw2LjM2LDAsNi4zNiwwLDYuMzZIMzIuNTZ6IE00MC41MywyMC4xMWMwLDYuNTUsMCw2LjU1LDAsNi41NSAgICBjLTcuOTcsMC03Ljk3LDAtNy45NywwYzAtNi41NSwwLTYuNTUsMC02LjU1SDQwLjUzeiBNMzIuNTYsMTguMjRjMC02LjY0LDAtNi42NCwwLTYuNjRjNy45NywwLDcuOTcsMCw3Ljk3LDAgICAgYzAsNi42NCwwLDYuNjQsMCw2LjY0SDMyLjU2eiBNNDAuNTMsMjguNTNjMCw2LjY0LDAsNi42NCwwLDYuNjRjLTcuOTcsMC03Ljk3LDAtNy45NywwYzAtNi42NCwwLTYuNjQsMC02LjY0SDQwLjUzeiBNNDIuNDEsNDMuNCAgICBjMC02LjM2LDAtNi4zNiwwLTYuMzZjNy43OSwwLDcuNzksMCw3Ljc5LDBjMCw2LjM2LDAsNi4zNiwwLDYuMzZINDIuNDF6IE00Mi40MSwzNS4xN2MwLTYuNjQsMC02LjY0LDAtNi42NGM3Ljc5LDAsNy43OSwwLDcuNzksMCAgICBjMCw2LjY0LDAsNi42NCwwLDYuNjRINDIuNDF6IE00Mi40MSwyNi42NmMwLTYuNTUsMC02LjU1LDAtNi41NWM3Ljc5LDAsNy43OSwwLDcuNzksMGMwLDYuNTUsMCw2LjU1LDAsNi41NUw0Mi40MSwyNi42NnogICAgIE00Mi40MSwxOC4yNGMwLTYuNjQsMC02LjY0LDAtNi42NGM3Ljc5LDAsNy43OSwwLDcuNzksMGMwLDYuNjQsMCw2LjY0LDAsNi42NEg0Mi40MXogTTUwLjIsMy4yN2MwLDYuNDYsMCw2LjQ2LDAsNi40NiAgICBjLTcuNzksMC03Ljc5LDAtNy43OSwwYzAtNi40NiwwLTYuNDYsMC02LjQ2TDUwLjIsMy4yN3ogTTQwLjUzLDMuMjdjMCw2LjQ2LDAsNi40NiwwLDYuNDZjLTcuOTcsMC03Ljk3LDAtNy45NywwICAgIGMwLTYuNDYsMC02LjQ2LDAtNi40Nkw0MC41MywzLjI3eiBNMzAuNjgsMy4yN2MwLDYuNDYsMCw2LjQ2LDAsNi40NmMtNy44OCwwLTcuODgsMC03Ljg4LDBjMC02LjQ2LDAtNi40NiwwLTYuNDZMMzAuNjgsMy4yN3ogICAgIE0yMC45MiwzLjI3YzAsNi40NiwwLDYuNDYsMCw2LjQ2Yy03Ljk3LDAtNy45NywwLTcuOTcsMGMwLTYuNDYsMC02LjQ2LDAtNi40NkwyMC45MiwzLjI3eiBNMTEuMDcsOS43M2MtNy43OSwwLTcuNzksMC03Ljc5LDAgICAgYzAtNi40NiwwLTYuNDYsMC02LjQ2YzcuNzksMCw3Ljc5LDAsNy43OSwwVjkuNzN6IE0xMS4wNywxMS42YzAsNi42NCwwLDYuNjQsMCw2LjY0Yy03Ljc5LDAtNy43OSwwLTcuNzksMGMwLTYuNjQsMC02LjY0LDAtNi42NCAgICBMMTEuMDcsMTEuNnogTTExLjA3LDIwLjExYzAsNi41NSwwLDYuNTUsMCw2LjU1Yy03Ljc5LDAtNy43OSwwLTcuNzksMGMwLTYuNTUsMC02LjU1LDAtNi41NUgxMS4wN3ogTTExLjA3LDI4LjUzICAgIGMwLDYuNjQsMCw2LjY0LDAsNi42NGMtNy43OSwwLTcuNzksMC03Ljc5LDBjMC02LjY0LDAtNi42NCwwLTYuNjRMMTEuMDcsMjguNTN6IE0xMS4wNywzNy4wNGMwLDYuMzYsMCw2LjM2LDAsNi4zNiAgICBjLTcuNzksMC03Ljc5LDAtNy43OSwwYzAtNi4zNiwwLTYuMzYsMC02LjM2SDExLjA3eiIvPiYjeGE7CTwvZz4mI3hhOzwvZz4mI3hhOzwvc3ZnPg==;" parent="1" vertex="1">
          <mxGeometry x="286.7" y="692" width="53" height="51" as="geometry" />
        </mxCell>
        <mxCell id="bBWRpNzCG56Vrc6m6rs4-2111" value="Stage tables" style="text;html=1;align=center;verticalAlign=middle;whiteSpace=wrap;rounded=0;" parent="1" vertex="1">
          <mxGeometry x="249.67000000000002" y="729" width="96.67" height="58" as="geometry" />
        </mxCell>
        <mxCell id="bBWRpNzCG56Vrc6m6rs4-2113" value="" style="image;aspect=fixed;html=1;points=[];align=center;fontSize=12;image=img/lib/azure2/analytics/Azure_Databricks.svg;" parent="1" vertex="1">
          <mxGeometry x="445.19999999999993" y="240" width="62.8" height="68" as="geometry" />
        </mxCell>
        <mxCell id="bBWRpNzCG56Vrc6m6rs4-2114" value="Azure&amp;nbsp;&lt;div&gt;Databricks&amp;nbsp;&lt;/div&gt;" style="text;html=1;align=center;verticalAlign=middle;whiteSpace=wrap;rounded=0;" parent="1" vertex="1">
          <mxGeometry x="428.26" y="301" width="96.67" height="54" as="geometry" />
        </mxCell>
        <mxCell id="bBWRpNzCG56Vrc6m6rs4-2120" value="" style="edgeStyle=orthogonalEdgeStyle;rounded=0;orthogonalLoop=1;jettySize=auto;html=1;" parent="1" source="bBWRpNzCG56Vrc6m6rs4-2115" target="bBWRpNzCG56Vrc6m6rs4-2117" edge="1">
          <mxGeometry relative="1" as="geometry">
            <Array as="points">
              <mxPoint x="420" y="445" />
              <mxPoint x="420" y="543" />
            </Array>
          </mxGeometry>
        </mxCell>
        <mxCell id="bBWRpNzCG56Vrc6m6rs4-2115" value="" style="image;sketch=0;aspect=fixed;html=1;points=[];align=center;fontSize=12;image=img/lib/mscae/Data_Catalog.svg;" parent="1" vertex="1">
          <mxGeometry x="450.1" y="410.5" width="65.8" height="70" as="geometry" />
        </mxCell>
        <mxCell id="bBWRpNzCG56Vrc6m6rs4-2116" value="Unity Catalog" style="text;html=1;align=center;verticalAlign=middle;whiteSpace=wrap;rounded=0;" parent="1" vertex="1">
          <mxGeometry x="428.26" y="464" width="96.67" height="54" as="geometry" />
        </mxCell>
        <mxCell id="bBWRpNzCG56Vrc6m6rs4-2117" value="" style="shape=image;verticalLabelPosition=bottom;labelBackgroundColor=#ffffff;verticalAlign=top;aspect=fixed;imageAspect=0;image=data:image/svg+xml,PHN2ZyB4bWxuczpjYz0iaHR0cDovL2NyZWF0aXZlY29tbW9ucy5vcmcvbnMjIiB4bWxuczpkYz0iaHR0cDovL3B1cmwub3JnL2RjL2VsZW1lbnRzLzEuMS8iIHhtbG5zOmlua3NjYXBlPSJodHRwOi8vd3d3Lmlua3NjYXBlLm9yZy9uYW1lc3BhY2VzL2lua3NjYXBlIiB4bWxuczpyZGY9Imh0dHA6Ly93d3cudzMub3JnLzE5OTkvMDIvMjItcmRmLXN5bnRheC1ucyMiIHhtbG5zOnNvZGlwb2RpPSJodHRwOi8vc29kaXBvZGkuc291cmNlZm9yZ2UubmV0L0RURC9zb2RpcG9kaS0wLmR0ZCIgeG1sbnM6c3ZnPSJodHRwOi8vd3d3LnczLm9yZy8yMDAwL3N2ZyIgeG1sbnM9Imh0dHA6Ly93d3cudzMub3JnLzIwMDAvc3ZnIiB4bWxuczp4bGluaz0iaHR0cDovL3d3dy53My5vcmcvMTk5OS94bGluayIgdmVyc2lvbj0iMS4xIiBpZD0ic3ZnOTkwNTgiIGlua3NjYXBlOnZlcnNpb249IjAuOTIuMyAoMjQwNTU0NiwgMjAxOC0wMy0xMSkiIHNvZGlwb2RpOmRvY25hbWU9ImRhdGFiYXNlcy5zdmciIHg9IjBweCIgeT0iMHB4IiB2aWV3Qm94PSIwIDAgNTIuODggNjUuODciIHN0eWxlPSJlbmFibGUtYmFja2dyb3VuZDpuZXcgMCAwIDUyLjg4IDY1Ljg3OyIgeG1sOnNwYWNlPSJwcmVzZXJ2ZSI+JiN4YTs8c29kaXBvZGk6bmFtZWR2aWV3IGJvcmRlcmNvbG9yPSIjNjY2NjY2IiBib3JkZXJvcGFjaXR5PSIxIiBmaXQtbWFyZ2luLWJvdHRvbT0iMCIgZml0LW1hcmdpbi1sZWZ0PSIwIiBmaXQtbWFyZ2luLXJpZ2h0PSIwIiBmaXQtbWFyZ2luLXRvcD0iMCIgZ3JpZHRvbGVyYW5jZT0iMTAiIGd1aWRldG9sZXJhbmNlPSIxMCIgaWQ9Im5hbWVkdmlldzk5MDYwIiBpbmtzY2FwZTpjdXJyZW50LWxheWVyPSJzdmc5OTA1OCIgaW5rc2NhcGU6Y3g9IjM1LjI1IiBpbmtzY2FwZTpjeT0iNDMuOTE1OCIgaW5rc2NhcGU6cGFnZW9wYWNpdHk9IjAiIGlua3NjYXBlOnBhZ2VzaGFkb3c9IjIiIGlua3NjYXBlOndpbmRvdy1oZWlnaHQ9IjEwMTciIGlua3NjYXBlOndpbmRvdy1tYXhpbWl6ZWQ9IjEiIGlua3NjYXBlOndpbmRvdy13aWR0aD0iMTkyMCIgaW5rc2NhcGU6d2luZG93LXg9Ii04IiBpbmtzY2FwZTp3aW5kb3cteT0iLTgiIGlua3NjYXBlOnpvb209IjkuODcyMjY4NSIgb2JqZWN0dG9sZXJhbmNlPSIxMCIgcGFnZWNvbG9yPSIjZmZmZmZmIiBzaG93Z3JpZD0iZmFsc2UiPiYjeGE7CTwvc29kaXBvZGk6bmFtZWR2aWV3PiYjeGE7PGcgaWQ9Imc5OTA1NiIgdHJhbnNmb3JtPSJ0cmFuc2xhdGUoMCwtMC4wMDMyKSI+JiN4YTsJPHRpdGxlIGlkPSJ0aXRsZTk5MDQxIj5QYWdlLTE8L3RpdGxlPiYjeGE7CTxnIGlkPSJncm91cDM1MTAtMSI+JiN4YTsJCTx0aXRsZSBpZD0idGl0bGU5OTA0MyI+RGF0YWJhc2VzPC90aXRsZT4mI3hhOwkJPGcgaWQ9InNoYXBlMzUxMS0yIiB0cmFuc2Zvcm09InRyYW5zbGF0ZSgxLjAyNDcxLC01Ni40NTY4KSI+JiN4YTsJCQk8dGl0bGUgaWQ9InRpdGxlOTkwNDUiPlNoZWV0LjM1MTE8L3RpdGxlPiYjeGE7CQkJPHBhdGggaWQ9InBhdGg5OTA0NyIgaW5rc2NhcGU6Y29ubmVjdG9yLWN1cnZhdHVyZT0iMCIgc3R5bGU9ImZpbGw6IzNGNTc2NTsiIGQ9Ik0wLDYxLjE2YzAtMi41OSwxMS40My00LjcsMjUuNTItNC43ICAgICBjMTQuMSwwLDI1LjUxLDIuMTEsMjUuNTEsNC43YzAsMi42MS0xMS40MSw0LjcxLTI1LjUxLDQuNzFDMTEuNDMsNjUuODcsMCw2My43NywwLDYxLjE2eiIvPiYjeGE7CQk8L2c+JiN4YTsJCTxnIGlkPSJzaGFwZTM1MTItNCI+JiN4YTsJCQk8dGl0bGUgaWQ9InRpdGxlOTkwNTAiPlNoZWV0LjM1MTI8L3RpdGxlPiYjeGE7CQkJPHBhdGggaWQ9InBhdGg5OTA1MiIgaW5rc2NhcGU6Y29ubmVjdG9yLWN1cnZhdHVyZT0iMCIgc3R5bGU9ImZpbGw6IzNGNTc2NTsiIGQ9Ik01Mi44OCwyMC42NWMwLTE0LjMxLDAtMTQuMzEsMC0xNC4zMSAgICAgYy0zLjUzLDMuMjktMTYuOTYsNC41Ny0yNi40NCw0LjU3Yy05LjQ3LDAtMjIuOS0xLjI4LTI2LjQ0LTQuNTdjMCwxNC4zMSwwLDE0LjMxLDAsMTQuMzFjMCwwLjY0LDAuNTUsMS4yNiwxLjY1LDEuOSAgICAgQzAuNTUsMjMuMDgsMCwyMy43MiwwLDI0LjM1YzAsMTYuMSwwLDE2LjEsMCwxNi4xYzAsMC43NCwwLjU1LDEuMzgsMS42NSwxLjkxQzAuNTUsNDIuOTksMCw0My41MiwwLDQ0LjI2ICAgICBjMCwxNi4xMSwwLDE2LjExLDAsMTYuMTFjMCwyLjk2LDExLjksNS41LDI2LjQ0LDUuNWMxNC42NSwwLDI2LjQ0LTIuNTQsMjYuNDQtNS41YzAtMTYuMTEsMC0xNi4xMSwwLTE2LjExICAgICBjMC0wLjc0LTAuNTYtMS4yNy0xLjU0LTEuOWMwLjk4LTAuNTMsMS41NC0xLjE3LDEuNTQtMS45MWMwLTE2LjEsMC0xNi4xLDAtMTYuMWMwLTAuNjMtMC41Ni0xLjI3LTEuNTQtMS44ICAgICBDNTIuMzIsMjEuOTEsNTIuODgsMjEuMjksNTIuODgsMjAuNjV6IE01MC40NSw0My42M2MwLDEuNjktMTAuNjgsMi45Ny0yNC4wMSwyLjk3Yy0xMy4yMiwwLTIzLjktMS4yOC0yMy45LTIuOTcgICAgIGMwLTIuMDIsMC0yLjAyLDAtMi4wMmMwLDEuNywxMC42OCwyLjk3LDIzLjksMi45N2MxMy4zMywwLDI0LjAxLTEuMjcsMjQuMDEtMi45N1Y0My42M3ogTTUwLjQ1LDIzLjkzICAgICBjMCwxLjY5LTEwLjY4LDMuMDctMjQuMDEsMy4wN2MtMTMuMjIsMC0yMy45LTEuMzgtMjMuOS0zLjA3YzAtMi4wMiwwLTIuMDIsMC0yLjAyYzAsMS43LDEwLjY4LDMuMDgsMjMuOSwzLjA4ICAgICBjMTMuMzMsMCwyNC4wMS0xLjM4LDI0LjAxLTMuMDhMNTAuNDUsMjMuOTN6Ii8+JiN4YTsJCTwvZz4mI3hhOwk8L2c+JiN4YTs8L2c+JiN4YTs8L3N2Zz4=;" parent="1" vertex="1">
          <mxGeometry x="454" y="510" width="53" height="66" as="geometry" />
        </mxCell>
        <mxCell id="bBWRpNzCG56Vrc6m6rs4-2118" value="Bronze Schema" style="text;html=1;align=center;verticalAlign=middle;whiteSpace=wrap;rounded=0;" parent="1" vertex="1">
          <mxGeometry x="432.15999999999997" y="566" width="96.67" height="54" as="geometry" />
        </mxCell>
        <mxCell id="bBWRpNzCG56Vrc6m6rs4-2121" value="" style="edgeStyle=orthogonalEdgeStyle;rounded=0;orthogonalLoop=1;jettySize=auto;html=1;entryX=0;entryY=0.5;entryDx=0;entryDy=0;entryPerimeter=0;" parent="1" target="2053" edge="1">
          <mxGeometry relative="1" as="geometry">
            <mxPoint x="450" y="553" as="sourcePoint" />
            <mxPoint x="454" y="651" as="targetPoint" />
            <Array as="points">
              <mxPoint x="420" y="553" />
              <mxPoint x="420" y="630" />
              <mxPoint x="455" y="630" />
            </Array>
          </mxGeometry>
        </mxCell>
        <mxCell id="bBWRpNzCG56Vrc6m6rs4-2123" value="" style="shape=image;verticalLabelPosition=bottom;labelBackgroundColor=#ffffff;verticalAlign=top;aspect=fixed;imageAspect=0;image=data:image/svg+xml,PHN2ZyB4bWxuczpkYz0iaHR0cDovL3B1cmwub3JnL2RjL2VsZW1lbnRzLzEuMS8iIHhtbG5zOmNjPSJodHRwOi8vY3JlYXRpdmVjb21tb25zLm9yZy9ucyMiIHhtbG5zOnJkZj0iaHR0cDovL3d3dy53My5vcmcvMTk5OS8wMi8yMi1yZGYtc3ludGF4LW5zIyIgeG1sbnM6c3ZnPSJodHRwOi8vd3d3LnczLm9yZy8yMDAwL3N2ZyIgeG1sbnM9Imh0dHA6Ly93d3cudzMub3JnLzIwMDAvc3ZnIiB4bWxuczpzb2RpcG9kaT0iaHR0cDovL3NvZGlwb2RpLnNvdXJjZWZvcmdlLm5ldC9EVEQvc29kaXBvZGktMC5kdGQiIHhtbG5zOmlua3NjYXBlPSJodHRwOi8vd3d3Lmlua3NjYXBlLm9yZy9uYW1lc3BhY2VzL2lua3NjYXBlIiB2ZXJzaW9uPSIxLjEiIGlkPSJzdmc3NjkyMyIgaW5rc2NhcGU6dmVyc2lvbj0iMC45Mi4zICgyNDA1NTQ2LCAyMDE4LTAzLTExKSIgc29kaXBvZGk6ZG9jbmFtZT0iZGF0YV9sYWtlLnN2ZyIgeD0iMHB4IiB5PSIwcHgiIHZpZXdCb3g9IjAgMCA1My43OCA3MS4xMyIgeG1sOnNwYWNlPSJwcmVzZXJ2ZSIgd2lkdGg9IjUzLjc3OTk5OSIgaGVpZ2h0PSI3MS4xMjk5OTciPjxtZXRhZGF0YSBpZD0ibWV0YWRhdGEyMjgyMyI+PHJkZjpSREY+PGNjOldvcmsgcmRmOmFib3V0PSIiPjxkYzpmb3JtYXQ+aW1hZ2Uvc3ZnK3htbDwvZGM6Zm9ybWF0PjxkYzp0eXBlIHJkZjpyZXNvdXJjZT0iaHR0cDovL3B1cmwub3JnL2RjL2RjbWl0eXBlL1N0aWxsSW1hZ2UiLz48ZGM6dGl0bGUvPjwvY2M6V29yaz48L3JkZjpSREY+PC9tZXRhZGF0YT48ZGVmcyBpZD0iZGVmczIyODIxIi8+JiN4YTs8ZmlsdGVyIGlkPSJmaWx0ZXJfMiI+JiN4YTsJPGZlR2F1c3NpYW5CbHVyIGlkPSJmZUdhdXNzaWFuQmx1cjc2ODMwIiBzdGREZXZpYXRpb249IjIiLz4mI3hhOzwvZmlsdGVyPiYjeGE7PHNvZGlwb2RpOm5hbWVkdmlldyBib3JkZXJjb2xvcj0iIzY2NjY2NiIgYm9yZGVyb3BhY2l0eT0iMSIgZml0LW1hcmdpbi1ib3R0b209IjAiIGZpdC1tYXJnaW4tbGVmdD0iMCIgZml0LW1hcmdpbi1yaWdodD0iMCIgZml0LW1hcmdpbi10b3A9IjAiIGdyaWR0b2xlcmFuY2U9IjEwIiBndWlkZXRvbGVyYW5jZT0iMTAiIGlkPSJuYW1lZHZpZXc3NjkyNSIgaW5rc2NhcGU6Y3VycmVudC1sYXllcj0ic3ZnNzY5MjMiIGlua3NjYXBlOmN4PSItNTUuMzI3MzQ3IiBpbmtzY2FwZTpjeT0iNDcuNzkxMTMzIiBpbmtzY2FwZTpwYWdlb3BhY2l0eT0iMCIgaW5rc2NhcGU6cGFnZXNoYWRvdz0iMiIgaW5rc2NhcGU6d2luZG93LWhlaWdodD0iMTAxNyIgaW5rc2NhcGU6d2luZG93LW1heGltaXplZD0iMSIgaW5rc2NhcGU6d2luZG93LXdpZHRoPSIxOTIwIiBpbmtzY2FwZTp3aW5kb3cteD0iLTgiIGlua3NjYXBlOndpbmRvdy15PSItOCIgaW5rc2NhcGU6em9vbT0iNC44MDg5OTYiIG9iamVjdHRvbGVyYW5jZT0iMTAiIHBhZ2Vjb2xvcj0iI2ZmZmZmZiIgc2hvd2dyaWQ9ImZhbHNlIj4mI3hhOwk8L3NvZGlwb2RpOm5hbWVkdmlldz4mI3hhOyYjeGE7PHBhdGggaWQ9InBhdGg3Njg0NSIgaW5rc2NhcGU6Y29ubmVjdG9yLWN1cnZhdHVyZT0iMCIgc3R5bGU9ImZpbGw6IzNlM2UzZSIgZD0ibSAwLDkuNjggdiA1MS42NCBjIDAsNS40IDExLjk1LDkuNjcgMjYuODksOS42NyBWIDkuNjggWiIvPiYjeGE7JiN4YTs8cGF0aCBpZD0icGF0aDc2ODUzIiBpbmtzY2FwZTpjb25uZWN0b3ItY3VydmF0dXJlPSIwIiBzdHlsZT0iZmlsbDojYTBhMWEyIiBkPSJtIDI2LjQ2LDcxLjEzIGggMC40MyBjIDE0Ljc5LDAgMjYuODgsLTQuNDEgMjYuODgsLTkuNjcgViA5LjY3IEggMjYuNDYgWiIvPiYjeGE7JiN4YTs8cGF0aCBpZD0icGF0aDc2ODYxIiBpbmtzY2FwZTpjb25uZWN0b3ItY3VydmF0dXJlPSIwIiBzdHlsZT0iZmlsbDojZmZmZmZmIiBkPSJtIDUzLjc4LDkuNjggYyAwLDUuNCAtMTEuOTUsOS42NyAtMjYuODksOS42NyBDIDExLjk1LDE5LjM1IDAsMTUuMDggMCw5LjY4IDAsNC40MSAxMi4wOSwwIDI2Ljg5LDAgNDEuNjgsMCA1My43OCw0LjQxIDUzLjc4LDkuNjggWiIvPiYjeGE7JiN4YTs8cGF0aCBpZD0icGF0aDc2ODY5IiBpbmtzY2FwZTpjb25uZWN0b3ItY3VydmF0dXJlPSIwIiBzdHlsZT0iZmlsbDojN2ZiYTAwIiBkPSJtIDQ4LjIzLDkuMTEgYyAwLDMuNTYgLTkuNTMsNi40IC0yMS4zNCw2LjQgLTExLjgxLDAgLTIxLjM0LC0yLjg0IC0yMS4zNCwtNi40IDAsLTMuNTYgOS41MywtNi40IDIxLjM0LC02LjQgMTEuODEsMCAyMS4zNCwyLjg0IDIxLjM0LDYuNCB6Ii8+JiN4YTsmI3hhOzxwYXRoIGlkPSJwYXRoNzY4NzciIGlua3NjYXBlOmNvbm5lY3Rvci1jdXJ2YXR1cmU9IjAiIHN0eWxlPSJmaWxsOiNiOGQ0MzIiIGQ9Im0gNDMuODIsMTMuMDkgYyAyLjg0LC0xLjE0IDQuNDEsLTIuNDIgNC40MSwtMy45OCAwLC0zLjU2IC05LjUzLC02LjQgLTIxLjM0LC02LjQgLTExLjgxLDAgLTIxLjM0LDIuODQgLTIxLjM0LDYuNCAwLDEuNDIgMS43MSwyLjg0IDQuNDEsMy45OCAzLjg0LC0xLjU2IDkuOTYsLTIuNTYgMTYuOTMsLTIuNTYgNi44MywwIDEyLjk1LDEgMTYuOTMsMi41NiB6Ii8+JiN4YTsmI3hhOzxwYXRoIGlkPSJwYXRoNzY4ODgiIGlua3NjYXBlOmNvbm5lY3Rvci1jdXJ2YXR1cmU9IjAiIHN0eWxlPSJmaWxsOiMzOTk5YzYiIGQ9Ik0gMjYuNDYsNzEuMTMgViA0NS41MiBjIC0zLjk4LDAgLTcuNCwtMi4xMyAtOS4zOSwtNS4yNiAtMS45OSwzLjEzIC01LjI2LDUuMjYgLTkuMjUsNS4yNiAtMy4xMywwIC01LjgzLC0xLjI4IC03LjgyLC0zLjQxIHYgMTkuMzUgYyAwLDUuMjYgMTEuODEsOS41MyAyNi40Niw5LjY3IHoiLz4mI3hhOzxnIGlkPSJzaGFkb3c1MTA2LTM1IiB0cmFuc2Zvcm09InRyYW5zbGF0ZSgtNTIuNzY2OCwtMjIuNTAzNzU0KSI+JiN4YTs8L2c+JiN4YTsmI3hhOyYjeGE7JiN4YTs8cGF0aCBpZD0icGF0aDc2OTA4IiBpbmtzY2FwZTpjb25uZWN0b3ItY3VydmF0dXJlPSIwIiBzdHlsZT0iZmlsbDojNTliNGQ5IiBkPSJtIDQ1LjUzLDQ1LjUyIGMgLTMuOTgsMCAtNy41NCwtMi4xMyAtOS41MywtNS4yNiAtMS44NSwzLjEzIC01LjI3LDUuMTIgLTkuMjUsNS4yNiB2IDI1LjYxIGMgMTQuOCwwIDI2Ljg5LC00LjQxIDI2Ljg5LC05LjY3IFYgNDEuOTcgYyAtMS45OSwyLjEzIC00Ljg0LDMuNTUgLTguMTEsMy41NSB6Ii8+JiN4YTsmI3hhOyYjeGE7PC9zdmc+;" parent="1" vertex="1">
          <mxGeometry x="458.50000000000006" y="697" width="43" height="56" as="geometry" />
        </mxCell>
        <mxCell id="bBWRpNzCG56Vrc6m6rs4-2128" value="" style="arrow;html=1;endArrow=block;endFill=1;strokeColor=none;strokeWidth=4;fontFamily=Helvetica;fontSize=36;fontColor=#FFB366;fillColor=#FFB366;opacity=100;entryX=0;entryY=0.5;entryDx=0;entryDy=0;" parent="1" target="bBWRpNzCG56Vrc6m6rs4-2123" edge="1">
          <mxGeometry width="100" height="100" relative="1" as="geometry">
            <mxPoint x="360" y="725" as="sourcePoint" />
            <mxPoint x="373" y="746.19" as="targetPoint" />
            <Array as="points">
              <mxPoint x="326" y="746.19" />
              <mxPoint x="340" y="765.19" />
            </Array>
          </mxGeometry>
        </mxCell>
        <mxCell id="bBWRpNzCG56Vrc6m6rs4-2129" value="Bronze Lake&amp;nbsp;&lt;div&gt;Container&lt;/div&gt;" style="text;html=1;align=center;verticalAlign=middle;whiteSpace=wrap;rounded=0;" parent="1" vertex="1">
          <mxGeometry x="428.25999999999993" y="743" width="96.67" height="54" as="geometry" />
        </mxCell>
        <mxCell id="bBWRpNzCG56Vrc6m6rs4-2131" value="" style="image;aspect=fixed;html=1;points=[];align=center;fontSize=12;image=img/lib/azure2/analytics/Azure_Databricks.svg;" parent="1" vertex="1">
          <mxGeometry x="631.1999999999999" y="250" width="62.8" height="68" as="geometry" />
        </mxCell>
        <mxCell id="bBWRpNzCG56Vrc6m6rs4-2132" value="Azure&amp;nbsp;&lt;div&gt;Databricks&amp;nbsp;&lt;/div&gt;" style="text;html=1;align=center;verticalAlign=middle;whiteSpace=wrap;rounded=0;" parent="1" vertex="1">
          <mxGeometry x="614.26" y="311" width="96.67" height="54" as="geometry" />
        </mxCell>
        <mxCell id="bBWRpNzCG56Vrc6m6rs4-2133" value="Unity Catalog" style="rounded=1;whiteSpace=wrap;html=1;dashed=1;strokeColor=none;strokeWidth=2;fillColor=#FFFFFF;fontFamily=Helvetica;fontSize=14;fontColor=#FFB366;opacity=75;verticalAlign=top;fontStyle=1" parent="1" vertex="1">
          <mxGeometry x="592.5" y="399" width="140" height="201" as="geometry" />
        </mxCell>
        <mxCell id="bBWRpNzCG56Vrc6m6rs4-2134" value="" style="shape=image;verticalLabelPosition=bottom;labelBackgroundColor=#ffffff;verticalAlign=top;aspect=fixed;imageAspect=0;image=data:image/svg+xml,PHN2ZyB4bWxuczpjYz0iaHR0cDovL2NyZWF0aXZlY29tbW9ucy5vcmcvbnMjIiB4bWxuczpkYz0iaHR0cDovL3B1cmwub3JnL2RjL2VsZW1lbnRzLzEuMS8iIHhtbG5zOmlua3NjYXBlPSJodHRwOi8vd3d3Lmlua3NjYXBlLm9yZy9uYW1lc3BhY2VzL2lua3NjYXBlIiB4bWxuczpyZGY9Imh0dHA6Ly93d3cudzMub3JnLzE5OTkvMDIvMjItcmRmLXN5bnRheC1ucyMiIHhtbG5zOnNvZGlwb2RpPSJodHRwOi8vc29kaXBvZGkuc291cmNlZm9yZ2UubmV0L0RURC9zb2RpcG9kaS0wLmR0ZCIgeG1sbnM6c3ZnPSJodHRwOi8vd3d3LnczLm9yZy8yMDAwL3N2ZyIgeG1sbnM9Imh0dHA6Ly93d3cudzMub3JnLzIwMDAvc3ZnIiB4bWxuczp4bGluaz0iaHR0cDovL3d3dy53My5vcmcvMTk5OS94bGluayIgdmVyc2lvbj0iMS4xIiBpZD0ic3ZnOTkwNTgiIGlua3NjYXBlOnZlcnNpb249IjAuOTIuMyAoMjQwNTU0NiwgMjAxOC0wMy0xMSkiIHNvZGlwb2RpOmRvY25hbWU9ImRhdGFiYXNlcy5zdmciIHg9IjBweCIgeT0iMHB4IiB2aWV3Qm94PSIwIDAgNTIuODggNjUuODciIHN0eWxlPSJlbmFibGUtYmFja2dyb3VuZDpuZXcgMCAwIDUyLjg4IDY1Ljg3OyIgeG1sOnNwYWNlPSJwcmVzZXJ2ZSI+JiN4YTs8c29kaXBvZGk6bmFtZWR2aWV3IGJvcmRlcmNvbG9yPSIjNjY2NjY2IiBib3JkZXJvcGFjaXR5PSIxIiBmaXQtbWFyZ2luLWJvdHRvbT0iMCIgZml0LW1hcmdpbi1sZWZ0PSIwIiBmaXQtbWFyZ2luLXJpZ2h0PSIwIiBmaXQtbWFyZ2luLXRvcD0iMCIgZ3JpZHRvbGVyYW5jZT0iMTAiIGd1aWRldG9sZXJhbmNlPSIxMCIgaWQ9Im5hbWVkdmlldzk5MDYwIiBpbmtzY2FwZTpjdXJyZW50LWxheWVyPSJzdmc5OTA1OCIgaW5rc2NhcGU6Y3g9IjM1LjI1IiBpbmtzY2FwZTpjeT0iNDMuOTE1OCIgaW5rc2NhcGU6cGFnZW9wYWNpdHk9IjAiIGlua3NjYXBlOnBhZ2VzaGFkb3c9IjIiIGlua3NjYXBlOndpbmRvdy1oZWlnaHQ9IjEwMTciIGlua3NjYXBlOndpbmRvdy1tYXhpbWl6ZWQ9IjEiIGlua3NjYXBlOndpbmRvdy13aWR0aD0iMTkyMCIgaW5rc2NhcGU6d2luZG93LXg9Ii04IiBpbmtzY2FwZTp3aW5kb3cteT0iLTgiIGlua3NjYXBlOnpvb209IjkuODcyMjY4NSIgb2JqZWN0dG9sZXJhbmNlPSIxMCIgcGFnZWNvbG9yPSIjZmZmZmZmIiBzaG93Z3JpZD0iZmFsc2UiPiYjeGE7CTwvc29kaXBvZGk6bmFtZWR2aWV3PiYjeGE7PGcgaWQ9Imc5OTA1NiIgdHJhbnNmb3JtPSJ0cmFuc2xhdGUoMCwtMC4wMDMyKSI+JiN4YTsJPHRpdGxlIGlkPSJ0aXRsZTk5MDQxIj5QYWdlLTE8L3RpdGxlPiYjeGE7CTxnIGlkPSJncm91cDM1MTAtMSI+JiN4YTsJCTx0aXRsZSBpZD0idGl0bGU5OTA0MyI+RGF0YWJhc2VzPC90aXRsZT4mI3hhOwkJPGcgaWQ9InNoYXBlMzUxMS0yIiB0cmFuc2Zvcm09InRyYW5zbGF0ZSgxLjAyNDcxLC01Ni40NTY4KSI+JiN4YTsJCQk8dGl0bGUgaWQ9InRpdGxlOTkwNDUiPlNoZWV0LjM1MTE8L3RpdGxlPiYjeGE7CQkJPHBhdGggaWQ9InBhdGg5OTA0NyIgaW5rc2NhcGU6Y29ubmVjdG9yLWN1cnZhdHVyZT0iMCIgc3R5bGU9ImZpbGw6IzNGNTc2NTsiIGQ9Ik0wLDYxLjE2YzAtMi41OSwxMS40My00LjcsMjUuNTItNC43ICAgICBjMTQuMSwwLDI1LjUxLDIuMTEsMjUuNTEsNC43YzAsMi42MS0xMS40MSw0LjcxLTI1LjUxLDQuNzFDMTEuNDMsNjUuODcsMCw2My43NywwLDYxLjE2eiIvPiYjeGE7CQk8L2c+JiN4YTsJCTxnIGlkPSJzaGFwZTM1MTItNCI+JiN4YTsJCQk8dGl0bGUgaWQ9InRpdGxlOTkwNTAiPlNoZWV0LjM1MTI8L3RpdGxlPiYjeGE7CQkJPHBhdGggaWQ9InBhdGg5OTA1MiIgaW5rc2NhcGU6Y29ubmVjdG9yLWN1cnZhdHVyZT0iMCIgc3R5bGU9ImZpbGw6IzNGNTc2NTsiIGQ9Ik01Mi44OCwyMC42NWMwLTE0LjMxLDAtMTQuMzEsMC0xNC4zMSAgICAgYy0zLjUzLDMuMjktMTYuOTYsNC41Ny0yNi40NCw0LjU3Yy05LjQ3LDAtMjIuOS0xLjI4LTI2LjQ0LTQuNTdjMCwxNC4zMSwwLDE0LjMxLDAsMTQuMzFjMCwwLjY0LDAuNTUsMS4yNiwxLjY1LDEuOSAgICAgQzAuNTUsMjMuMDgsMCwyMy43MiwwLDI0LjM1YzAsMTYuMSwwLDE2LjEsMCwxNi4xYzAsMC43NCwwLjU1LDEuMzgsMS42NSwxLjkxQzAuNTUsNDIuOTksMCw0My41MiwwLDQ0LjI2ICAgICBjMCwxNi4xMSwwLDE2LjExLDAsMTYuMTFjMCwyLjk2LDExLjksNS41LDI2LjQ0LDUuNWMxNC42NSwwLDI2LjQ0LTIuNTQsMjYuNDQtNS41YzAtMTYuMTEsMC0xNi4xMSwwLTE2LjExICAgICBjMC0wLjc0LTAuNTYtMS4yNy0xLjU0LTEuOWMwLjk4LTAuNTMsMS41NC0xLjE3LDEuNTQtMS45MWMwLTE2LjEsMC0xNi4xLDAtMTYuMWMwLTAuNjMtMC41Ni0xLjI3LTEuNTQtMS44ICAgICBDNTIuMzIsMjEuOTEsNTIuODgsMjEuMjksNTIuODgsMjAuNjV6IE01MC40NSw0My42M2MwLDEuNjktMTAuNjgsMi45Ny0yNC4wMSwyLjk3Yy0xMy4yMiwwLTIzLjktMS4yOC0yMy45LTIuOTcgICAgIGMwLTIuMDIsMC0yLjAyLDAtMi4wMmMwLDEuNywxMC42OCwyLjk3LDIzLjksMi45N2MxMy4zMywwLDI0LjAxLTEuMjcsMjQuMDEtMi45N1Y0My42M3ogTTUwLjQ1LDIzLjkzICAgICBjMCwxLjY5LTEwLjY4LDMuMDctMjQuMDEsMy4wN2MtMTMuMjIsMC0yMy45LTEuMzgtMjMuOS0zLjA3YzAtMi4wMiwwLTIuMDIsMC0yLjAyYzAsMS43LDEwLjY4LDMuMDgsMjMuOSwzLjA4ICAgICBjMTMuMzMsMCwyNC4wMS0xLjM4LDI0LjAxLTMuMDhMNTAuNDUsMjMuOTN6Ii8+JiN4YTsJCTwvZz4mI3hhOwk8L2c+JiN4YTs8L2c+JiN4YTs8L3N2Zz4=;" parent="1" vertex="1">
          <mxGeometry x="636.01" y="430" width="53" height="66" as="geometry" />
        </mxCell>
        <mxCell id="bBWRpNzCG56Vrc6m6rs4-2135" value="Silver Schema" style="text;html=1;align=center;verticalAlign=middle;whiteSpace=wrap;rounded=0;" parent="1" vertex="1">
          <mxGeometry x="614.1700000000001" y="480" width="96.67" height="60" as="geometry" />
        </mxCell>
        <mxCell id="bBWRpNzCG56Vrc6m6rs4-2137" value="Tables" style="verticalLabelPosition=bottom;html=1;verticalAlign=top;strokeColor=none;fillColor=#3399FF;shape=mxgraph.azure.storage_table;dashed=1;fontFamily=Helvetica;fontSize=14;fontColor=#004C99" parent="1" vertex="1">
          <mxGeometry x="639" y="525" width="50" height="45" as="geometry" />
        </mxCell>
        <mxCell id="bBWRpNzCG56Vrc6m6rs4-2138" value="DATA STORAGE" style="rounded=1;whiteSpace=wrap;html=1;dashed=1;strokeColor=none;strokeWidth=2;fillColor=#FFFFFF;fontFamily=Helvetica;fontSize=14;fontColor=#FFB366;opacity=75;verticalAlign=top;fontStyle=1" parent="1" vertex="1">
          <mxGeometry x="594" y="617" width="140" height="163" as="geometry" />
        </mxCell>
        <mxCell id="bBWRpNzCG56Vrc6m6rs4-2139" value="" style="arrow;html=1;endArrow=block;endFill=1;strokeColor=none;strokeWidth=4;fontFamily=Helvetica;fontSize=36;fontColor=#FFB366;fillColor=#FFB366;" parent="1" edge="1">
          <mxGeometry width="100" height="100" relative="1" as="geometry">
            <mxPoint x="519" y="729" as="sourcePoint" />
            <mxPoint x="599" y="729" as="targetPoint" />
          </mxGeometry>
        </mxCell>
        <mxCell id="bBWRpNzCG56Vrc6m6rs4-2141" value="" style="shape=image;verticalLabelPosition=bottom;labelBackgroundColor=#ffffff;verticalAlign=top;aspect=fixed;imageAspect=0;image=data:image/svg+xml,PHN2ZyB4bWxuczpkYz0iaHR0cDovL3B1cmwub3JnL2RjL2VsZW1lbnRzLzEuMS8iIHhtbG5zOmNjPSJodHRwOi8vY3JlYXRpdmVjb21tb25zLm9yZy9ucyMiIHhtbG5zOnJkZj0iaHR0cDovL3d3dy53My5vcmcvMTk5OS8wMi8yMi1yZGYtc3ludGF4LW5zIyIgeG1sbnM6c3ZnPSJodHRwOi8vd3d3LnczLm9yZy8yMDAwL3N2ZyIgeG1sbnM9Imh0dHA6Ly93d3cudzMub3JnLzIwMDAvc3ZnIiB4bWxuczpzb2RpcG9kaT0iaHR0cDovL3NvZGlwb2RpLnNvdXJjZWZvcmdlLm5ldC9EVEQvc29kaXBvZGktMC5kdGQiIHhtbG5zOmlua3NjYXBlPSJodHRwOi8vd3d3Lmlua3NjYXBlLm9yZy9uYW1lc3BhY2VzL2lua3NjYXBlIiB2ZXJzaW9uPSIxLjEiIGlkPSJzdmc3NjkyMyIgaW5rc2NhcGU6dmVyc2lvbj0iMC45Mi4zICgyNDA1NTQ2LCAyMDE4LTAzLTExKSIgc29kaXBvZGk6ZG9jbmFtZT0iZGF0YV9sYWtlLnN2ZyIgeD0iMHB4IiB5PSIwcHgiIHZpZXdCb3g9IjAgMCA1My43OCA3MS4xMyIgeG1sOnNwYWNlPSJwcmVzZXJ2ZSIgd2lkdGg9IjUzLjc3OTk5OSIgaGVpZ2h0PSI3MS4xMjk5OTciPjxtZXRhZGF0YSBpZD0ibWV0YWRhdGEyMjgyMyI+PHJkZjpSREY+PGNjOldvcmsgcmRmOmFib3V0PSIiPjxkYzpmb3JtYXQ+aW1hZ2Uvc3ZnK3htbDwvZGM6Zm9ybWF0PjxkYzp0eXBlIHJkZjpyZXNvdXJjZT0iaHR0cDovL3B1cmwub3JnL2RjL2RjbWl0eXBlL1N0aWxsSW1hZ2UiLz48ZGM6dGl0bGUvPjwvY2M6V29yaz48L3JkZjpSREY+PC9tZXRhZGF0YT48ZGVmcyBpZD0iZGVmczIyODIxIi8+JiN4YTs8ZmlsdGVyIGlkPSJmaWx0ZXJfMiI+JiN4YTsJPGZlR2F1c3NpYW5CbHVyIGlkPSJmZUdhdXNzaWFuQmx1cjc2ODMwIiBzdGREZXZpYXRpb249IjIiLz4mI3hhOzwvZmlsdGVyPiYjeGE7PHNvZGlwb2RpOm5hbWVkdmlldyBib3JkZXJjb2xvcj0iIzY2NjY2NiIgYm9yZGVyb3BhY2l0eT0iMSIgZml0LW1hcmdpbi1ib3R0b209IjAiIGZpdC1tYXJnaW4tbGVmdD0iMCIgZml0LW1hcmdpbi1yaWdodD0iMCIgZml0LW1hcmdpbi10b3A9IjAiIGdyaWR0b2xlcmFuY2U9IjEwIiBndWlkZXRvbGVyYW5jZT0iMTAiIGlkPSJuYW1lZHZpZXc3NjkyNSIgaW5rc2NhcGU6Y3VycmVudC1sYXllcj0ic3ZnNzY5MjMiIGlua3NjYXBlOmN4PSItNTUuMzI3MzQ3IiBpbmtzY2FwZTpjeT0iNDcuNzkxMTMzIiBpbmtzY2FwZTpwYWdlb3BhY2l0eT0iMCIgaW5rc2NhcGU6cGFnZXNoYWRvdz0iMiIgaW5rc2NhcGU6d2luZG93LWhlaWdodD0iMTAxNyIgaW5rc2NhcGU6d2luZG93LW1heGltaXplZD0iMSIgaW5rc2NhcGU6d2luZG93LXdpZHRoPSIxOTIwIiBpbmtzY2FwZTp3aW5kb3cteD0iLTgiIGlua3NjYXBlOndpbmRvdy15PSItOCIgaW5rc2NhcGU6em9vbT0iNC44MDg5OTYiIG9iamVjdHRvbGVyYW5jZT0iMTAiIHBhZ2Vjb2xvcj0iI2ZmZmZmZiIgc2hvd2dyaWQ9ImZhbHNlIj4mI3hhOwk8L3NvZGlwb2RpOm5hbWVkdmlldz4mI3hhOyYjeGE7PHBhdGggaWQ9InBhdGg3Njg0NSIgaW5rc2NhcGU6Y29ubmVjdG9yLWN1cnZhdHVyZT0iMCIgc3R5bGU9ImZpbGw6IzNlM2UzZSIgZD0ibSAwLDkuNjggdiA1MS42NCBjIDAsNS40IDExLjk1LDkuNjcgMjYuODksOS42NyBWIDkuNjggWiIvPiYjeGE7JiN4YTs8cGF0aCBpZD0icGF0aDc2ODUzIiBpbmtzY2FwZTpjb25uZWN0b3ItY3VydmF0dXJlPSIwIiBzdHlsZT0iZmlsbDojYTBhMWEyIiBkPSJtIDI2LjQ2LDcxLjEzIGggMC40MyBjIDE0Ljc5LDAgMjYuODgsLTQuNDEgMjYuODgsLTkuNjcgViA5LjY3IEggMjYuNDYgWiIvPiYjeGE7JiN4YTs8cGF0aCBpZD0icGF0aDc2ODYxIiBpbmtzY2FwZTpjb25uZWN0b3ItY3VydmF0dXJlPSIwIiBzdHlsZT0iZmlsbDojZmZmZmZmIiBkPSJtIDUzLjc4LDkuNjggYyAwLDUuNCAtMTEuOTUsOS42NyAtMjYuODksOS42NyBDIDExLjk1LDE5LjM1IDAsMTUuMDggMCw5LjY4IDAsNC40MSAxMi4wOSwwIDI2Ljg5LDAgNDEuNjgsMCA1My43OCw0LjQxIDUzLjc4LDkuNjggWiIvPiYjeGE7JiN4YTs8cGF0aCBpZD0icGF0aDc2ODY5IiBpbmtzY2FwZTpjb25uZWN0b3ItY3VydmF0dXJlPSIwIiBzdHlsZT0iZmlsbDojN2ZiYTAwIiBkPSJtIDQ4LjIzLDkuMTEgYyAwLDMuNTYgLTkuNTMsNi40IC0yMS4zNCw2LjQgLTExLjgxLDAgLTIxLjM0LC0yLjg0IC0yMS4zNCwtNi40IDAsLTMuNTYgOS41MywtNi40IDIxLjM0LC02LjQgMTEuODEsMCAyMS4zNCwyLjg0IDIxLjM0LDYuNCB6Ii8+JiN4YTsmI3hhOzxwYXRoIGlkPSJwYXRoNzY4NzciIGlua3NjYXBlOmNvbm5lY3Rvci1jdXJ2YXR1cmU9IjAiIHN0eWxlPSJmaWxsOiNiOGQ0MzIiIGQ9Im0gNDMuODIsMTMuMDkgYyAyLjg0LC0xLjE0IDQuNDEsLTIuNDIgNC40MSwtMy45OCAwLC0zLjU2IC05LjUzLC02LjQgLTIxLjM0LC02LjQgLTExLjgxLDAgLTIxLjM0LDIuODQgLTIxLjM0LDYuNCAwLDEuNDIgMS43MSwyLjg0IDQuNDEsMy45OCAzLjg0LC0xLjU2IDkuOTYsLTIuNTYgMTYuOTMsLTIuNTYgNi44MywwIDEyLjk1LDEgMTYuOTMsMi41NiB6Ii8+JiN4YTsmI3hhOzxwYXRoIGlkPSJwYXRoNzY4ODgiIGlua3NjYXBlOmNvbm5lY3Rvci1jdXJ2YXR1cmU9IjAiIHN0eWxlPSJmaWxsOiMzOTk5YzYiIGQ9Ik0gMjYuNDYsNzEuMTMgViA0NS41MiBjIC0zLjk4LDAgLTcuNCwtMi4xMyAtOS4zOSwtNS4yNiAtMS45OSwzLjEzIC01LjI2LDUuMjYgLTkuMjUsNS4yNiAtMy4xMywwIC01LjgzLC0xLjI4IC03LjgyLC0zLjQxIHYgMTkuMzUgYyAwLDUuMjYgMTEuODEsOS41MyAyNi40Niw5LjY3IHoiLz4mI3hhOzxnIGlkPSJzaGFkb3c1MTA2LTM1IiB0cmFuc2Zvcm09InRyYW5zbGF0ZSgtNTIuNzY2OCwtMjIuNTAzNzU0KSI+JiN4YTs8L2c+JiN4YTsmI3hhOyYjeGE7JiN4YTs8cGF0aCBpZD0icGF0aDc2OTA4IiBpbmtzY2FwZTpjb25uZWN0b3ItY3VydmF0dXJlPSIwIiBzdHlsZT0iZmlsbDojNTliNGQ5IiBkPSJtIDQ1LjUzLDQ1LjUyIGMgLTMuOTgsMCAtNy41NCwtMi4xMyAtOS41MywtNS4yNiAtMS44NSwzLjEzIC01LjI3LDUuMTIgLTkuMjUsNS4yNiB2IDI1LjYxIGMgMTQuOCwwIDI2Ljg5LC00LjQxIDI2Ljg5LC05LjY3IFYgNDEuOTcgYyAtMS45OSwyLjEzIC00Ljg0LDMuNTUgLTguMTEsMy41NSB6Ii8+JiN4YTsmI3hhOyYjeGE7PC9zdmc+;" parent="1" vertex="1">
          <mxGeometry x="640.5" y="656" width="43" height="56" as="geometry" />
        </mxCell>
        <mxCell id="bBWRpNzCG56Vrc6m6rs4-2142" value="Silver Layer&amp;nbsp;&lt;div&gt;Container&lt;/div&gt;" style="text;html=1;align=center;verticalAlign=middle;whiteSpace=wrap;rounded=0;" parent="1" vertex="1">
          <mxGeometry x="613.67" y="712" width="96.67" height="54" as="geometry" />
        </mxCell>
        <mxCell id="bBWRpNzCG56Vrc6m6rs4-2143" value="" style="arrow;html=1;endArrow=block;endFill=1;strokeColor=none;strokeWidth=4;fontFamily=Helvetica;fontSize=36;fontColor=#FFB366;fillColor=#FFB366;opacity=100;exitX=0.5;exitY=1;exitDx=0;exitDy=0;entryX=0.5;entryY=0;entryDx=0;entryDy=0;" parent="1" source="bBWRpNzCG56Vrc6m6rs4-2103" target="2068" edge="1">
          <mxGeometry width="100" height="100" relative="1" as="geometry">
            <mxPoint x="264" y="420" as="sourcePoint" />
            <mxPoint x="344" y="420" as="targetPoint" />
          </mxGeometry>
        </mxCell>
        <mxCell id="g2Sxirzmy1T5udXpX2Zn-2082" value="" style="image;aspect=fixed;html=1;points=[];align=center;fontSize=12;image=img/lib/azure2/analytics/Azure_Databricks.svg;" vertex="1" parent="1">
          <mxGeometry x="811.0999999999999" y="226.5" width="62.8" height="68" as="geometry" />
        </mxCell>
        <mxCell id="g2Sxirzmy1T5udXpX2Zn-2083" value="Azure&amp;nbsp;&lt;div&gt;Databricks&amp;nbsp;&lt;/div&gt;" style="text;html=1;align=center;verticalAlign=middle;whiteSpace=wrap;rounded=0;" vertex="1" parent="1">
          <mxGeometry x="794.16" y="287.5" width="96.67" height="54" as="geometry" />
        </mxCell>
        <mxCell id="g2Sxirzmy1T5udXpX2Zn-2088" value="Unity Catalog" style="rounded=1;whiteSpace=wrap;html=1;dashed=1;strokeColor=none;strokeWidth=2;fillColor=#FFFFFF;fontFamily=Helvetica;fontSize=14;fontColor=#FFB366;opacity=75;verticalAlign=top;fontStyle=1" vertex="1" parent="1">
          <mxGeometry x="771.51" y="350" width="140" height="235" as="geometry" />
        </mxCell>
        <mxCell id="g2Sxirzmy1T5udXpX2Zn-2089" value="" style="shape=image;verticalLabelPosition=bottom;labelBackgroundColor=#ffffff;verticalAlign=top;aspect=fixed;imageAspect=0;image=data:image/svg+xml,PHN2ZyB4bWxuczpjYz0iaHR0cDovL2NyZWF0aXZlY29tbW9ucy5vcmcvbnMjIiB4bWxuczpkYz0iaHR0cDovL3B1cmwub3JnL2RjL2VsZW1lbnRzLzEuMS8iIHhtbG5zOmlua3NjYXBlPSJodHRwOi8vd3d3Lmlua3NjYXBlLm9yZy9uYW1lc3BhY2VzL2lua3NjYXBlIiB4bWxuczpyZGY9Imh0dHA6Ly93d3cudzMub3JnLzE5OTkvMDIvMjItcmRmLXN5bnRheC1ucyMiIHhtbG5zOnNvZGlwb2RpPSJodHRwOi8vc29kaXBvZGkuc291cmNlZm9yZ2UubmV0L0RURC9zb2RpcG9kaS0wLmR0ZCIgeG1sbnM6c3ZnPSJodHRwOi8vd3d3LnczLm9yZy8yMDAwL3N2ZyIgeG1sbnM9Imh0dHA6Ly93d3cudzMub3JnLzIwMDAvc3ZnIiB4bWxuczp4bGluaz0iaHR0cDovL3d3dy53My5vcmcvMTk5OS94bGluayIgdmVyc2lvbj0iMS4xIiBpZD0ic3ZnOTkwNTgiIGlua3NjYXBlOnZlcnNpb249IjAuOTIuMyAoMjQwNTU0NiwgMjAxOC0wMy0xMSkiIHNvZGlwb2RpOmRvY25hbWU9ImRhdGFiYXNlcy5zdmciIHg9IjBweCIgeT0iMHB4IiB2aWV3Qm94PSIwIDAgNTIuODggNjUuODciIHN0eWxlPSJlbmFibGUtYmFja2dyb3VuZDpuZXcgMCAwIDUyLjg4IDY1Ljg3OyIgeG1sOnNwYWNlPSJwcmVzZXJ2ZSI+JiN4YTs8c29kaXBvZGk6bmFtZWR2aWV3IGJvcmRlcmNvbG9yPSIjNjY2NjY2IiBib3JkZXJvcGFjaXR5PSIxIiBmaXQtbWFyZ2luLWJvdHRvbT0iMCIgZml0LW1hcmdpbi1sZWZ0PSIwIiBmaXQtbWFyZ2luLXJpZ2h0PSIwIiBmaXQtbWFyZ2luLXRvcD0iMCIgZ3JpZHRvbGVyYW5jZT0iMTAiIGd1aWRldG9sZXJhbmNlPSIxMCIgaWQ9Im5hbWVkdmlldzk5MDYwIiBpbmtzY2FwZTpjdXJyZW50LWxheWVyPSJzdmc5OTA1OCIgaW5rc2NhcGU6Y3g9IjM1LjI1IiBpbmtzY2FwZTpjeT0iNDMuOTE1OCIgaW5rc2NhcGU6cGFnZW9wYWNpdHk9IjAiIGlua3NjYXBlOnBhZ2VzaGFkb3c9IjIiIGlua3NjYXBlOndpbmRvdy1oZWlnaHQ9IjEwMTciIGlua3NjYXBlOndpbmRvdy1tYXhpbWl6ZWQ9IjEiIGlua3NjYXBlOndpbmRvdy13aWR0aD0iMTkyMCIgaW5rc2NhcGU6d2luZG93LXg9Ii04IiBpbmtzY2FwZTp3aW5kb3cteT0iLTgiIGlua3NjYXBlOnpvb209IjkuODcyMjY4NSIgb2JqZWN0dG9sZXJhbmNlPSIxMCIgcGFnZWNvbG9yPSIjZmZmZmZmIiBzaG93Z3JpZD0iZmFsc2UiPiYjeGE7CTwvc29kaXBvZGk6bmFtZWR2aWV3PiYjeGE7PGcgaWQ9Imc5OTA1NiIgdHJhbnNmb3JtPSJ0cmFuc2xhdGUoMCwtMC4wMDMyKSI+JiN4YTsJPHRpdGxlIGlkPSJ0aXRsZTk5MDQxIj5QYWdlLTE8L3RpdGxlPiYjeGE7CTxnIGlkPSJncm91cDM1MTAtMSI+JiN4YTsJCTx0aXRsZSBpZD0idGl0bGU5OTA0MyI+RGF0YWJhc2VzPC90aXRsZT4mI3hhOwkJPGcgaWQ9InNoYXBlMzUxMS0yIiB0cmFuc2Zvcm09InRyYW5zbGF0ZSgxLjAyNDcxLC01Ni40NTY4KSI+JiN4YTsJCQk8dGl0bGUgaWQ9InRpdGxlOTkwNDUiPlNoZWV0LjM1MTE8L3RpdGxlPiYjeGE7CQkJPHBhdGggaWQ9InBhdGg5OTA0NyIgaW5rc2NhcGU6Y29ubmVjdG9yLWN1cnZhdHVyZT0iMCIgc3R5bGU9ImZpbGw6IzNGNTc2NTsiIGQ9Ik0wLDYxLjE2YzAtMi41OSwxMS40My00LjcsMjUuNTItNC43ICAgICBjMTQuMSwwLDI1LjUxLDIuMTEsMjUuNTEsNC43YzAsMi42MS0xMS40MSw0LjcxLTI1LjUxLDQuNzFDMTEuNDMsNjUuODcsMCw2My43NywwLDYxLjE2eiIvPiYjeGE7CQk8L2c+JiN4YTsJCTxnIGlkPSJzaGFwZTM1MTItNCI+JiN4YTsJCQk8dGl0bGUgaWQ9InRpdGxlOTkwNTAiPlNoZWV0LjM1MTI8L3RpdGxlPiYjeGE7CQkJPHBhdGggaWQ9InBhdGg5OTA1MiIgaW5rc2NhcGU6Y29ubmVjdG9yLWN1cnZhdHVyZT0iMCIgc3R5bGU9ImZpbGw6IzNGNTc2NTsiIGQ9Ik01Mi44OCwyMC42NWMwLTE0LjMxLDAtMTQuMzEsMC0xNC4zMSAgICAgYy0zLjUzLDMuMjktMTYuOTYsNC41Ny0yNi40NCw0LjU3Yy05LjQ3LDAtMjIuOS0xLjI4LTI2LjQ0LTQuNTdjMCwxNC4zMSwwLDE0LjMxLDAsMTQuMzFjMCwwLjY0LDAuNTUsMS4yNiwxLjY1LDEuOSAgICAgQzAuNTUsMjMuMDgsMCwyMy43MiwwLDI0LjM1YzAsMTYuMSwwLDE2LjEsMCwxNi4xYzAsMC43NCwwLjU1LDEuMzgsMS42NSwxLjkxQzAuNTUsNDIuOTksMCw0My41MiwwLDQ0LjI2ICAgICBjMCwxNi4xMSwwLDE2LjExLDAsMTYuMTFjMCwyLjk2LDExLjksNS41LDI2LjQ0LDUuNWMxNC42NSwwLDI2LjQ0LTIuNTQsMjYuNDQtNS41YzAtMTYuMTEsMC0xNi4xMSwwLTE2LjExICAgICBjMC0wLjc0LTAuNTYtMS4yNy0xLjU0LTEuOWMwLjk4LTAuNTMsMS41NC0xLjE3LDEuNTQtMS45MWMwLTE2LjEsMC0xNi4xLDAtMTYuMWMwLTAuNjMtMC41Ni0xLjI3LTEuNTQtMS44ICAgICBDNTIuMzIsMjEuOTEsNTIuODgsMjEuMjksNTIuODgsMjAuNjV6IE01MC40NSw0My42M2MwLDEuNjktMTAuNjgsMi45Ny0yNC4wMSwyLjk3Yy0xMy4yMiwwLTIzLjktMS4yOC0yMy45LTIuOTcgICAgIGMwLTIuMDIsMC0yLjAyLDAtMi4wMmMwLDEuNywxMC42OCwyLjk3LDIzLjksMi45N2MxMy4zMywwLDI0LjAxLTEuMjcsMjQuMDEtMi45N1Y0My42M3ogTTUwLjQ1LDIzLjkzICAgICBjMCwxLjY5LTEwLjY4LDMuMDctMjQuMDEsMy4wN2MtMTMuMjIsMC0yMy45LTEuMzgtMjMuOS0zLjA3YzAtMi4wMiwwLTIuMDIsMC0yLjAyYzAsMS43LDEwLjY4LDMuMDgsMjMuOSwzLjA4ICAgICBjMTMuMzMsMCwyNC4wMS0xLjM4LDI0LjAxLTMuMDhMNTAuNDUsMjMuOTN6Ii8+JiN4YTsJCTwvZz4mI3hhOwk8L2c+JiN4YTs8L2c+JiN4YTs8L3N2Zz4=;" vertex="1" parent="1">
          <mxGeometry x="815.01" y="376" width="53" height="66" as="geometry" />
        </mxCell>
        <mxCell id="g2Sxirzmy1T5udXpX2Zn-2090" value="Gold Schema" style="text;html=1;align=center;verticalAlign=middle;whiteSpace=wrap;rounded=0;" vertex="1" parent="1">
          <mxGeometry x="793.1700000000001" y="426" width="96.67" height="60" as="geometry" />
        </mxCell>
        <mxCell id="g2Sxirzmy1T5udXpX2Zn-2092" value="" style="sketch=0;html=1;aspect=fixed;strokeColor=none;shadow=0;fillColor=#3B8DF1;verticalAlign=top;labelPosition=center;verticalLabelPosition=bottom;shape=mxgraph.gcp2.view_list" vertex="1" parent="1">
          <mxGeometry x="816.17" y="478" width="51.84" height="64" as="geometry" />
        </mxCell>
        <mxCell id="g2Sxirzmy1T5udXpX2Zn-2093" value="Permanent View" style="text;html=1;align=center;verticalAlign=middle;whiteSpace=wrap;rounded=0;" vertex="1" parent="1">
          <mxGeometry x="794.6600000000001" y="527" width="96.67" height="60" as="geometry" />
        </mxCell>
      </root>
    </mxGraphModel>
  </diagram>
</mxfile>
